<svg width="100" height="100" viewBox="0 0 100 100" fill="none" xmlns="http://www.w3.org/2000/svg">
<path fill-rule="evenodd" clip-rule="evenodd" d="M97.3587 56.0111C98.5643 55.2058 98.5452 53.4275 97.3229 52.6482L77.8043 40.2034C73.7892 37.6436 68.6432 37.6884 64.6735 40.3181L2.52972 81.4838C1.33036 82.2781 1.33104 84.0392 2.531 84.8327L21.8227 97.5908C25.8695 100.267 31.1268 100.255 35.1611 97.5599L97.3587 56.0111Z" fill="url(#paint0_linear_363_578)"/>
<path d="M18.2429 1.28961L28.019 7.58637C23.8921 14.7694 21.7067 23.128 21.7248 31.6618C21.7248 32.0961 21.7328 32.5214 21.7409 32.9551C21.7409 33.0732 21.7495 33.1995 21.7495 33.3176C21.7495 33.4359 21.7575 33.5523 21.7736 33.6706C21.7736 33.9419 21.7896 34.2043 21.8057 34.4666C21.8137 34.6656 21.822 34.8644 21.8386 35.0648C21.8627 35.3997 21.8868 35.7256 21.9196 36.0606L21.9437 36.3596C21.9678 36.6487 22.0007 36.9381 22.0328 37.2282C22.0394 37.3222 22.0505 37.4158 22.0656 37.5086C22.0897 37.6804 22.1057 37.8614 22.1326 38.0318C22.1342 38.0806 22.1399 38.1292 22.1493 38.1768C22.1654 38.2853 22.1814 38.3937 22.1975 38.4931C22.2135 38.6919 22.2465 38.8915 22.2786 39.0911C22.2947 39.1995 22.3113 39.2989 22.3274 39.4073C22.326 39.423 22.3288 39.4389 22.3354 39.4529L22.3844 39.77C22.4005 39.8782 22.4166 39.9778 22.4407 40.0861C22.5075 40.5025 22.5866 40.919 22.6676 41.3347C22.7487 41.724 22.8296 42.1306 22.9188 42.5202C22.9756 42.7736 23.0324 43.0174 23.0975 43.2618C23.1619 43.5895 23.2431 43.9126 23.3405 44.2298C23.3501 44.2883 23.3635 44.3457 23.3806 44.4019C23.3967 44.4563 23.4055 44.5013 23.4216 44.5469L23.4698 44.7367C23.5105 44.8901 23.5507 45.0441 23.5997 45.1853C23.6238 45.2758 23.6485 45.3662 23.6726 45.4477C23.6784 45.4827 23.6892 45.5162 23.7047 45.5471C23.7858 45.8461 23.8748 46.1355 23.9726 46.4337C24.0208 46.5967 24.0698 46.7598 24.1266 46.913C24.2077 47.1851 24.3047 47.4563 24.3945 47.7188C24.4131 47.7837 24.4354 47.8471 24.4615 47.9088C24.5017 48.0351 24.5505 48.171 24.5953 48.2975C24.6202 48.3788 24.6523 48.4513 24.6764 48.5216C24.7903 48.8469 24.9202 49.1638 25.0413 49.4808C25.0413 49.4899 25.0413 49.4899 25.0493 49.4987C25.2194 49.9511 25.4063 50.3959 25.5925 50.8286C25.7625 51.2264 25.9326 51.6248 26.1194 52.0136C26.1762 52.1407 26.2407 52.276 26.3055 52.4023C26.4515 52.7192 26.6055 53.0363 26.7595 53.3435C26.8324 53.4975 26.9055 53.6425 26.9864 53.7869C27.1204 54.0581 27.2698 54.3296 27.4158 54.6009C27.4348 54.6453 27.4573 54.6877 27.4826 54.728C27.4965 54.7471 27.5073 54.7686 27.5148 54.7915C27.6768 55.0987 27.8557 55.4059 28.0258 55.7051L22.3937 59.333C22.369 59.3509 22.3368 59.369 22.2878 59.3965L18.2429 62.0033C16.9334 62.8491 15.4476 63.2951 13.9348 63.2967C12.422 63.2981 10.9355 62.8549 9.62467 62.0118C8.31391 61.1684 7.22505 59.9547 6.46758 58.4927C5.71013 57.0308 5.31073 55.3718 5.30957 53.6828V9.63097C5.30957 9.45978 5.30957 9.29681 5.3176 9.12486V9.10693C5.32427 9.05595 5.32694 9.00442 5.32563 8.95291C5.42861 7.32404 5.90085 5.75109 6.69802 4.38191C7.49519 3.01281 8.5911 1.89244 9.88272 1.12618C11.1743 0.359927 12.6193 -0.0270838 14.0817 0.00147327C15.5442 0.0300304 16.9761 0.473337 18.2429 1.28961Z" fill="#21BCF0"/>
<path d="M28.0157 7.58618L28.826 8.10956L31.0543 9.53883L32.5945 10.5346H32.6025C32.6105 10.5436 32.6105 10.5525 32.6186 10.5525L52.4159 23.3195C53.7254 24.1653 54.8127 25.3805 55.5686 26.8436C56.3244 28.3066 56.7224 29.9659 56.7224 31.6548C56.7224 33.3438 56.3244 35.0032 55.5686 36.4663C54.8127 37.9293 53.7254 39.1446 52.4159 39.9904L50.8356 41.0131L50.8196 41.0219C50.8107 41.0265 50.8027 41.0325 50.7955 41.0398L30.3981 54.1717L28.0157 55.7094C27.8457 55.4102 27.6668 55.103 27.5047 54.7958C27.4973 54.7729 27.4864 54.7514 27.4726 54.7323C27.4473 54.6922 27.425 54.6496 27.4057 54.6052C27.2597 54.3339 27.1137 54.0624 26.9764 53.7912C26.8955 53.647 26.8224 53.5018 26.7495 53.3478C26.5955 53.0406 26.4415 52.7235 26.2955 52.4066C26.2286 52.2803 26.1664 52.145 26.1093 52.0179C25.9226 51.6291 25.7525 51.2307 25.5824 50.8331C25.3963 50.3988 25.2093 49.9554 25.0392 49.503C25.0312 49.4942 25.0312 49.4942 25.0312 49.4851C24.9101 49.1681 24.7802 48.8512 24.6664 48.5261C24.6423 48.4512 24.6101 48.3811 24.5854 48.3018C24.537 48.1755 24.4882 48.0394 24.4515 47.913C24.4254 47.8514 24.4031 47.7879 24.3844 47.7231C24.2955 47.4606 24.1983 47.1894 24.1166 46.9173C24.0597 46.7641 24.0107 46.601 23.9625 46.4381C23.8647 46.1392 23.7758 45.8498 23.6947 45.5514C23.6792 45.5205 23.6684 45.4869 23.6625 45.452C23.6384 45.3705 23.6137 45.2801 23.5896 45.1898C23.5408 45.0446 23.5005 44.8906 23.4597 44.7412L23.4115 44.5512C23.3955 44.5056 23.3868 44.4608 23.3708 44.4062C23.3537 44.35 23.34 44.2926 23.3304 44.2343C23.2408 43.9173 23.1597 43.592 23.0874 43.2661C23.0206 43.0217 22.9655 42.7779 22.9087 42.5245C22.8196 42.1261 22.7386 41.7373 22.6575 41.339C22.5766 40.9233 22.4955 40.5068 22.4306 40.0906C22.4065 39.9821 22.3904 39.8827 22.3744 39.7743L22.3254 39.4572C22.319 39.4432 22.3162 39.4273 22.3174 39.4116C22.3013 39.3032 22.2846 39.2038 22.2686 39.0954C22.2204 38.7873 22.1794 38.4892 22.1392 38.1819C22.1298 38.1343 22.1242 38.0857 22.1226 38.0369C22.0985 37.8649 22.0744 37.6841 22.0555 37.5137C22.0404 37.4209 22.0294 37.3273 22.0228 37.2333L21.9987 37.0247C21.9746 36.8078 21.9499 36.5813 21.9316 36.3645L21.9075 36.0657C21.8748 35.7307 21.8507 35.4048 21.8266 35.0699C21.8099 34.8711 21.8019 34.6721 21.7939 34.4717C21.7858 34.2715 21.7698 34.0643 21.7615 33.8655C21.7575 33.8022 21.7575 33.7388 21.7615 33.6755C21.7455 33.4402 21.7374 33.2046 21.7288 32.96C21.7208 32.5265 21.7127 32.1012 21.7127 31.6669C21.6965 23.1305 23.8848 14.7696 28.0157 7.58618Z" fill="url(#paint1_linear_363_578)"/>
<defs>
<linearGradient id="paint0_linear_363_578" x1="99.9169" y1="69.0008" x2="0.000443967" y2="69.0008" gradientUnits="userSpaceOnUse">
<stop stop-color="#008CDB"/>
<stop offset="1" stop-color="#21C1F0"/>
</linearGradient>
<linearGradient id="paint1_linear_363_578" x1="21.7127" y1="31.6478" x2="56.7224" y2="31.6478" gradientUnits="userSpaceOnUse">
<stop stop-color="#008CDB"/>
<stop offset="1" stop-color="#21C1F0"/>
</linearGradient>
</defs>
</svg>
