<svg width="24" height="24" viewBox="0 0 24 24" fill="none" xmlns="http://www.w3.org/2000/svg">
<path d="M12 17.25C11.9015 17.2501 11.8039 17.2308 11.7129 17.1931C11.6219 17.1554 11.5392 17.1001 11.4697 17.0303L3.96968 9.53033C3.82902 9.38968 3.75 9.19891 3.75 8.99999C3.75 8.80107 3.82902 8.6103 3.96968 8.46965C4.11033 8.32899 4.3011 8.24997 4.50002 8.24997C4.69894 8.24997 4.88971 8.32899 5.03036 8.46965L12 15.4393L18.9697 8.46965C19.1103 8.32899 19.3011 8.24997 19.5 8.24997C19.6989 8.24997 19.8897 8.32899 20.0304 8.46965C20.171 8.6103 20.25 8.80107 20.25 8.99999C20.25 9.19891 20.171 9.38968 20.0304 9.53033L12.5304 17.0303C12.4608 17.1001 12.3781 17.1554 12.2871 17.1931C12.1961 17.2308 12.0985 17.2501 12 17.25Z" fill="#2B2D3A"/>
</svg>
