<svg width="20" height="20" viewBox="0 0 20 20" fill="none" xmlns="http://www.w3.org/2000/svg">
<path opacity="0.2" d="M10 17.5C14.1421 17.5 17.5 14.1421 17.5 10C17.5 5.85786 14.1421 2.5 10 2.5C5.85786 2.5 2.5 5.85786 2.5 10C2.5 14.1421 5.85786 17.5 10 17.5Z" fill="#2BC277"/>
<path d="M13.006 7.67284L8.85431 11.636L6.99407 9.86034C6.93479 9.80319 6.86481 9.75832 6.78814 9.72831C6.71146 9.69829 6.62962 9.68372 6.5473 9.68544C6.46498 9.68715 6.38381 9.70511 6.30845 9.73829C6.2331 9.77147 6.16504 9.81921 6.10819 9.87877C6.05134 9.93834 6.00682 10.0085 5.97718 10.0854C5.94755 10.1622 5.93339 10.2441 5.93551 10.3264C5.93763 10.4087 5.956 10.4898 5.98955 10.565C6.0231 10.6402 6.07118 10.708 6.13102 10.7646L8.42274 12.9521C8.53901 13.063 8.69355 13.1249 8.85427 13.1249C9.01499 13.1249 9.16953 13.063 9.28579 12.9521L13.8691 8.57706C13.9289 8.5205 13.977 8.45268 14.0105 8.37749C14.0441 8.3023 14.0625 8.22122 14.0646 8.13891C14.0667 8.0566 14.0525 7.97468 14.0229 7.89786C13.9933 7.82104 13.9488 7.75084 13.8919 7.69127C13.8351 7.63171 13.767 7.58397 13.6916 7.55079C13.6163 7.51761 13.5351 7.49965 13.4528 7.49794C13.3705 7.49622 13.2886 7.51079 13.212 7.54081C13.1353 7.57082 13.0653 7.61569 13.006 7.67284Z" fill="#0391DD"/>
<path d="M10 1.875C8.39303 1.875 6.82214 2.35152 5.486 3.24431C4.14985 4.1371 3.10844 5.40605 2.49348 6.8907C1.87852 8.37535 1.71762 10.009 2.03112 11.5851C2.34463 13.1612 3.11846 14.6089 4.25476 15.7452C5.39106 16.8815 6.8388 17.6554 8.4149 17.9689C9.99099 18.2824 11.6247 18.1215 13.1093 17.5065C14.594 16.8916 15.8629 15.8502 16.7557 14.514C17.6485 13.1779 18.125 11.607 18.125 10C18.1226 7.84586 17.2658 5.78066 15.7426 4.25745C14.2193 2.73425 12.1541 1.87744 10 1.875ZM10 16.875C8.64026 16.875 7.31105 16.4718 6.18046 15.7164C5.04987 14.9609 4.16868 13.8872 3.64833 12.6309C3.12798 11.3747 2.99183 9.99237 3.2571 8.65875C3.52238 7.32513 4.17716 6.10013 5.13864 5.13864C6.10013 4.17716 7.32514 3.52237 8.65876 3.2571C9.99238 2.99183 11.3747 3.12798 12.631 3.64833C13.8872 4.16868 14.9609 5.04987 15.7164 6.18045C16.4718 7.31104 16.875 8.64025 16.875 10C16.8729 11.8227 16.1479 13.5702 14.8591 14.8591C13.5702 16.1479 11.8227 16.8729 10 16.875Z" fill="#2BC277"/>
</svg>
