<svg width="18" height="18" viewBox="0 0 18 18" fill="none" xmlns="http://www.w3.org/2000/svg">
<path fill-rule="evenodd" clip-rule="evenodd" d="M15.6875 9C15.6875 9.27614 15.4636 9.5 15.1875 9.5L2.8125 9.5C2.53636 9.5 2.3125 9.27614 2.3125 9C2.3125 8.72386 2.53636 8.5 2.8125 8.5L15.1875 8.5C15.4636 8.5 15.6875 8.72386 15.6875 9Z" fill="#D2D2D2"/>
<path fill-rule="evenodd" clip-rule="evenodd" d="M8.22855 3.58395C8.42382 3.77921 8.42382 4.09579 8.22856 4.29105L3.51961 9L8.22856 13.7089C8.42382 13.9042 8.42382 14.2208 8.22856 14.4161C8.03329 14.6113 7.71671 14.6113 7.52145 14.4161L2.45895 9.35355C2.26369 9.15829 2.26369 8.84171 2.45895 8.64645L7.52145 3.58395C7.71671 3.38868 8.03329 3.38868 8.22855 3.58395Z" fill="#D2D2D2"/>
</svg>
