<svg width="18" height="18" viewBox="0 0 18 18" fill="none" xmlns="http://www.w3.org/2000/svg">
<path d="M14.4603 10.5228L9.39777 15.5853C9.34554 15.6375 9.28353 15.6789 9.21528 15.7072C9.14703 15.7355 9.07389 15.75 9.00001 15.75C8.92614 15.75 8.853 15.7355 8.78475 15.7072C8.7165 15.6789 8.65449 15.6375 8.60226 15.5853L3.53976 10.5228C3.43426 10.4173 3.375 10.2742 3.375 10.125C3.375 9.97581 3.43426 9.83273 3.53976 9.72724C3.64525 9.62175 3.78833 9.56248 3.93751 9.56248C4.0867 9.56248 4.22978 9.62175 4.33527 9.72724L8.43751 13.8296V2.8125C8.43751 2.66332 8.49678 2.52024 8.60227 2.41475C8.70776 2.30926 8.85083 2.25 9.00001 2.25C9.1492 2.25 9.29227 2.30926 9.39776 2.41475C9.50325 2.52024 9.56251 2.66332 9.56251 2.8125V13.8296L13.6648 9.72724C13.717 9.67501 13.779 9.63357 13.8472 9.6053C13.9155 9.57704 13.9886 9.56248 14.0625 9.56248C14.1364 9.56248 14.2095 9.57704 14.2778 9.6053C14.346 9.63357 14.408 9.67501 14.4603 9.72724C14.5125 9.77948 14.5539 9.84149 14.5822 9.90973C14.6105 9.97798 14.625 10.0511 14.625 10.125C14.625 10.1989 14.6105 10.272 14.5822 10.3403C14.5539 10.4085 14.5125 10.4705 14.4603 10.5228Z" fill="#2B2D3A"/>
</svg>
