<svg width="24" height="24" viewBox="0 0 24 24" fill="none" xmlns="http://www.w3.org/2000/svg">
<path d="M18.5839 6.16627L18.5839 15.7122C18.5839 15.8107 18.5645 15.9082 18.5268 15.9992C18.4891 16.0902 18.4339 16.1729 18.3643 16.2426C18.2946 16.3122 18.2119 16.3674 18.1209 16.4051C18.0299 16.4428 17.9324 16.4622 17.8339 16.4622C17.7354 16.4622 17.6379 16.4428 17.5469 16.4051C17.4559 16.3674 17.3732 16.3122 17.3036 16.2426C17.2339 16.1729 17.1787 16.0902 17.141 15.9992C17.1033 15.9082 17.0839 15.8107 17.0839 15.7122V7.97695L6.69698 18.3639C6.55633 18.5045 6.36556 18.5835 6.16665 18.5835C5.96774 18.5835 5.77697 18.5045 5.63632 18.3639C5.49567 18.2232 5.41665 18.0324 5.41665 17.8335C5.41665 17.6346 5.49567 17.4439 5.63632 17.3032L16.0232 6.91629L8.28797 6.91629C8.08905 6.91629 7.89828 6.83727 7.75763 6.69662C7.61697 6.55596 7.53795 6.36519 7.53795 6.16627C7.53795 5.96735 7.61697 5.77658 7.75763 5.63593C7.89828 5.49527 8.08905 5.41625 8.28797 5.41625L17.8339 5.41625C17.9324 5.41625 18.0299 5.43565 18.1209 5.47334C18.2119 5.51103 18.2946 5.56628 18.3643 5.63592C18.4339 5.70557 18.4892 5.78825 18.5268 5.87925C18.5645 5.97025 18.5839 6.06778 18.5839 6.16627Z" fill="#2B2D3A"/>
</svg>
