<svg width="24" height="24" viewBox="0 0 24 24" fill="none" xmlns="http://www.w3.org/2000/svg">
<path d="M9 20.25C9 20.5467 8.91203 20.8367 8.7472 21.0834C8.58238 21.33 8.34811 21.5223 8.07403 21.6358C7.79994 21.7494 7.49834 21.7791 7.20736 21.7212C6.91639 21.6633 6.64912 21.5204 6.43934 21.3107C6.22956 21.1009 6.0867 20.8336 6.02882 20.5426C5.97094 20.2517 6.00065 19.9501 6.11418 19.676C6.22771 19.4019 6.41997 19.1676 6.66665 19.0028C6.91332 18.838 7.20333 18.75 7.5 18.75C7.89782 18.75 8.27936 18.908 8.56066 19.1893C8.84196 19.4706 9 19.8522 9 20.25ZM17.25 18.75C16.9533 18.75 16.6633 18.838 16.4166 19.0028C16.17 19.1676 15.9777 19.4019 15.8642 19.676C15.7506 19.9501 15.7209 20.2517 15.7788 20.5426C15.8367 20.8336 15.9796 21.1009 16.1893 21.3107C16.3991 21.5204 16.6664 21.6633 16.9574 21.7212C17.2483 21.7791 17.5499 21.7494 17.824 21.6358C18.0981 21.5223 18.3324 21.33 18.4972 21.0834C18.662 20.8367 18.75 20.5467 18.75 20.25C18.75 19.8522 18.592 19.4706 18.3107 19.1893C18.0294 18.908 17.6478 18.75 17.25 18.75ZM21.5068 6.95606L19.032 15.6181C18.8963 16.0874 18.6121 16.5001 18.2221 16.7944C17.8321 17.0886 17.3572 17.2484 16.8686 17.25H7.88138C7.39281 17.2485 6.91792 17.0886 6.52788 16.7944C6.13784 16.5002 5.85368 16.0874 5.718 15.6181L3.24722 6.97022C3.24441 6.96108 3.24179 6.95189 3.23934 6.94266L2.32716 3.75H0.75C0.551088 3.75 0.360322 3.67098 0.21967 3.53033C0.0790176 3.38968 0 3.19891 0 3C0 2.80109 0.0790176 2.61032 0.21967 2.46967C0.360322 2.32902 0.551088 2.25 0.75 2.25H2.32706C2.65277 2.25105 2.96935 2.35763 3.22939 2.55376C3.48942 2.74989 3.67889 3.025 3.76941 3.33788L4.53 6H20.7857C20.9018 6 21.0163 6.02695 21.1202 6.07873C21.2241 6.1305 21.3145 6.20569 21.3844 6.29837C21.4544 6.39105 21.5018 6.49869 21.523 6.61282C21.5443 6.72694 21.5387 6.84444 21.5068 6.95606ZM19.7914 7.5H4.95862L7.16034 15.2061C7.20557 15.3625 7.30027 15.5001 7.43027 15.5981C7.56026 15.6962 7.71854 15.7495 7.88138 15.75H16.8686C17.0315 15.7495 17.1897 15.6962 17.3197 15.5981C17.4497 15.5001 17.5444 15.3625 17.5897 15.2061L19.7914 7.5Z" fill="white"/>
</svg>
