<svg width="32" height="32" viewBox="0 0 32 32" fill="none" xmlns="http://www.w3.org/2000/svg">
<path d="M12 27C12 27.3956 11.8827 27.7822 11.6629 28.1111C11.4432 28.44 11.1308 28.6964 10.7654 28.8478C10.3999 28.9991 9.99778 29.0387 9.60982 28.9616C9.22186 28.8844 8.86549 28.6939 8.58579 28.4142C8.30608 28.1345 8.1156 27.7781 8.03843 27.3902C7.96126 27.0022 8.00087 26.6001 8.15224 26.2346C8.30362 25.8692 8.55996 25.5568 8.88886 25.3371C9.21776 25.1173 9.60444 25 10 25C10.5304 25 11.0391 25.2107 11.4142 25.5858C11.7893 25.9609 12 26.4696 12 27ZM23 25C22.6044 25 22.2178 25.1173 21.8889 25.3371C21.56 25.5568 21.3036 25.8692 21.1522 26.2346C21.0009 26.6001 20.9613 27.0022 21.0384 27.3902C21.1156 27.7781 21.3061 28.1345 21.5858 28.4142C21.8655 28.6939 22.2219 28.8844 22.6098 28.9616C22.9978 29.0387 23.3999 28.9991 23.7654 28.8478C24.1308 28.6964 24.4432 28.44 24.6629 28.1111C24.8827 27.7822 25 27.3956 25 27C25 26.4696 24.7893 25.9609 24.4142 25.5858C24.0391 25.2107 23.5304 25 23 25ZM28.6758 9.27475L25.376 20.8241C25.1951 21.4499 24.8162 22.0002 24.2961 22.3925C23.7761 22.7848 23.1429 22.9979 22.4915 23H10.5085C9.85709 22.9979 9.22389 22.7848 8.70384 22.3925C8.18379 22.0002 7.80491 21.4499 7.624 20.8241L4.32963 9.29362C4.32589 9.28144 4.32238 9.26919 4.31913 9.25688L3.10287 5H1C0.734784 5 0.48043 4.89464 0.292893 4.70711C0.105357 4.51957 0 4.26522 0 4C0 3.73478 0.105357 3.48043 0.292893 3.29289C0.48043 3.10536 0.734784 3 1 3H3.10275C3.53702 3.0014 3.95914 3.14351 4.30585 3.40501C4.65256 3.66651 4.90519 4.03333 5.02588 4.4505L6.04 8H27.7143C27.869 8 28.0217 8.03593 28.1602 8.10497C28.2988 8.174 28.4194 8.27425 28.5126 8.39782C28.6058 8.52139 28.6691 8.66492 28.6974 8.81709C28.7257 8.96926 28.7183 9.12592 28.6758 9.27475ZM26.3885 10H6.6115L9.54712 20.2747C9.60742 20.4833 9.7337 20.6667 9.90702 20.7975C10.0803 20.9282 10.2914 20.9993 10.5085 21H22.4915C22.7086 20.9993 22.9197 20.9282 23.093 20.7975C23.2663 20.6667 23.3926 20.4833 23.4529 20.2747L26.3885 10Z" fill="#2B2D3A"/>
</svg>
