<svg width="18" height="18" viewBox="0 0 18 18" fill="none" xmlns="http://www.w3.org/2000/svg">
<path d="M6.75002 15.1875C6.63877 15.1875 6.53001 15.1545 6.4375 15.0927C6.345 15.0309 6.2729 14.9431 6.23032 14.8403C6.18774 14.7375 6.1766 14.6244 6.19831 14.5153C6.22002 14.4062 6.27359 14.3059 6.35226 14.2273L11.5795 9.00001L6.35226 3.77277C6.24677 3.66728 6.18751 3.5242 6.18751 3.37501C6.18751 3.22583 6.24677 3.08275 6.35226 2.97726C6.45775 2.87176 6.60083 2.8125 6.75002 2.8125C6.89921 2.8125 7.04229 2.87176 7.14778 2.97726L12.7728 8.60226C12.825 8.65449 12.8665 8.7165 12.8947 8.78475C12.923 8.853 12.9375 8.92614 12.9375 9.00001C12.9375 9.07389 12.923 9.14703 12.8947 9.21528C12.8665 9.28353 12.825 9.34554 12.7728 9.39777L7.14778 15.0228C7.0956 15.0751 7.0336 15.1166 6.96534 15.1448C6.89708 15.1731 6.8239 15.1876 6.75002 15.1875Z" fill="#8B91B4"/>
</svg>
