<svg width="32" height="32" viewBox="0 0 32 32" fill="none" xmlns="http://www.w3.org/2000/svg">
<path d="M22 27.9999C12.0747 27.9999 4 19.9252 4 9.99995C4.00171 8.29712 4.62329 6.65315 5.74863 5.37517C6.87396 4.09718 8.42607 3.27259 10.115 3.05545C10.5448 3.0036 10.9798 3.09227 11.355 3.30819C11.7302 3.52411 12.0254 3.85568 12.1965 4.25332L14.708 10.1131C14.8383 10.4162 14.8914 10.7469 14.8626 11.0755C14.8338 11.4042 14.724 11.7206 14.543 11.9964L12.4636 15.1737L12.4634 15.1739C13.4023 17.083 14.9508 18.6247 16.864 19.5552L19.9944 17.4684C20.271 17.2834 20.5895 17.1705 20.9209 17.14C21.2523 17.1096 21.5861 17.1626 21.8918 17.2942L27.7465 19.8033C28.1442 19.9744 28.4758 20.2696 28.6918 20.6448C28.9077 21.02 28.9964 21.455 28.9445 21.8848C28.7274 23.5738 27.9028 25.1259 26.6248 26.2513C25.3468 27.3766 23.7028 27.9982 22 27.9999ZM10.3582 5.04132C9.15355 5.19769 8.04693 5.78712 7.24496 6.69957C6.44298 7.61203 6.00046 8.78515 6 9.99995C6.0048 14.2419 7.69205 18.3088 10.6916 21.3084C13.6911 24.3079 17.758 25.9952 22 25.9999C23.216 25.999 24.3901 25.5554 25.303 24.7519C26.2158 23.9485 26.805 22.8403 26.9604 21.6342L21.104 19.1326L17.9746 21.2193C17.687 21.4115 17.3544 21.5256 17.0094 21.5506C16.6644 21.5756 16.3188 21.5105 16.0065 21.3618C13.6805 20.2347 11.7987 18.3615 10.661 16.0407C10.5116 15.7302 10.4449 15.3864 10.4675 15.0426C10.4901 14.6988 10.6012 14.3667 10.79 14.0784L12.8695 10.9009L10.3582 5.04132Z" fill="#2B2D3A"/>
</svg>
