<svg width="16" height="16" viewBox="0 0 16 16" fill="none" xmlns="http://www.w3.org/2000/svg">
<path d="M15.4998 7.49625C15.4998 7.49106 15.4992 7.48581 15.499 7.48056C15.4985 7.46678 15.4975 7.45301 15.4959 7.43931C15.4952 7.43344 15.4942 7.42756 15.4932 7.42169C15.4903 7.40287 15.4863 7.38423 15.4812 7.36587C15.4771 7.35083 15.4722 7.33608 15.4666 7.32163C15.4657 7.31919 15.4652 7.31669 15.4642 7.31431L15.4611 7.30656L15.4605 7.30487L14.5899 5.12862C14.5163 4.94269 14.3883 4.78326 14.2227 4.67113C14.0571 4.559 13.8615 4.49936 13.6615 4.5H11.5V4C11.5 3.86739 11.4473 3.74021 11.3536 3.64645C11.2598 3.55268 11.1326 3.5 11 3.5H1.5C1.23487 3.5003 0.980694 3.60575 0.793222 3.79322C0.60575 3.98069 0.500298 4.23487 0.5 4.5V11.5C0.500298 11.7651 0.60575 12.0193 0.793222 12.2068C0.980694 12.3942 1.23487 12.4997 1.5 12.5H2.31325C2.42412 12.9294 2.67452 13.3097 3.02509 13.5812C3.37567 13.8528 3.80653 14.0001 4.24997 14.0001C4.69341 14.0001 5.12427 13.8528 5.47484 13.5812C5.82541 13.3097 6.07582 12.9294 6.18669 12.5H9.81325C9.92412 12.9294 10.1745 13.3097 10.5251 13.5812C10.8757 13.8528 11.3065 14.0001 11.75 14.0001C12.1934 14.0001 12.6243 13.8528 12.9748 13.5812C13.3254 13.3097 13.5758 12.9294 13.6867 12.5H14.5C14.7651 12.4997 15.0193 12.3942 15.2068 12.2068C15.3942 12.0193 15.4997 11.7651 15.5 11.5V7.5L15.4998 7.49625ZM13.6615 5.5L14.2615 7H11.5V5.5H13.6615ZM10.5 4.5V8.5H1.5V4.5H10.5ZM1.5 9.5H10.5V10.4404C10.1629 10.7104 9.92201 11.082 9.81325 11.5H6.18669C6.07582 11.0706 5.82541 10.6903 5.47484 10.4188C5.12427 10.1472 4.69341 9.99987 4.24997 9.99987C3.80653 9.99987 3.37567 10.1472 3.02509 10.4188C2.67452 10.6903 2.42412 11.0706 2.31325 11.5H1.5V9.5ZM4.25 13C4.05222 13 3.85888 12.9414 3.69443 12.8315C3.52998 12.7216 3.40181 12.5654 3.32612 12.3827C3.25043 12.2 3.23063 11.9989 3.26921 11.8049C3.3078 11.6109 3.40304 11.4327 3.54289 11.2929C3.68275 11.153 3.86093 11.0578 4.05491 11.0192C4.24889 10.9806 4.44996 11.0004 4.63268 11.0761C4.81541 11.1518 4.97159 11.28 5.08147 11.4444C5.19135 11.6089 5.25 11.8022 5.25 12C5.2497 12.2651 5.14425 12.5193 4.95678 12.7068C4.76931 12.8942 4.51513 12.9997 4.25 13V13ZM11.75 13C11.5522 13 11.3589 12.9414 11.1944 12.8315C11.03 12.7216 10.9018 12.5654 10.8261 12.3827C10.7504 12.2 10.7306 11.9989 10.7692 11.8049C10.8078 11.6109 10.903 11.4327 11.0429 11.2929C11.1827 11.153 11.3609 11.0578 11.5549 11.0192C11.7489 10.9806 11.95 11.0004 12.1327 11.0761C12.3154 11.1518 12.4716 11.28 12.5815 11.4444C12.6914 11.6089 12.75 11.8022 12.75 12C12.7497 12.2651 12.6442 12.5193 12.4568 12.7068C12.2693 12.8942 12.0151 12.9997 11.75 13V13ZM14.5 11.5H13.6867C13.5658 11.0286 13.2768 10.6176 12.8741 10.3443C12.4714 10.071 11.9827 9.95434 11.5 10.0162V8H14.5V11.5Z" fill="white"/>
</svg>
