<svg width="30" height="30" viewBox="0 0 30 30" fill="none" xmlns="http://www.w3.org/2000/svg">
<path d="M15.4071 24.4243L24.7479 15.0835C27.043 12.7884 27.3817 9.01247 25.2097 6.60049C24.6657 5.99457 24.0039 5.50584 23.2647 5.16413C22.5255 4.82243 21.7245 4.63491 20.9105 4.61301C20.0964 4.59111 19.2865 4.7353 18.53 5.03677C17.7736 5.33825 17.0864 5.79069 16.5106 6.36649L14.755 8.1221L13.2391 6.60625C10.9441 4.31116 7.16816 3.97272 4.75618 6.1447C4.15025 6.68874 3.66153 7.35054 3.31982 8.0897C2.97811 8.82887 2.79059 9.62991 2.76869 10.4439C2.7468 11.258 2.89098 12.0679 3.19246 12.8244C3.49393 13.5809 3.94637 14.268 4.52217 14.8438L14.1029 24.4244C14.1885 24.5101 14.2902 24.578 14.4021 24.6243C14.514 24.6707 14.6339 24.6945 14.755 24.6945C14.8761 24.6945 14.996 24.6707 15.1079 24.6243C15.2198 24.578 15.3215 24.5101 15.4071 24.4244V24.4243Z" fill="#2B2D3A"/>
<path d="M14.755 25.6155C14.5128 25.6159 14.273 25.5685 14.0492 25.476C13.8254 25.3835 13.6221 25.2477 13.4509 25.0763L3.87008 15.4955C3.20578 14.8312 2.68379 14.0385 2.33593 13.1658C1.98808 12.2931 1.82166 11.3586 1.84683 10.4195C1.87199 9.48035 2.08821 8.55618 2.4823 7.70335C2.87639 6.85052 3.44009 6.08692 4.13901 5.45912C4.81068 4.85978 5.59638 4.40214 6.44908 4.11361C7.30178 3.82508 8.20394 3.71159 9.10153 3.77993C10.9091 3.89917 12.6115 4.67196 13.8911 5.9541L14.755 6.81784L15.8585 5.71433C16.5228 5.05001 17.3156 4.52799 18.1883 4.18011C19.061 3.83224 19.9955 3.6658 20.9346 3.69096C21.8738 3.71611 22.798 3.93233 23.6508 4.32642C24.5037 4.72051 25.2673 5.28422 25.8951 5.98315C26.4945 6.65478 26.9522 7.44049 27.2407 8.2932C27.5292 9.14591 27.6426 10.0481 27.5742 10.9457C27.4551 12.7532 26.6823 14.4557 25.4002 15.7354L16.0592 25.0762V25.0763C15.888 25.2477 15.6847 25.3835 15.4609 25.476C15.2371 25.5685 14.9972 25.6159 14.755 25.6155V25.6155ZM8.64412 5.61635C7.44113 5.60143 6.27547 6.03384 5.37324 6.82972C4.8603 7.28999 4.44654 7.84997 4.15722 8.47547C3.8679 9.10098 3.70909 9.77888 3.69048 10.4678C3.67187 11.1567 3.79385 11.8422 4.04899 12.4824C4.30412 13.1226 4.68705 13.7041 5.17439 14.1914L15.4072 24.4242L14.755 23.772L24.0958 14.4312C26.1049 12.4222 26.2972 9.18602 24.5244 7.21738C24.0641 6.70448 23.5042 6.29075 22.8787 6.00145C22.2532 5.71215 21.5753 5.55334 20.8864 5.53472C20.1975 5.51611 19.512 5.63806 18.8718 5.89316C18.2316 6.14825 17.6501 6.53113 17.1628 7.01842L15.4072 8.77403C15.2343 8.94699 14.9997 9.04416 14.7551 9.04416C14.5105 9.04416 14.2759 8.94699 14.1029 8.77403L12.5871 7.25819C11.5411 6.21169 10.1237 5.62146 8.64412 5.61635V5.61635Z" fill="#1B1E30"/>
</svg>
