<svg width="30" height="30" viewBox="0 0 30 30" fill="none" xmlns="http://www.w3.org/2000/svg">
<path d="M14.7529 25.6118C14.5107 25.6122 14.2709 25.5649 14.0471 25.4724C13.8234 25.3798 13.6201 25.244 13.449 25.0728L3.86951 15.4933C3.20532 14.8291 2.6834 14.0365 2.3356 13.1639C1.98779 12.2913 1.8214 11.357 1.84656 10.418C1.87172 9.47902 2.08791 8.55498 2.48194 7.70228C2.87598 6.84958 3.43959 6.08608 4.13841 5.45837C4.81001 4.85916 5.5956 4.40162 6.44817 4.11313C7.30074 3.82464 8.20275 3.71114 9.10021 3.77943C10.9075 3.89865 12.6097 4.67133 13.8891 5.95328L14.7529 6.8169L15.8562 5.71355C16.5204 5.04932 17.313 4.52738 18.1856 4.17955C19.0582 3.83173 19.9925 3.66532 20.9316 3.69047C21.8706 3.71562 22.7947 3.93181 23.6474 4.32584C24.5001 4.71987 25.2636 5.2835 25.8914 5.98233C26.4907 6.65386 26.9483 7.43945 27.2367 8.29204C27.5252 9.14463 27.6386 10.0467 27.5702 10.9441C27.4511 12.7514 26.6784 14.4537 25.3965 15.7332L16.0569 25.0726V25.0728C15.8857 25.244 15.6824 25.3798 15.4586 25.4723C15.2348 25.5648 14.995 25.6122 14.7529 25.6118ZM8.64287 5.61558C7.44005 5.60066 6.27455 6.03301 5.37246 6.82877C4.85959 7.28898 4.44589 7.84888 4.15661 8.47429C3.86734 9.0997 3.70855 9.77751 3.68994 10.4663C3.67134 11.1552 3.7933 11.8405 4.0484 12.4807C4.30349 13.1208 4.68637 13.7022 5.17364 14.1894L15.405 24.4207L14.7529 23.7686L24.0923 14.4291C26.1011 12.4205 26.2934 9.18473 24.5209 7.21638C24.0606 6.70355 23.5007 6.28988 22.8754 6.00063C22.25 5.71137 21.5722 5.55258 20.8834 5.53397C20.1946 5.51535 19.5092 5.63729 18.8691 5.89235C18.229 6.14741 17.6476 6.53023 17.1603 7.01745L15.405 8.77281C15.232 8.94574 14.9975 9.0429 14.7529 9.0429C14.5083 9.0429 14.2738 8.94574 14.1008 8.77281L12.5852 7.25718C11.5395 6.21083 10.1222 5.62069 8.64287 5.61558Z" fill="#D2D2D2"/>
</svg>
