<svg width="9" height="6" viewBox="0 0 9 6" fill="none" xmlns="http://www.w3.org/2000/svg">
<path d="M7.07072 0.175034L2.919 4.13816L1.05877 2.36253C0.999491 2.30539 0.929505 2.26052 0.852834 2.23051C0.776162 2.20049 0.694315 2.18592 0.611995 2.18764C0.529676 2.18935 0.448506 2.20731 0.37315 2.24049C0.297793 2.27367 0.229735 2.32141 0.172885 2.38097C0.116036 2.44053 0.0715155 2.51074 0.041882 2.58756C0.0122485 2.66438 -0.00191448 2.7463 0.000207623 2.82861C0.00232972 2.91092 0.0206949 2.992 0.0542476 3.06719C0.0878002 3.14238 0.135879 3.2102 0.195722 3.26675L2.48744 5.45425C2.6037 5.56522 2.75825 5.62713 2.91896 5.62713C3.07968 5.62713 3.23423 5.56522 3.35049 5.45425L7.93377 1.07925C7.99361 1.0227 8.04169 0.95488 8.07524 0.879689C8.1088 0.804498 8.12716 0.723418 8.12928 0.641108C8.13141 0.558798 8.11724 0.47688 8.08761 0.40006C8.05798 0.323241 8.01346 0.253033 7.95661 0.193471C7.89976 0.13391 7.8317 0.0861685 7.75634 0.0529897C7.68099 0.019811 7.59982 0.00184859 7.5175 0.000135326C7.43518 -0.00157794 7.35333 0.0129913 7.27666 0.043006C7.19999 0.0730207 7.13 0.117889 7.07072 0.175034V0.175034Z" fill="#0391DD"/>
</svg>
