<svg width="18" height="18" viewBox="0 0 18 18" fill="none" xmlns="http://www.w3.org/2000/svg">
<path d="M11.25 15.1875C11.1761 15.1876 11.103 15.1731 11.0347 15.1448C10.9664 15.1166 10.9044 15.0751 10.8523 15.0228L5.22726 9.39776C5.17503 9.34552 5.13359 9.28351 5.10532 9.21527C5.07705 9.14702 5.0625 9.07387 5.0625 9C5.0625 8.92613 5.07705 8.85298 5.10532 8.78473C5.13359 8.71649 5.17503 8.65447 5.22726 8.60224L10.8523 2.97724C10.9578 2.87175 11.1008 2.81248 11.25 2.81248C11.3992 2.81248 11.5423 2.87175 11.6478 2.97724C11.7533 3.08273 11.8125 3.22581 11.8125 3.375C11.8125 3.52419 11.7533 3.66727 11.6478 3.77276L6.42054 9L11.6478 14.2272C11.7264 14.3059 11.78 14.4061 11.8017 14.5153C11.8234 14.6244 11.8123 14.7375 11.7697 14.8403C11.7271 14.943 11.655 15.0309 11.5625 15.0927C11.47 15.1545 11.3613 15.1875 11.25 15.1875Z" fill="#2B2D3A"/>
</svg>
