<svg width="24" height="24" viewBox="0 0 24 24" fill="none" xmlns="http://www.w3.org/2000/svg">
<path d="M20.25 19.5L10.8107 19.5L18.5299 11.7807L18.5303 11.7803L18.5308 11.7799L20.9999 9.31066C21.1392 9.17139 21.2497 9.00604 21.3251 8.82406C21.4005 8.64208 21.4393 8.44703 21.4393 8.25004C21.4393 8.05306 21.4005 7.85801 21.3251 7.67602C21.2498 7.49403 21.1393 7.32867 21 7.18938L16.8106 2.99988C16.529 2.71911 16.1476 2.56144 15.7499 2.56146C15.3523 2.56148 14.9709 2.71918 14.6893 2.99998L3.43931 14.25C3.29362 14.3956 3.17958 14.5698 3.10434 14.7616C3.09666 14.7803 3.09019 14.7994 3.084 14.8185C3.02869 14.9767 3.0003 15.1431 3 15.3107L3 19.5C3.00045 19.8977 3.15863 20.2789 3.43983 20.5601C3.72104 20.8414 4.10231 20.9995 4.5 21L20.25 21C20.4489 21 20.6397 20.921 20.7803 20.7803C20.921 20.6397 21 20.4489 21 20.25C21 20.0511 20.921 19.8603 20.7803 19.7196C20.6397 19.579 20.4489 19.5 20.25 19.5V19.5ZM4.81069 15L12.75 7.06067L16.9393 11.25L9 19.1894L4.81069 15ZM15.75 4.06057L19.9393 8.24998L18 10.1893L13.8107 5.99998L15.75 4.06057ZM4.5 16.8107L7.18931 19.5H4.5L4.5 16.8107Z" fill="#2B2D3A"/>
</svg>
