<svg width="32" height="32" viewBox="0 0 32 32" fill="none" xmlns="http://www.w3.org/2000/svg">
<path d="M16 27.7772C15.7374 27.7776 15.4773 27.7262 15.2347 27.6259C14.992 27.5256 14.7715 27.3783 14.5859 27.1925L4.19666 16.8033C3.47631 16.0829 2.91027 15.2233 2.53307 14.277C2.15586 13.3306 1.9754 12.3174 2.00269 11.299C2.02998 10.2806 2.26445 9.27843 2.69179 8.35364C3.11913 7.42886 3.73039 6.60082 4.48828 5.92004C5.21665 5.27018 6.06866 4.77396 6.9933 4.46108C7.91794 4.14821 8.89621 4.02511 9.86953 4.09917C11.8296 4.22847 13.6757 5.06646 15.0633 6.45679L16 7.39342L17.1967 6.19679C17.917 5.47642 18.7766 4.91035 19.723 4.53312C20.6694 4.15589 21.6827 3.97541 22.7011 4.00269C23.7195 4.02997 24.7217 4.26443 25.6465 4.69177C26.5713 5.11912 27.3994 5.73039 28.0802 6.48829C28.7301 7.2166 29.2264 8.0686 29.5392 8.99326C29.8521 9.91792 29.9751 10.8962 29.9009 11.8695C29.7717 13.8296 28.9337 15.6758 27.5434 17.0634L17.4143 27.1924V27.1925C17.2287 27.3783 17.0082 27.5256 16.7655 27.6259C16.5228 27.7262 16.2626 27.7776 16 27.7772ZM9.37353 6.09054C8.06903 6.07436 6.80501 6.54326 5.82666 7.40629C5.27044 7.9054 4.82176 8.51263 4.50803 9.19091C4.1943 9.8692 4.02208 10.6043 4.00191 11.3514C3.98173 12.0984 4.114 12.8417 4.39067 13.536C4.66733 14.2302 5.08256 14.8608 5.61103 15.3892L16.7073 26.4854L16 25.7782L26.129 15.6492C28.3077 13.4707 28.5162 9.96142 26.5938 7.82667C26.0947 7.27049 25.4874 6.82185 24.8092 6.50814C24.1309 6.19443 23.3958 6.02222 22.6488 6.00203C21.9018 5.98184 21.1585 6.11409 20.4643 6.39071C19.77 6.66733 19.1395 7.08251 18.611 7.61092L16.7073 9.51467C16.5197 9.70222 16.2653 9.80759 16.0001 9.80759C15.7349 9.80759 15.4805 9.70222 15.2929 9.51467L13.6492 7.87092C12.515 6.73611 10.9779 6.09608 9.37353 6.09054Z" fill="#2B2D3A"/>
</svg>
