<svg width="44" height="44" viewBox="0 0 44 44" fill="none" xmlns="http://www.w3.org/2000/svg">
<rect width="44" height="44" rx="22" fill="#2B2D3A"/>
<path d="M32.6476 17.5178C33.03 17.2549 33.5504 17.5286 33.5504 17.9927V28.173C33.5505 29.0846 33.2128 29.9618 32.6065 30.625C32.0001 31.2883 31.171 31.6875 30.2887 31.741L30.0854 31.747H13.9154C13.0316 31.747 12.1812 31.3987 11.5381 30.7733C10.8951 30.1479 10.5081 29.2927 10.4562 28.3826L10.4504 28.173V17.9927C10.4504 17.5286 10.9709 17.2549 11.3533 17.5178L21.3594 24.3988L21.4934 24.4774C21.6513 24.557 21.8247 24.5984 22.0004 24.5984C22.1762 24.5984 22.3496 24.557 22.5075 24.4774L22.6415 24.3988L32.6476 17.5178Z" fill="white"/>
<path d="M30.0591 12.4971C31.1154 12.4971 32.0612 12.9904 32.6945 13.769C32.8851 14.0033 32.8085 14.3416 32.5604 14.5139L22.3292 21.6188C22.1316 21.7561 21.8694 21.7561 21.6718 21.6188L11.4405 14.5139C11.1925 14.3416 11.1158 14.0033 11.3063 13.7691C11.548 13.472 11.8352 13.2169 12.1572 13.0145C12.6286 12.7183 13.1612 12.5438 13.7105 12.5055L13.9419 12.4971H30.0591Z" fill="white"/>
</svg>
