<svg width="44" height="44" viewBox="0 0 44 44" fill="none" xmlns="http://www.w3.org/2000/svg">
<rect width="44" height="44" rx="22" fill="#2B2D3A"/>
<path d="M9.54209 22.2844C12.0183 20.8728 14.7825 19.6946 17.3652 18.5104C21.8084 16.5708 26.2693 14.6647 30.7751 12.8903C31.6518 12.5879 33.227 12.2922 33.3815 13.6368C33.2969 15.5401 32.949 17.4322 32.7103 19.3244C32.1046 23.4853 31.4045 27.632 30.7218 31.7793C30.4866 33.1607 28.8145 33.8759 27.7446 32.9918C25.1734 31.1943 22.5824 29.4144 20.044 27.5752C19.2125 26.7008 19.9836 25.445 20.7262 24.8206C22.8439 22.6607 25.0898 20.8255 27.0969 18.554C27.6383 17.2009 26.0386 18.3412 25.511 18.6906C22.6118 20.7583 19.7836 22.9522 16.7269 24.7695C15.1656 25.659 13.3458 24.8988 11.7852 24.4024C10.3859 23.8028 8.33543 23.1988 9.54195 22.2845L9.54209 22.2844Z" fill="white"/>
</svg>
