<svg width="44" height="44" viewBox="0 0 44 44" fill="none" xmlns="http://www.w3.org/2000/svg">
<rect width="44" height="44" rx="22" fill="#2B2D3A"/>
<path d="M32.6476 17.5177C33.03 17.2548 33.5504 17.5285 33.5504 17.9926V28.1728C33.5505 29.0845 33.2128 29.9617 32.6065 30.6249C32.0001 31.2882 31.171 31.6874 30.2887 31.7409L30.0854 31.7469H13.9154C13.0316 31.7469 12.1812 31.3986 11.5381 30.7732C10.8951 30.1478 10.5081 29.2926 10.4562 28.3825L10.4504 28.1728V17.9926C10.4504 17.5285 10.9709 17.2548 11.3533 17.5177L21.3594 24.3987L21.4934 24.4773C21.6513 24.5569 21.8247 24.5983 22.0004 24.5983C22.1762 24.5983 22.3496 24.5569 22.5075 24.4773L22.6415 24.3987L32.6476 17.5177Z" fill="white"/>
<path d="M30.0591 12.4972C31.1154 12.4972 32.0612 12.9905 32.6945 13.7691C32.8851 14.0034 32.8085 14.3418 32.5604 14.514L22.3292 21.6189C22.1316 21.7562 21.8694 21.7562 21.6718 21.6189L11.4405 14.514C11.1925 14.3417 11.1158 14.0034 11.3063 13.7692C11.548 13.4721 11.8352 13.217 12.1572 13.0146C12.6286 12.7184 13.1612 12.5439 13.7105 12.5056L13.9419 12.4972H30.0591Z" fill="white"/>
</svg>
