<svg width="24" height="24" viewBox="0 0 24 24" fill="none" xmlns="http://www.w3.org/2000/svg">
<path d="M12.5304 19.864L20.1271 12.2672C21.9937 10.4007 22.2691 7.32978 20.5027 5.36815C20.0602 4.87536 19.522 4.47789 18.9208 4.19999C18.3197 3.92208 17.6682 3.76957 17.0062 3.75176C16.3441 3.73395 15.6854 3.85122 15.0702 4.0964C14.455 4.34159 13.8962 4.70955 13.4278 5.17784L12 6.60565L10.7672 5.37284C8.90065 3.50628 5.82978 3.23103 3.86815 4.99746C3.37536 5.43993 2.97789 5.97815 2.69999 6.5793C2.42208 7.18045 2.26957 7.83192 2.25176 8.49396C2.23395 9.156 2.35122 9.81473 2.5964 10.43C2.84159 11.0452 3.20955 11.604 3.67784 12.0723L11.4697 19.8641C11.5393 19.9337 11.622 19.989 11.713 20.0266C11.804 20.0643 11.9015 20.0837 12 20.0837C12.0985 20.0837 12.1961 20.0643 12.287 20.0266C12.378 19.989 12.4607 19.9337 12.5304 19.8641V19.864Z" fill="#E15656"/>
<path d="M12 20.8329C11.8031 20.8332 11.608 20.7947 11.426 20.7194C11.244 20.6442 11.0786 20.5337 10.9394 20.3944L3.14749 12.6025C2.60723 12.0622 2.1827 11.4175 1.8998 10.7077C1.6169 9.99797 1.48155 9.23802 1.50202 8.47423C1.52248 7.71044 1.69833 6.95882 2.01884 6.26523C2.33935 5.57164 2.79779 4.95061 3.36621 4.44003C3.91247 3.9526 4.55147 3.58041 5.24496 3.34576C5.93844 3.1111 6.67215 3.0188 7.40215 3.07438C8.87219 3.17135 10.2567 3.79985 11.2975 4.84259L12 5.54506L12.8975 4.64759C13.4378 4.10731 14.0825 3.68276 14.7923 3.39984C15.502 3.11692 16.262 2.98156 17.0258 3.00202C17.7896 3.02247 18.5413 3.19832 19.2349 3.51883C19.9285 3.83934 20.5495 4.29779 21.0601 4.86622C21.5476 5.41245 21.9198 6.05145 22.1544 6.74494C22.3891 7.43844 22.4813 8.17216 22.4257 8.90216C22.3288 10.3722 21.7003 11.7568 20.6576 12.7976L13.0607 20.3943V20.3944C12.9215 20.5337 12.7561 20.6442 12.5741 20.7194C12.3921 20.7947 12.197 20.8332 12 20.8329V20.8329ZM7.03015 4.56791C6.05177 4.55577 5.10376 4.90745 4.36999 5.55472C3.95283 5.92905 3.61632 6.38447 3.38102 6.89319C3.14572 7.4019 3.01656 7.95323 3.00143 8.51352C2.98629 9.07381 3.0855 9.6313 3.293 10.152C3.50049 10.6726 3.81192 11.1456 4.20827 11.5419L12.5305 19.8641L12 19.3336L19.5968 11.7369C21.2307 10.103 21.3871 7.47106 19.9453 5.87C19.571 5.45287 19.1156 5.11639 18.6069 4.8811C18.0982 4.64582 17.5469 4.51667 16.9866 4.50152C16.4263 4.48638 15.8689 4.58557 15.3482 4.79303C14.8275 5.00049 14.3546 5.31188 13.9583 5.70819L12.5305 7.136C12.3898 7.27667 12.199 7.35569 12.0001 7.35569C11.8011 7.35569 11.6104 7.27667 11.4697 7.136L10.2369 5.90319C9.38624 5.05209 8.23345 4.57206 7.03015 4.56791V4.56791Z" fill="#DF4848"/>
</svg>
