<svg width="32" height="32" viewBox="0 0 32 32" fill="none" xmlns="http://www.w3.org/2000/svg">
<path d="M28.9921 26.4982C27.1262 23.2845 24.1379 20.8741 20.6021 19.7305C22.296 18.7226 23.6122 17.1865 24.3485 15.3581C25.0848 13.5297 25.2005 11.5102 24.6779 9.60964C24.1552 7.70911 23.0231 6.03272 21.4554 4.83795C19.8877 3.64317 17.9711 2.99609 16 2.99609C14.029 2.99609 12.1124 3.64317 10.5447 4.83795C8.97697 6.03272 7.84485 7.70911 7.3222 9.60964C6.79954 11.5102 6.91526 13.5297 7.65157 15.3581C8.38788 17.1865 9.70407 18.7226 11.398 19.7305C7.86218 20.874 4.87397 23.2844 3.00797 26.498C2.9422 26.6117 2.89947 26.7372 2.88221 26.8674C2.86495 26.9976 2.8735 27.1299 2.90738 27.2568C2.94125 27.3837 2.99979 27.5026 3.07964 27.6069C3.1595 27.7112 3.25911 27.7987 3.37278 27.8644C3.48646 27.9302 3.61197 27.9729 3.74217 27.9902C3.87236 28.0075 4.00467 27.9989 4.13156 27.965C4.25844 27.9312 4.37741 27.8726 4.48168 27.7928C4.58594 27.7129 4.67345 27.6133 4.73922 27.4996C5.88083 25.5234 7.52244 23.8824 9.4991 22.7415C11.4758 21.6005 13.7179 20.9999 16.0002 21C18.2825 21 20.5246 21.6006 22.5012 22.7416C24.4778 23.8825 26.1194 25.5236 27.261 27.4999C27.3267 27.6135 27.4142 27.7131 27.5185 27.793C27.6228 27.8728 27.7417 27.9314 27.8686 27.9652C27.9955 27.9991 28.1278 28.0077 28.258 27.9904C28.3882 27.9731 28.5137 27.9304 28.6273 27.8646C28.741 27.7989 28.8406 27.7113 28.9205 27.6071C29.0003 27.5028 29.0588 27.3839 29.0927 27.257C29.1266 27.1301 29.1351 26.9978 29.1179 26.8676C29.1006 26.7374 29.0579 26.6119 28.9921 26.4982ZM8.99997 12C8.99997 10.6155 9.41051 9.26215 10.1797 8.11101C10.9489 6.95986 12.0421 6.06266 13.3212 5.53284C14.6003 5.00303 16.0077 4.86441 17.3656 5.1345C18.7235 5.4046 19.9707 6.07128 20.9497 7.05025C21.9287 8.02922 22.5954 9.2765 22.8655 10.6344C23.1356 11.9922 22.9969 13.3997 22.4671 14.6788C21.9373 15.9579 21.0401 17.0511 19.889 17.8203C18.7378 18.5895 17.3844 19 16 19C14.1441 18.9979 12.3649 18.2597 11.0526 16.9474C9.74027 15.6351 9.00209 13.8559 8.99997 12Z" fill="#2B2D3A"/>
</svg>
