<svg width="16" height="16" viewBox="0 0 16 16" fill="none" xmlns="http://www.w3.org/2000/svg">
<path d="M14.3533 13.6464L11.6519 10.945C12.6059 9.80889 13.0845 8.34836 12.9879 6.86798C12.8912 5.38761 12.2269 4.00168 11.1333 2.99921C10.0397 1.99675 8.60136 1.45513 7.11818 1.48732C5.63501 1.5195 4.22151 2.12301 3.17245 3.17197C2.1234 4.22093 1.51977 5.63438 1.48745 7.11755C1.45513 8.60073 1.99662 10.0391 2.99899 11.1328C4.00136 12.2264 5.38723 12.8909 6.8676 12.9877C8.34796 13.0845 9.80854 12.606 10.9447 11.6521L13.6462 14.3536C13.74 14.4473 13.8671 14.5 13.9997 14.5C14.1324 14.5 14.2595 14.4473 14.3533 14.3536C14.4471 14.2598 14.4998 14.1326 14.4998 14C14.4998 13.8674 14.4471 13.7402 14.3533 13.6464ZM2.50012 7.24995C2.50012 6.31049 2.7787 5.39212 3.30064 4.61099C3.82257 3.82985 4.56442 3.22104 5.43237 2.86152C6.30032 2.502 7.25539 2.40794 8.1768 2.59122C9.09821 2.7745 9.94458 3.22689 10.6089 3.89119C11.2732 4.55549 11.7256 5.40186 11.9088 6.32327C12.0921 7.24468 11.9981 8.19974 11.6385 9.06769C11.279 9.93564 10.6702 10.6775 9.88908 11.1994C9.10794 11.7214 8.18958 11.9999 7.25012 11.9999C5.99078 11.9985 4.78342 11.4976 3.89293 10.6071C3.00244 9.71664 2.50154 8.50929 2.50012 7.24995Z" fill="#2B2D3A"/>
</svg>
