<svg width="18" height="18" viewBox="0 0 18 18" fill="none" xmlns="http://www.w3.org/2000/svg">
<path d="M6.75 15.1875C6.75 15.41 6.68402 15.6275 6.5604 15.8125C6.43679 15.9975 6.26109 16.1417 6.05552 16.2269C5.84995 16.312 5.62375 16.3343 5.40552 16.2909C5.18729 16.2475 4.98684 16.1403 4.82951 15.983C4.67217 15.8257 4.56502 15.6252 4.52162 15.407C4.47821 15.1887 4.50049 14.9625 4.58564 14.757C4.67078 14.5514 4.81498 14.3757 4.99998 14.2521C5.18499 14.1285 5.4025 14.0625 5.625 14.0625C5.92337 14.0625 6.20952 14.181 6.42049 14.392C6.63147 14.603 6.75 14.8891 6.75 15.1875ZM12.9375 14.0625C12.715 14.0625 12.4975 14.1285 12.3125 14.2521C12.1275 14.3757 11.9833 14.5514 11.8981 14.757C11.813 14.9625 11.7907 15.1887 11.8341 15.407C11.8775 15.6252 11.9847 15.8257 12.142 15.983C12.2993 16.1403 12.4998 16.2475 12.718 16.2909C12.9363 16.3343 13.1625 16.312 13.368 16.2269C13.5736 16.1417 13.7493 15.9975 13.8729 15.8125C13.9965 15.6275 14.0625 15.41 14.0625 15.1875C14.0625 14.8891 13.944 14.603 13.733 14.392C13.522 14.181 13.2359 14.0625 12.9375 14.0625ZM16.1301 5.21705L14.274 11.7136C14.1722 12.0656 13.9591 12.3751 13.6666 12.5958C13.3741 12.8164 13.0179 12.9363 12.6515 12.9375H5.91103C5.54461 12.9363 5.18844 12.8164 4.89591 12.5958C4.60338 12.3751 4.39026 12.0656 4.2885 11.7136L2.43541 5.22766C2.43331 5.22081 2.43134 5.21392 2.42951 5.20699L1.74537 2.8125H0.5625C0.413316 2.8125 0.270242 2.75324 0.164752 2.64775C0.0592632 2.54226 0 2.39918 0 2.25C0 2.10082 0.0592632 1.95774 0.164752 1.85225C0.270242 1.74676 0.413316 1.6875 0.5625 1.6875H1.7453C1.98957 1.68829 2.22702 1.76822 2.42204 1.91532C2.61707 2.06241 2.75917 2.26875 2.82705 2.50341L3.3975 4.5H15.5893C15.6763 4.5 15.7622 4.52021 15.8401 4.55904C15.9181 4.59788 15.9859 4.65427 16.0383 4.72378C16.0908 4.79328 16.1263 4.87402 16.1423 4.95961C16.1582 5.04521 16.154 5.13333 16.1301 5.21705V5.21705ZM14.8435 5.625H3.71897L5.37026 11.4045C5.40418 11.5219 5.47521 11.625 5.5727 11.6986C5.6702 11.7721 5.78891 11.8121 5.91103 11.8125H12.6515C12.7736 11.8121 12.8923 11.7721 12.9898 11.6986C13.0873 11.625 13.1583 11.5219 13.1922 11.4045L14.8435 5.625Z" fill="#8B91B4"/>
</svg>
