<svg width="18" height="18" viewBox="0 0 18 18" fill="none" xmlns="http://www.w3.org/2000/svg">
<path d="M16.3079 14.9053C15.2583 13.0975 13.5774 11.7417 11.5885 11.0984C12.5413 10.5315 13.2817 9.6674 13.6959 8.63893C14.1101 7.61046 14.1751 6.47447 13.8811 5.40542C13.5872 4.33638 12.9503 3.39341 12.0685 2.72135C11.1867 2.04929 10.1086 1.6853 8.99987 1.6853C7.89113 1.6853 6.81306 2.04929 5.93123 2.72135C5.0494 3.39341 4.41258 4.33638 4.11858 5.40542C3.82459 6.47447 3.88968 7.61046 4.30385 8.63893C4.71803 9.6674 5.45838 10.5315 6.41121 11.0984C4.42232 11.7416 2.74145 13.0974 1.69183 14.9051C1.65484 14.9691 1.6308 15.0397 1.62109 15.1129C1.61138 15.1861 1.61619 15.2606 1.63525 15.3319C1.6543 15.4033 1.68723 15.4702 1.73215 15.5289C1.77707 15.5875 1.8331 15.6368 1.89704 15.6737C1.96098 15.7107 2.03158 15.7348 2.10482 15.7445C2.17805 15.7542 2.25247 15.7494 2.32385 15.7303C2.39522 15.7113 2.46214 15.6783 2.52079 15.6334C2.57944 15.5885 2.62866 15.5325 2.66566 15.4685C3.30782 14.3569 4.23122 13.4338 5.34309 12.7921C6.45497 12.1503 7.71615 11.8125 8.99994 11.8125C10.2837 11.8125 11.5449 12.1504 12.6568 12.7921C13.7686 13.4339 14.692 14.357 15.3341 15.4687C15.3711 15.5326 15.4204 15.5886 15.479 15.6336C15.5377 15.6785 15.6046 15.7114 15.6759 15.7304C15.7473 15.7495 15.8217 15.7543 15.895 15.7446C15.9682 15.7349 16.0388 15.7108 16.1027 15.6739C16.1667 15.6369 16.2227 15.5876 16.2676 15.529C16.3125 15.4703 16.3454 15.4034 16.3645 15.332C16.3835 15.2607 16.3884 15.1863 16.3786 15.113C16.3689 15.0398 16.3449 14.9692 16.3079 14.9053ZM5.06233 6.75C5.06233 5.97124 5.29326 5.20996 5.72592 4.56244C6.15858 3.91492 6.77353 3.41024 7.49301 3.11222C8.2125 2.8142 9.0042 2.73623 9.768 2.88816C10.5318 3.04009 11.2334 3.4151 11.7841 3.96577C12.3347 4.51644 12.7097 5.21803 12.8617 5.98183C13.0136 6.74563 12.9356 7.53733 12.6376 8.25682C12.3396 8.9763 11.8349 9.59125 11.1874 10.0239C10.5399 10.4566 9.77859 10.6875 8.99983 10.6875C7.95591 10.6863 6.95508 10.2711 6.21691 9.53292C5.47875 8.79475 5.06352 7.79392 5.06233 6.75V6.75Z" fill="#0391DD"/>
</svg>
