<svg width="18" height="18" viewBox="0 0 18 18" fill="none" xmlns="http://www.w3.org/2000/svg">
<path d="M9.00002 15.6247C8.85231 15.6249 8.706 15.596 8.56949 15.5396C8.43298 15.4831 8.30897 15.4003 8.20457 15.2958L2.36062 9.45185C1.95543 9.04663 1.63703 8.56312 1.42485 8.0308C1.21267 7.49848 1.11116 6.92851 1.12651 6.35567C1.14186 5.78283 1.27375 5.21912 1.51413 4.69892C1.75451 4.17873 2.09835 3.71296 2.52466 3.33002C2.93437 2.96447 3.41362 2.68535 3.93373 2.50936C4.45384 2.33337 5.00412 2.26413 5.55161 2.30578C6.65414 2.37852 7.69255 2.84989 8.4731 3.63195L9.00002 4.1588L9.67312 3.4857C10.0783 3.08048 10.5619 2.76207 11.0942 2.54988C11.6265 2.33769 12.1965 2.23617 12.7694 2.25151C13.3422 2.26686 13.9059 2.39874 14.4261 2.63912C14.9464 2.8795 15.4121 3.22334 15.7951 3.64966C16.1607 4.05934 16.4398 4.53859 16.6158 5.05871C16.7918 5.57883 16.861 6.12912 16.8193 6.67662C16.7466 7.77917 16.2752 8.81761 15.4932 9.59817L9.79553 15.2957V15.2958C9.69112 15.4003 9.56709 15.4831 9.43058 15.5396C9.29406 15.596 9.14774 15.6249 9.00002 15.6247V15.6247ZM5.27261 3.42593C4.53883 3.41683 3.82782 3.68059 3.2775 4.16604C2.96462 4.44679 2.71224 4.78836 2.53577 5.16989C2.35929 5.55142 2.26242 5.96492 2.25107 6.38514C2.23972 6.80535 2.31413 7.22348 2.46975 7.61398C2.62537 8.00448 2.85894 8.35918 3.15621 8.65641L9.39785 14.898L9.00002 14.5002L14.6976 8.80266C15.9231 7.57725 16.0403 5.6033 14.959 4.4025C14.6782 4.08965 14.3367 3.83729 13.9552 3.66083C13.5736 3.48436 13.1602 3.3875 12.74 3.37614C12.3198 3.36479 11.9016 3.43918 11.5111 3.59477C11.1206 3.75037 10.7659 3.98391 10.4687 4.28114L9.39785 5.352C9.29235 5.4575 9.14925 5.51677 9.00005 5.51677C8.85085 5.51677 8.70776 5.4575 8.60226 5.352L7.67765 4.42739C7.03968 3.78906 6.17509 3.42905 5.27261 3.42593V3.42593Z" fill="#0391DD"/>
</svg>
