<svg width="18" height="18" viewBox="0 0 18 18" fill="none" xmlns="http://www.w3.org/2000/svg">
<path d="M14.625 15.7499H14.6249L11.2494 15.7494C10.9512 15.7491 10.6653 15.6304 10.4544 15.4195C10.2436 15.2086 10.1249 14.9227 10.1246 14.6244V11.2494H7.87458V14.6244C7.87422 14.9226 7.7556 15.2085 7.54473 15.4194C7.33386 15.6303 7.04795 15.749 6.74972 15.7494L3.37514 15.7499C3.22739 15.75 3.08109 15.7209 2.94458 15.6643C2.80807 15.6078 2.68404 15.525 2.57955 15.4205C2.47507 15.316 2.39219 15.192 2.33565 15.0555C2.2791 14.919 2.25 14.7727 2.25 14.6249V8.12385C2.25012 7.96711 2.28293 7.81212 2.34634 7.66877C2.40974 7.52543 2.50234 7.39688 2.61823 7.29135L8.24273 2.17731C8.44934 1.98806 8.71934 1.88308 8.99952 1.88306C9.27969 1.88303 9.54971 1.98796 9.75635 2.17717L15.3818 7.29142C15.4977 7.39697 15.5903 7.52551 15.6537 7.66883C15.717 7.81216 15.7499 7.96713 15.75 8.12385V14.6249C15.75 14.9233 15.6315 15.2095 15.4205 15.4204C15.2095 15.6314 14.9234 15.7499 14.625 15.7499V15.7499ZM7.87458 10.1244H10.1246C10.4228 10.1247 10.7088 10.2433 10.9197 10.4543C11.1306 10.6652 11.2492 10.9511 11.2496 11.2494V14.6251L14.625 14.6249V8.12385L8.99958 3.00967L3.375 8.12378V14.6249L6.74958 14.6244V11.2494C6.74991 10.9511 6.86855 10.6652 7.07945 10.4543C7.29036 10.2433 7.57631 10.1247 7.87458 10.1244V10.1244Z" fill="#0391DD"/>
</svg>
