<svg width="78" height="32" viewBox="0 0 78 32" fill="none" xmlns="http://www.w3.org/2000/svg">
<path fill-rule="evenodd" clip-rule="evenodd" d="M50.0256 25.2547C48.6387 25.6417 46.8325 25.803 45.2843 25.803C41.2527 25.803 38.6079 23.7065 38.6079 19.8683C38.6079 16.2236 41.0914 13.8691 44.7037 13.8691C45.5101 13.8691 46.3809 13.9659 46.897 14.2239V8.93427H50.0256V25.2547ZM46.897 16.9332C46.4132 16.7074 45.7359 16.5784 44.9618 16.5784C43.0589 16.5784 41.801 17.7396 41.801 19.7716C41.801 21.9325 43.1557 23.1582 45.3811 23.1582C45.7681 23.1582 46.3809 23.1582 46.897 23.0292V16.9332ZM75.7321 25.2547C74.3451 25.6417 72.5389 25.803 70.9585 25.803C66.959 25.803 64.2819 23.7065 64.2819 19.8683C64.2819 16.2236 66.7655 13.8691 70.3779 13.8691C71.2165 13.8691 72.0551 13.9659 72.5712 14.2239V8.93427H75.7321V25.2547ZM72.5712 16.9332C72.0874 16.7074 71.4423 16.5784 70.6682 16.5784C68.7329 16.5784 67.475 17.7396 67.475 19.7716C67.475 21.9325 68.862 23.1582 71.0875 23.1582C71.4745 23.1582 72.0551 23.1582 72.5712 23.0292V16.9332ZM54.9605 16.9332C55.4766 16.7074 56.2184 16.6429 56.8312 16.6429C58.7665 16.6429 60.0889 17.7396 60.0889 19.707C60.0889 22.0293 58.6052 23.0937 56.6377 23.1259V25.803H56.799C60.863 25.803 63.282 23.5775 63.282 19.6103C63.282 15.9978 60.7017 13.8691 56.8957 13.8691C54.9605 13.8691 53.0575 14.3207 51.7996 14.8367V30.1572H54.9605V16.9332Z" fill="#3F3F42"/>
<path fill-rule="evenodd" clip-rule="evenodd" d="M27.061 6.41852L27.5771 6.99909L27.8673 6.83782L27.061 6.41852Z" fill="#DC0032"/>
<path fill-rule="evenodd" clip-rule="evenodd" d="M26.2871 5.99921L27.2869 7.16035L27.6417 6.96683L27.2547 6.51527L26.2871 5.99921Z" fill="#DC0032"/>
<path fill-rule="evenodd" clip-rule="evenodd" d="M25.4805 5.5799L26.9964 7.32161L27.3512 7.12809L26.4803 6.09596L25.4805 5.5799Z" fill="#DC0032"/>
<path fill-rule="evenodd" clip-rule="evenodd" d="M24.7065 5.16058L26.7063 7.48287L27.0611 7.28935L25.6742 5.67665L24.7065 5.16058ZM28.5447 9.25679L28.3189 9.38581L28.5447 9.64384V9.25679Z" fill="#DC0032"/>
<path fill-rule="evenodd" clip-rule="evenodd" d="M23.9326 4.74127L26.4162 7.64413L26.771 7.45061L24.9002 5.25734L23.9326 4.74127ZM28.4159 9.32129L28.0611 9.54707L28.5449 10.1276V9.51482L28.4159 9.32129H28.4159Z" fill="#DC0032"/>
<path fill-rule="evenodd" clip-rule="evenodd" d="M23.126 4.32196L26.1256 7.80539L26.5126 7.61187L24.1258 4.83802L23.126 4.32196ZM28.1253 9.48255L27.7705 9.70833L28.5446 10.6114V9.99862L28.1253 9.48255Z" fill="#DC0032"/>
<path fill-rule="evenodd" clip-rule="evenodd" d="M22.3521 3.90271L25.8677 7.9667L26.2225 7.77317L23.3197 4.41876L22.3521 3.90271ZM27.8352 9.67611L27.4804 9.86964L28.5448 11.1275V10.5147L27.8352 9.67611Z" fill="#DC0032"/>
<path fill-rule="evenodd" clip-rule="evenodd" d="M21.5776 3.4834L25.5771 8.12795L25.9319 7.93443L22.5453 3.99946L21.5776 3.4834ZM27.5446 9.83737L27.1898 10.0309L28.5444 11.6113V10.9985L27.5446 9.83737Z" fill="#DC0032"/>
<path fill-rule="evenodd" clip-rule="evenodd" d="M20.7715 3.06409L25.287 8.28921L25.6418 8.09568L21.7713 3.58015L20.7715 3.06409ZM27.2545 9.99863L26.8997 10.1921L28.5446 12.0951V11.4823L27.2545 9.99863Z" fill="#DC0032"/>
<path fill-rule="evenodd" clip-rule="evenodd" d="M19.9976 2.64478L24.9969 8.48272L25.3517 8.25694L20.9652 3.16084L19.9976 2.64478ZM26.9644 10.1599L26.6096 10.3534L28.5448 12.6112V11.9984L26.9644 10.1599Z" fill="#DC0032"/>
<path fill-rule="evenodd" clip-rule="evenodd" d="M19.1909 2.22552L24.7063 8.64404L25.0611 8.41826L20.1908 2.74158L19.1909 2.22552ZM26.706 10.3212L26.319 10.5147L28.5445 13.095V12.4822L26.706 10.3212Z" fill="#DC0032"/>
<path fill-rule="evenodd" clip-rule="evenodd" d="M18.417 1.80621L24.4162 8.80525L24.8032 8.57952L19.4169 2.32227L18.417 1.80621ZM26.4159 10.4825L26.0611 10.676L28.5447 13.6111V12.966L26.4159 10.4825Z" fill="#DC0032"/>
<path fill-rule="evenodd" clip-rule="evenodd" d="M17.6431 1.3869L24.1583 8.96651L24.5131 8.74073L18.6107 1.90296L17.6431 1.3869ZM26.1258 10.6437L25.771 10.8372L28.5448 14.0949V13.4821L26.1258 10.6437Z" fill="#DC0032"/>
<path fill-rule="evenodd" clip-rule="evenodd" d="M16.8364 0.935364L23.8677 9.12779L24.2225 8.90202L17.8363 1.48368L16.8364 0.935364ZM25.8352 10.805L25.4804 10.9985L28.5445 14.5787V13.9659L25.8352 10.805Z" fill="#DC0032"/>
<path fill-rule="evenodd" clip-rule="evenodd" d="M16.0625 0.516052L23.5776 9.28905L23.9324 9.09553L17.0624 1.06437L16.0625 0.516052ZM25.5451 10.9663L25.1903 11.1598L28.5447 15.0947V14.4497L25.5451 10.9663Z" fill="#DC0032"/>
<path fill-rule="evenodd" clip-rule="evenodd" d="M15.2886 0.129028L23.2875 9.45034L23.6423 9.25682L16.2562 0.645088L15.2886 0.129028ZM25.255 11.1275L24.9002 11.3211L28.5448 15.5786V14.9657L25.255 11.1275Z" fill="#DC0032"/>
<path fill-rule="evenodd" clip-rule="evenodd" d="M14.7725 0L22.9971 9.6116L23.3519 9.41807L15.482 0.225776L15.2885 0.129015C15.1273 0.0322537 14.966 0 14.7725 0ZM24.9646 11.2888L24.6098 11.4823L28.5448 16.0623V15.4495L24.9646 11.2888Z" fill="#DC0032"/>
<path fill-rule="evenodd" clip-rule="evenodd" d="M14.7723 0C14.6433 0 14.5143 0.0322537 14.3853 0.0645075L22.7067 9.77287L23.0937 9.57934L14.8691 0C14.8368 0 14.8046 0 14.7723 0ZM24.7064 11.4501L24.3516 11.6436L28.5446 16.5784V15.9333L24.7064 11.4501Z" fill="#DC0032"/>
<path fill-rule="evenodd" clip-rule="evenodd" d="M14.4823 0.0322266C14.4178 0.0644803 14.321 0.0967339 14.2887 0.128988L14.0952 0.225749L22.4489 9.93411L22.8037 9.74058L14.4823 0.0322266ZM24.4164 11.6113L24.0616 11.8371L28.5449 17.0622V16.4494L24.4164 11.6113Z" fill="#DC0032"/>
<path fill-rule="evenodd" clip-rule="evenodd" d="M14.1595 0.161255L13.8047 0.354777L22.1584 10.0954L22.5132 9.90187L14.1595 0.161255ZM24.1259 11.7726L23.7711 11.9984L28.5446 17.546V16.9332L24.1259 11.7726Z" fill="#DC0032"/>
<path fill-rule="evenodd" clip-rule="evenodd" d="M13.8694 0.32251L13.5146 0.516032L21.8683 10.2566L22.2231 10.0631L13.8694 0.32251ZM23.8358 11.9339L23.481 12.1596L28.5449 18.0621V17.4492L23.8358 11.9339Z" fill="#DC0032"/>
<path fill-rule="evenodd" clip-rule="evenodd" d="M13.5789 0.483826L13.2241 0.677349L21.5778 10.418L21.9326 10.2244L13.5789 0.483826ZM23.5453 12.0952L23.1905 12.321L28.5446 18.5459V17.9331L23.5453 12.0952Z" fill="#DC0032"/>
<path fill-rule="evenodd" clip-rule="evenodd" d="M13.2889 0.645081L12.9341 0.838604L21.2878 10.5792L21.6426 10.3857L13.2889 0.645081ZM23.2553 12.2564L22.9005 12.4822L28.5449 19.0297V18.4169L23.2553 12.2564Z" fill="#DC0032"/>
<path fill-rule="evenodd" clip-rule="evenodd" d="M12.9983 0.806335L12.6436 0.999855L20.9973 10.7405L21.352 10.547L12.9983 0.806335ZM22.997 12.4177L22.6422 12.6435L28.5446 19.5458V18.9329L22.997 12.4177Z" fill="#DC0032"/>
<path fill-rule="evenodd" clip-rule="evenodd" d="M12.7083 0.935364L12.3535 1.16114L20.7395 10.9018L21.0943 10.7082L12.7083 0.935364ZM22.707 12.6112L22.3522 12.8047L28.5449 20.0296V19.4168L22.707 12.6112Z" fill="#DC0032"/>
<path fill-rule="evenodd" clip-rule="evenodd" d="M12.4178 1.09662L12.063 1.29014L20.449 11.063L20.8038 10.8695L12.4178 1.09662ZM22.4164 12.7725L22.0616 12.966L28.5446 20.5456V19.9006L22.4164 12.7725Z" fill="#DC0032"/>
<path fill-rule="evenodd" clip-rule="evenodd" d="M12.1277 1.25787L11.7729 1.4514L20.1589 11.2565L20.5137 11.0307L12.1277 1.25787ZM22.1264 12.9337L21.7716 13.1273L28.5449 21.0294V20.4166L22.1264 12.9337Z" fill="#DC0032"/>
<path fill-rule="evenodd" clip-rule="evenodd" d="M11.8372 1.41919L11.4824 1.61271L19.8684 11.4178L20.2232 11.1921L11.8372 1.41919ZM21.8359 13.095L21.4811 13.2886L28.5446 21.5132V20.9004L21.8359 13.095Z" fill="#DC0032"/>
<path fill-rule="evenodd" clip-rule="evenodd" d="M11.5472 1.58044L11.1924 1.77397L19.5784 11.5791L19.9332 11.3533L11.5472 1.58044ZM21.5458 13.2563L21.1911 13.4498L28.5449 22.0293V21.3842L21.5458 13.2563Z" fill="#DC0032"/>
<path fill-rule="evenodd" clip-rule="evenodd" d="M11.2566 1.7417L10.9019 1.93522L19.2878 11.7404L19.6426 11.5146L11.2566 1.7417ZM21.2876 13.4176L20.9328 13.6111L28.5446 22.5131V21.9003L21.2876 13.4176Z" fill="#DC0032"/>
<path fill-rule="evenodd" clip-rule="evenodd" d="M10.9661 1.87073L10.5791 2.06425L19.0296 11.9016L19.3844 11.6759L10.9661 1.87073ZM20.9971 13.5788L20.6423 13.7724L28.5444 22.9969V22.3841L20.9971 13.5788Z" fill="#DC0032"/>
<path fill-rule="evenodd" clip-rule="evenodd" d="M10.6761 2.03198L10.2891 2.2255L18.7718 12.0951C18.8041 12.0306 18.8363 11.9984 18.9008 11.9661L19.0944 11.8371L10.6761 2.03198L10.6761 2.03198ZM20.7071 13.7401L20.3523 13.9336L28.4802 23.4162C28.5124 23.3194 28.5447 23.2227 28.5447 23.1259V22.8679L20.707 13.7401H20.7071Z" fill="#DC0032"/>
<path fill-rule="evenodd" clip-rule="evenodd" d="M10.3856 2.19324L9.99854 2.38676L18.6748 12.4822V12.3532C18.6748 12.2564 18.7393 12.1274 18.8038 12.0306L10.3856 2.19324ZM20.4165 13.9014L20.1585 14.0626C20.1262 14.0626 20.094 14.0949 20.0617 14.0949L28.3187 23.7387C28.4154 23.6097 28.4799 23.4807 28.5122 23.3517L20.4165 13.9014Z" fill="#DC0032"/>
<path fill-rule="evenodd" clip-rule="evenodd" d="M10.0955 2.35449L9.7085 2.54802L18.675 12.9982V12.3532L10.0955 2.35449ZM19.5136 13.9336L28.0931 23.9645C28.1898 23.9 28.2866 23.771 28.3834 23.6742L20.1264 14.0626C19.9974 14.1271 19.8039 14.1271 19.6749 14.0626L19.5136 13.9336Z" fill="#DC0032"/>
<path fill-rule="evenodd" clip-rule="evenodd" d="M9.80546 2.51581L9.41846 2.70933L27.803 24.1258L28.0611 23.9968C28.0933 23.9645 28.1256 23.9323 28.1578 23.9L19.7074 14.0627H19.6751L18.9333 13.6111C18.8688 13.5788 18.8365 13.5143 18.772 13.4498C18.7075 13.3531 18.7075 13.2886 18.6753 13.2241V12.8693L9.80546 2.51581Z" fill="#DC0032"/>
<path fill-rule="evenodd" clip-rule="evenodd" d="M9.51498 2.67706L9.12793 2.87059L27.5125 24.2871L27.8673 24.0935L9.51498 2.67706Z" fill="#DC0032"/>
<path fill-rule="evenodd" clip-rule="evenodd" d="M9.22494 2.80609L8.83789 2.99962L27.2547 24.4484L27.6095 24.2548L9.22494 2.80609Z" fill="#DC0032"/>
<path fill-rule="evenodd" clip-rule="evenodd" d="M8.93441 2.96735L8.54736 3.16087L26.9642 24.6096L27.319 24.4161L8.93441 2.96735Z" fill="#DC0032"/>
<path fill-rule="evenodd" clip-rule="evenodd" d="M8.64437 3.1286L8.25732 3.32212L26.6742 24.7709L27.029 24.5773L8.64437 3.1286Z" fill="#DC0032"/>
<path fill-rule="evenodd" clip-rule="evenodd" d="M8.32159 3.28986L7.9668 3.48338L26.3837 24.9644L26.7385 24.7386L8.32159 3.28986Z" fill="#DC0032"/>
<path fill-rule="evenodd" clip-rule="evenodd" d="M8.03155 3.45117L7.67676 3.6447L26.0936 25.1257L26.4484 24.8999L8.03155 3.45117Z" fill="#DC0032"/>
<path fill-rule="evenodd" clip-rule="evenodd" d="M7.74102 3.61243L7.38623 3.80595L25.8354 25.2869L26.1902 25.0612L7.74102 3.61243Z" fill="#DC0032"/>
<path fill-rule="evenodd" clip-rule="evenodd" d="M7.4505 3.74146L7.0957 3.93497L25.5448 25.4482L25.8996 25.2224L7.4505 3.74146Z" fill="#DC0032"/>
<path fill-rule="evenodd" clip-rule="evenodd" d="M7.16046 3.90271L6.80566 4.09623L25.2548 25.6095L25.6096 25.416L7.16046 3.90271Z" fill="#DC0032"/>
<path fill-rule="evenodd" clip-rule="evenodd" d="M6.87042 4.06396L6.51562 4.25749L15.4822 14.7077L15.7724 14.9012C15.9014 14.9657 16.0305 15.127 16.0305 15.2882V15.3205L24.9648 25.7707L25.3196 25.5772L6.87042 4.06396Z" fill="#DC0032"/>
<path fill-rule="evenodd" clip-rule="evenodd" d="M6.57989 4.22522L6.2251 4.41873L14.6433 14.2561L15.7077 14.8367L6.57989 4.22522ZM15.998 15.1915C15.998 15.2237 16.0302 15.256 16.0302 15.2882V15.8365L24.6742 25.932L25.029 25.7385L15.998 15.1915Z" fill="#DC0032"/>
<path fill-rule="evenodd" clip-rule="evenodd" d="M6.28936 4.38647L5.93457 4.58L13.8045 13.7723L14.8689 14.3529L6.28936 4.38647ZM16.03 15.7075V16.3204L24.416 26.0933L24.7708 25.8997L16.03 15.7075Z" fill="#DC0032"/>
<path fill-rule="evenodd" clip-rule="evenodd" d="M5.99932 4.54779L5.64453 4.74131L12.9984 13.2886L14.0305 13.8691L5.99932 4.54779ZM16.0302 16.1914V16.8365L24.1259 26.2545L24.4807 26.0611L16.0302 16.1914Z" fill="#DC0032"/>
<path fill-rule="evenodd" clip-rule="evenodd" d="M5.70929 4.67676L5.35449 4.87028L12.16 12.8047L13.1922 13.4175L5.70929 4.67676ZM16.0305 16.7074V17.3202L23.8359 26.4158L24.1907 26.2222L16.0305 16.7074Z" fill="#DC0032"/>
<path fill-rule="evenodd" clip-rule="evenodd" d="M5.41875 4.83807L5.06396 5.0316L11.3212 12.321L12.3533 12.9338L5.41875 4.83807ZM16.0302 17.1913V17.8041L23.5453 26.5771L23.9001 26.3836L16.0302 17.1913Z" fill="#DC0032"/>
<path fill-rule="evenodd" clip-rule="evenodd" d="M5.12823 4.99933L4.77344 5.19285L10.4823 11.8694L11.5145 12.45L5.12823 4.99933ZM16.03 17.6751V18.3201L23.2548 26.7706L23.6096 26.5448L16.03 17.6751Z" fill="#DC0032"/>
<path fill-rule="evenodd" clip-rule="evenodd" d="M4.83819 5.16058L4.4834 5.35411L9.64402 11.3856L10.6761 11.9661L4.83819 5.16058ZM16.0302 18.1911V18.8039L22.997 26.9318L23.3518 26.7061L16.0302 18.1911Z" fill="#DC0032"/>
<path fill-rule="evenodd" clip-rule="evenodd" d="M4.54815 5.32184L4.19336 5.51536L8.80566 10.9017L9.86999 11.4823L4.54815 5.32184ZM16.0305 18.6749V19.2877L22.707 27.0931L23.0618 26.8673L16.0305 18.6749Z" fill="#DC0032"/>
<path fill-rule="evenodd" clip-rule="evenodd" d="M4.25762 5.48315L3.90283 5.67668L7.96681 10.418L9.03119 11.0308L4.25762 5.48315ZM12.7081 15.9334L13.5467 16.901V16.5462C13.5467 16.4817 13.4822 16.3849 13.4177 16.3527L12.7081 15.9334ZM16.0302 19.1588V19.8038L22.4165 27.2544L22.7713 27.0286L16.0302 19.1588Z" fill="#DB0032"/>
<path fill-rule="evenodd" clip-rule="evenodd" d="M3.96709 5.61212L3.6123 5.80565L7.12796 9.93411L8.19234 10.5469L3.96709 5.61212ZM11.8693 15.4495L13.5465 17.3847V16.7719L12.9336 16.0623L11.8693 15.4495ZM16.03 19.6748V20.2876L22.1259 27.4156L22.4807 27.2221L16.03 19.6748Z" fill="#DC0032"/>
<path fill-rule="evenodd" clip-rule="evenodd" d="M3.67705 5.77344L3.32227 5.96696L6.32186 9.4826L7.35399 10.0632L3.67705 5.77344ZM11.0309 14.998L13.5467 17.9008V17.288L12.0953 15.5786L11.0309 14.998ZM16.0302 20.1586V20.7714L21.8359 27.5769L22.1907 27.3834L16.0302 20.1586Z" fill="#DC0032"/>
<path fill-rule="evenodd" clip-rule="evenodd" d="M3.38702 5.93469L3.03223 6.12822L5.4835 8.99878L6.51562 9.57935L3.38702 5.93469ZM10.2248 14.5142L13.5469 18.3846V17.7718L11.2569 15.0947L10.2248 14.5142ZM16.0305 20.6746V21.2875L21.5781 27.7382L21.9329 27.5447L16.0305 20.6746Z" fill="#DC0032"/>
<path fill-rule="evenodd" clip-rule="evenodd" d="M3.09649 6.09595L2.7417 6.28947L4.64467 8.51499L5.67678 9.09552L3.09649 6.09595ZM9.38599 14.0304L13.5467 18.8684V18.2556L10.4181 14.6432L9.38599 14.0304ZM16.0302 21.1584V21.7712L21.2876 27.8995L21.6424 27.7059L16.0302 21.1584Z" fill="#DC0032"/>
<path fill-rule="evenodd" clip-rule="evenodd" d="M2.80596 6.2572L2.45117 6.45073L3.80583 8.03117L4.83794 8.644L2.80596 6.2572ZM8.54714 13.5466L13.5465 19.3845V18.7717L9.57926 14.1594L8.54714 13.5466ZM16.03 21.6422V22.255L20.9971 28.0607L21.3518 27.8672L16.03 21.6422Z" fill="#DC0032"/>
<path fill-rule="evenodd" clip-rule="evenodd" d="M2.51592 6.41852L2.16113 6.61204L2.96748 7.54741L4.03185 8.16023L2.51592 6.41852ZM7.70878 13.095L13.5467 19.8683V19.2555L8.74091 13.6756L7.70878 13.095ZM16.0302 22.1583V22.7712L20.707 28.222L21.0618 28.0285L16.0302 22.1583Z" fill="#DC0032"/>
<path fill-rule="evenodd" clip-rule="evenodd" d="M2.22542 6.54749L1.83838 6.74101L2.12866 7.0958L3.19303 7.67637L2.22542 6.54749ZM6.86996 12.6112L13.5465 20.3843V19.7393L7.93434 13.1918L6.86996 12.6112ZM16.03 22.6421V23.2549L20.4165 28.4155L20.7713 28.1897L16.03 22.6421Z" fill="#DC0032"/>
<path fill-rule="evenodd" clip-rule="evenodd" d="M1.93525 6.7088L1.70947 6.83782L2.35455 7.19261L1.93525 6.7088V6.7088ZM6.03147 12.1274L13.5466 20.8682V20.2554L7.09585 12.7403L6.03147 12.1274ZM16.0301 23.1259V23.771L20.1586 28.5768L20.5134 28.351L16.0301 23.1259Z" fill="#DC0032"/>
<path fill-rule="evenodd" clip-rule="evenodd" d="M5.2251 11.6436L13.5466 21.352V20.7391L6.25721 12.2564L5.2251 11.6436ZM16.0301 23.642V24.2548L19.8683 28.7381L20.2231 28.5123L16.0301 23.642Z" fill="#DC0032"/>
<path fill-rule="evenodd" clip-rule="evenodd" d="M4.38672 11.192L13.5468 21.868V21.2229L5.41883 11.7726L4.38672 11.192ZM16.0303 24.1258V24.7386L19.5782 28.8993L19.933 28.6735L16.0303 24.1258Z" fill="#DC0032"/>
<path fill-rule="evenodd" clip-rule="evenodd" d="M3.54785 10.7083L13.5465 22.3518V21.739L4.57997 11.2888L3.54785 10.7083ZM16.03 24.6096V25.2547L19.2877 29.0606L19.6425 28.8671L16.03 24.6096Z" fill="#DC0032"/>
<path fill-rule="evenodd" clip-rule="evenodd" d="M2.70947 10.2244L13.5467 22.8356V22.2228L3.74159 10.8373L2.70947 10.2244ZM16.0302 25.1257V25.7385L18.9976 29.2219L19.3524 29.0284L16.0302 25.1257Z" fill="#DB0032"/>
<path fill-rule="evenodd" clip-rule="evenodd" d="M1.87109 9.7406L13.5469 23.3517V22.7389L2.90321 10.3534L1.87109 9.7406ZM16.0305 25.6095V26.2222L18.7398 29.3831L19.0946 29.1896L16.0305 25.6095Z" fill="#DA0032"/>
<path fill-rule="evenodd" clip-rule="evenodd" d="M1.03223 9.28906L13.5467 23.8355V23.2227L2.0966 9.86963L1.03223 9.28906ZM16.0302 26.0933V26.7383L18.4492 29.5444L18.804 29.3509L16.0302 26.0933Z" fill="#D90032"/>
<path fill-rule="evenodd" clip-rule="evenodd" d="M1 9.25684V9.70839L13.5467 24.3194V23.7065L1.25803 9.38585L1 9.25684ZM16.0302 26.6093V26.9964C16.0302 27.0609 15.998 27.1254 15.9657 27.1577L18.159 29.7057L18.5138 29.5122L16.0302 26.6093Z" fill="#D80032"/>
<path fill-rule="evenodd" clip-rule="evenodd" d="M1 9.57935V10.2244L13.5467 24.8354V24.2226L1 9.57935ZM15.998 27.0931C15.9657 27.2221 15.8689 27.3512 15.7722 27.3834L15.7399 27.4157L17.8687 29.867L18.2235 29.6734L15.998 27.0931L15.998 27.0931Z" fill="#D70032"/>
<path fill-rule="evenodd" clip-rule="evenodd" d="M1 10.0954V10.7082L13.5467 25.3192V24.7064L1 10.0954ZM15.8044 27.3511C15.8044 27.3834 15.8044 27.3834 15.7722 27.3834L15.4497 27.5769L17.5784 30.0282L17.9332 29.8347L15.8044 27.3511L15.8044 27.3511Z" fill="#D60032"/>
<path fill-rule="evenodd" clip-rule="evenodd" d="M1 10.5792V11.192L13.5467 25.803V25.1902L1 10.5792ZM15.5464 27.5124L15.1594 27.7382L17.3204 30.2218L17.6752 29.996L15.5464 27.5124Z" fill="#D50032"/>
<path fill-rule="evenodd" clip-rule="evenodd" d="M1 11.0953V11.7081L13.5467 26.319V25.7062L1 11.0953ZM15.2562 27.6737L15.0304 27.8027C14.9659 27.835 14.9014 27.835 14.8369 27.835L17.0301 30.383L17.3849 30.1572L15.2562 27.6737V27.6737Z" fill="#D40032"/>
<path fill-rule="evenodd" clip-rule="evenodd" d="M1 11.5791V12.1919L13.5467 26.8028V26.19L1 11.5791ZM14.2563 27.6737L16.7398 30.5443L17.0946 30.3185L14.9336 27.835C14.9014 27.835 14.8369 27.8672 14.8046 27.8672H14.7724C14.6756 27.8672 14.6111 27.835 14.5466 27.8027L14.2563 27.6737L14.2563 27.6737Z" fill="#D30032"/>
<path fill-rule="evenodd" clip-rule="evenodd" d="M1 12.0629V12.7079L16.4495 30.7055L16.8043 30.4798L14.4821 27.7704L13.7725 27.3834C13.6435 27.3189 13.5467 27.1576 13.5467 26.9963V26.6738L1 12.0629Z" fill="#D20032"/>
<path fill-rule="evenodd" clip-rule="evenodd" d="M1 12.579V13.1918L16.1592 30.8668L16.514 30.6733L1 12.579Z" fill="#D10032"/>
<path fill-rule="evenodd" clip-rule="evenodd" d="M1 13.0627V13.6756L15.8689 31.0281L16.2237 30.8345L1 13.0627Z" fill="#D00032"/>
<path fill-rule="evenodd" clip-rule="evenodd" d="M1 13.5466V14.1916L15.6109 31.1894L15.9657 30.9958L1 13.5466Z" fill="#CF0032"/>
<path fill-rule="evenodd" clip-rule="evenodd" d="M1 14.0626V14.6754L15.3207 31.3506L15.6754 31.1571L1 14.0626Z" fill="#CE0032"/>
<path fill-rule="evenodd" clip-rule="evenodd" d="M1 14.5464V15.1592L14.9981 31.4796C15.0949 31.4474 15.1917 31.4151 15.2884 31.3829L15.3852 31.3184L1 14.5464Z" fill="#CD0032"/>
<path fill-rule="evenodd" clip-rule="evenodd" d="M1 15.0302V15.6753L14.5788 31.4797C14.6433 31.4797 14.7079 31.4797 14.7724 31.4797C14.8691 31.4797 14.9659 31.4797 15.0626 31.4474L1 15.0302Z" fill="#CC0032"/>
<path fill-rule="evenodd" clip-rule="evenodd" d="M1 15.5463V16.1591L13.837 31.1248L14.2885 31.3829C14.3853 31.4474 14.5466 31.4796 14.6756 31.4796L1 15.5463Z" fill="#CB0032"/>
<path fill-rule="evenodd" clip-rule="evenodd" d="M1 16.0301V16.6429L12.9984 30.6411L14.0628 31.2539L1 16.0301Z" fill="#CA0032"/>
<path fill-rule="evenodd" clip-rule="evenodd" d="M1 16.5461V17.159L12.1598 30.1572L13.2242 30.7701L1 16.5461Z" fill="#C90032"/>
<path fill-rule="evenodd" clip-rule="evenodd" d="M1 17.03V17.6428L11.3212 29.6734L12.3533 30.2863L1 17.03Z" fill="#C80033"/>
<path fill-rule="evenodd" clip-rule="evenodd" d="M1 17.5138V18.1266L10.4826 29.1896L11.5147 29.8025L1 17.5138Z" fill="#C70033"/>
<path fill-rule="evenodd" clip-rule="evenodd" d="M1 18.0298V18.6427L9.61177 28.6736L10.6761 29.2864L1 18.0298Z" fill="#C60033"/>
<path fill-rule="evenodd" clip-rule="evenodd" d="M1 18.5137V19.1265L8.77316 28.1898L9.8375 28.8026L1 18.5137Z" fill="#C50033"/>
<path fill-rule="evenodd" clip-rule="evenodd" d="M1 18.9974V19.6103L7.93456 27.7059L8.99894 28.3187L1 18.9974Z" fill="#C40033"/>
<path fill-rule="evenodd" clip-rule="evenodd" d="M1 19.5135V20.1264L7.09596 27.2222L8.16034 27.835L1 19.5135Z" fill="#C30033"/>
<path fill-rule="evenodd" clip-rule="evenodd" d="M1 19.9973V20.6101L6.25735 26.7383L7.32173 27.3511L1 19.9973Z" fill="#C20033"/>
<path fill-rule="evenodd" clip-rule="evenodd" d="M1 20.4811V21.1262L5.41875 26.2545L6.45088 26.8673L1 20.4811Z" fill="#C10033"/>
<path fill-rule="evenodd" clip-rule="evenodd" d="M1 20.9972V21.61L4.54791 25.7708L5.61227 26.3836L1 20.9972Z" fill="#C00033"/>
<path fill-rule="evenodd" clip-rule="evenodd" d="M1 21.481V22.0938L3.70931 25.2869L4.77369 25.8675L1 21.481Z" fill="#BF0033"/>
<path fill-rule="evenodd" clip-rule="evenodd" d="M1 21.9648V22.6099L2.87072 24.7709L3.93509 25.3837L1 21.9648Z" fill="#BE0033"/>
<path fill-rule="evenodd" clip-rule="evenodd" d="M1 22.4808V23.0937L2.03212 24.2871L3.09649 24.8999L1 22.4808Z" fill="#BD0033"/>
<path fill-rule="evenodd" clip-rule="evenodd" d="M1 22.9647V23.1259C1 23.4485 1.22578 23.8355 1.48381 23.9968L2.2579 24.4161L1 22.9647Z" fill="#BC0033"/>
<path fill-rule="evenodd" clip-rule="evenodd" d="M1.19336 23.7065C1.25787 23.771 1.29012 23.8355 1.35463 23.8677L1.19336 23.7065Z" fill="#BB0033"/>
</svg>
