<svg width="117" height="32" viewBox="0 0 117 32" fill="none" xmlns="http://www.w3.org/2000/svg">
<g clip-path="url(#clip0_874_4439)">
<path fill-rule="evenodd" clip-rule="evenodd" d="M79.2383 32H87.5766L91.159 21.9342L94.884 18.8489L97.8181 27.9519C98.7255 30.7655 99.6596 32 101.697 32H108.081L101.495 14.1373L117.334 0H107.105L97.4905 10.066C96.3705 11.2378 95.2375 12.3912 94.1015 13.7688H94.0048L98.8055 0H90.4665L79.2383 32Z" fill="#1AB248"/>
<path fill-rule="evenodd" clip-rule="evenodd" d="M78.8783 0.00126793C81.4932 0.00168879 84.0296 0.00209697 86.1538 0.00228143L84.4326 5.28561C83.8917 6.94558 82.5187 7.73973 79.4924 7.73973C74.2382 7.73973 66.4635 7.73882 61.2086 7.73791L62.9298 2.45459C63.4705 0.793707 64.8433 0 67.8696 0C70.9999 0 75.0246 0.000647744 78.8783 0.00126793ZM63.6258 12.1303C68.8799 12.1303 76.6551 12.1312 81.91 12.1326L80.1888 17.4157C79.6479 19.0761 78.2749 19.8698 75.2485 19.8698C69.9942 19.8698 62.2195 19.8689 56.9647 19.8675L58.6858 14.5849C59.2265 12.9242 60.5995 12.1303 63.6258 12.1303ZM77.4574 24.2621C72.2029 24.2612 64.4282 24.2603 59.1739 24.2603C56.1471 24.2603 54.7746 25.0544 54.2338 26.7139L52.5127 31.9979C57.7676 31.9984 65.5423 32 70.7968 32C73.8229 32 75.1959 31.2056 75.7366 29.5452L77.4574 24.2621Z" fill="#1AB248"/>
<path fill-rule="evenodd" clip-rule="evenodd" d="M41.4298 7.70743L45.9047 7.70926C49.7174 7.71017 48.8471 12.3189 46.9175 16.8106C45.2173 20.7695 42.2039 24.2632 38.6089 24.2627L31.1489 24.2618C28.1733 24.2618 26.8014 25.0559 26.2228 26.7154L24.3809 31.9991L29.8512 32L35.1985 31.9569C39.9407 31.919 43.823 31.5873 48.363 27.6383C53.1608 23.4667 58.7549 12.6296 57.7965 6.36145C57.0457 1.44955 54.3187 0.00228132 47.7152 0.00182505L35.6817 0L28.6752 19.847L33.127 19.8525C35.7765 19.8554 37.1062 19.8876 38.5156 16.217L41.4298 7.70743Z" fill="#1AB248"/>
<path fill-rule="evenodd" clip-rule="evenodd" d="M20.8579 7.73501L17.4922 7.73592C10.7498 7.73912 4.97221 24.2654 12.9443 24.2627L18.0666 24.2618C21.0208 24.2618 23.2139 25.3059 22.2428 28.1213L20.9047 31.9991L15.4721 32L11.0532 31.9569C5.40007 31.9022 1.75211 29.205 0.438602 25.1095C-0.982804 20.6776 1.02397 11.434 6.84839 5.51257C10.2279 2.07736 14.9092 0.00228132 20.9112 0.00182505L32 0L30.2666 4.84323C29.1467 7.9725 26.8585 7.73912 25.5528 7.73867L20.8579 7.73501Z" fill="#1AB248"/>
</g>
<defs>
<clipPath id="clip0_874_4439">
<rect width="117" height="32" fill="white"/>
</clipPath>
</defs>
</svg>
