<svg width="48" height="48" viewBox="0 0 48 48" fill="none" xmlns="http://www.w3.org/2000/svg">
<circle cx="24" cy="24" r="23" stroke="#EDEDED" stroke-width="2"/>
<path d="M11.32 31V17.8L12.18 18.74H8.16V17H13.3V31H11.32ZM21.8223 31.16C20.689 31.16 19.709 30.9933 18.8823 30.66C18.0557 30.3267 17.4157 29.8533 16.9623 29.24C16.509 28.6133 16.2823 27.88 16.2823 27.04C16.2823 26.2133 16.4957 25.5133 16.9223 24.94C17.3623 24.3533 17.9957 23.9133 18.8223 23.62C19.649 23.3133 20.649 23.16 21.8223 23.16C22.9957 23.16 23.9957 23.3133 24.8223 23.62C25.6623 23.9133 26.3023 24.3533 26.7423 24.94C27.1823 25.5267 27.4023 26.2267 27.4023 27.04C27.4023 27.88 27.1757 28.6133 26.7223 29.24C26.269 29.8533 25.6223 30.3267 24.7823 30.66C23.9423 30.9933 22.9557 31.16 21.8223 31.16ZM21.8223 29.54C22.9423 29.54 23.8157 29.3133 24.4423 28.86C25.0823 28.3933 25.4023 27.7667 25.4023 26.98C25.4023 26.2067 25.0823 25.6 24.4423 25.16C23.8157 24.7067 22.9423 24.48 21.8223 24.48C20.7157 24.48 19.849 24.7067 19.2223 25.16C18.5957 25.6 18.2823 26.2067 18.2823 26.98C18.2823 27.7667 18.5957 28.3933 19.2223 28.86C19.849 29.3133 20.7157 29.54 21.8223 29.54ZM21.8223 24.24C20.7557 24.24 19.849 24.1 19.1023 23.82C18.3557 23.5267 17.7823 23.1133 17.3823 22.58C16.9823 22.0333 16.7823 21.3867 16.7823 20.64C16.7823 19.8533 16.989 19.18 17.4023 18.62C17.829 18.0467 18.4223 17.6067 19.1823 17.3C19.9423 16.9933 20.8223 16.84 21.8223 16.84C22.8357 16.84 23.7223 16.9933 24.4823 17.3C25.2423 17.6067 25.8357 18.0467 26.2623 18.62C26.689 19.18 26.9023 19.8533 26.9023 20.64C26.9023 21.3867 26.7023 22.0333 26.3023 22.58C25.9023 23.1133 25.3223 23.5267 24.5623 23.82C23.8023 24.1 22.889 24.24 21.8223 24.24ZM21.8223 22.96C22.7957 22.96 23.5557 22.76 24.1023 22.36C24.6623 21.96 24.9423 21.4133 24.9423 20.72C24.9423 20.0133 24.6557 19.46 24.0823 19.06C23.509 18.66 22.7557 18.46 21.8223 18.46C20.889 18.46 20.1423 18.66 19.5823 19.06C19.0357 19.46 18.7623 20.0133 18.7623 20.72C18.7623 21.4133 19.029 21.96 19.5623 22.36C20.109 22.76 20.8623 22.96 21.8223 22.96ZM33.2534 28.38V19.62H34.9334V28.38H33.2534ZM29.6134 24.8V23.22H38.5734V24.8H29.6134Z" fill="#EDEDED"/>
</svg>
