<svg width="18" height="18" viewBox="0 0 18 18" fill="none" xmlns="http://www.w3.org/2000/svg">
<path d="M12.375 15.75C6.79205 15.75 2.25 11.2079 2.25 5.62497C2.25096 4.66713 2.6006 3.7424 3.2336 3.02353C3.8666 2.30466 4.73967 1.84083 5.68969 1.71869C5.93144 1.68953 6.17613 1.7394 6.38718 1.86085C6.59823 1.98231 6.76429 2.16882 6.86053 2.39249L8.27325 5.6886C8.34653 5.85911 8.37641 6.04511 8.36021 6.22999C8.34401 6.41486 8.28225 6.59284 8.18044 6.748L7.01079 8.53521L7.01065 8.53535C7.53881 9.6092 8.40983 10.4764 9.486 10.9998L11.2468 9.826C11.4024 9.7219 11.5816 9.65839 11.768 9.64127C11.9544 9.62415 12.1422 9.65396 12.3141 9.72799L15.6074 11.1394C15.8311 11.2356 16.0176 11.4016 16.1391 11.6127C16.2606 11.8237 16.3105 12.0685 16.2813 12.3102C16.1592 13.2602 15.6953 14.1333 14.9765 14.7663C14.2576 15.3994 13.3329 15.749 12.375 15.75ZM5.82652 2.83574C5.14887 2.9237 4.5264 3.25525 4.07529 3.76851C3.62418 4.28177 3.37526 4.94165 3.375 5.62497C3.3777 8.01109 4.32678 10.2987 6.01402 11.986C7.70126 13.6732 9.98888 14.6223 12.375 14.625C13.059 14.6244 13.7195 14.3749 14.2329 13.923C14.7464 13.471 15.0778 12.8477 15.1652 12.1692L11.871 10.7621L10.1107 11.9359C9.94893 12.0439 9.76184 12.1081 9.56778 12.1222C9.37372 12.1362 9.17933 12.0997 9.00366 12.016C7.69529 11.382 6.63678 10.3283 5.99681 9.02289C5.91277 8.84826 5.87528 8.65486 5.88799 8.46147C5.90071 8.26808 5.96319 8.08126 6.06938 7.91913L7.23909 6.13178L5.82652 2.83574Z" fill="#2B2D3A" fill-opacity="0.8"/>
</svg>
