<svg width="18" height="18" viewBox="0 0 18 18" fill="none" xmlns="http://www.w3.org/2000/svg">
<path d="M12.375 15.75C6.79205 15.75 2.25 11.208 2.25 5.625C2.25096 4.66716 2.6006 3.74243 3.2336 3.02356C3.8666 2.30469 4.73967 1.84086 5.68969 1.71872C5.93144 1.68956 6.17613 1.73943 6.38718 1.86089C6.59823 1.98234 6.76429 2.16885 6.86053 2.39253L8.27325 5.68863C8.34653 5.85914 8.37641 6.04514 8.36021 6.23002C8.34401 6.41489 8.28225 6.59287 8.18044 6.74803L7.01079 8.53524L7.01065 8.53538C7.53881 9.60923 8.40983 10.4764 9.486 10.9998L11.2468 9.82603C11.4024 9.72193 11.5816 9.65842 11.768 9.6413C11.9544 9.62418 12.1422 9.65399 12.3141 9.72802L15.6074 11.1394C15.8311 11.2356 16.0176 11.4017 16.1391 11.6127C16.2606 11.8238 16.3105 12.0685 16.2813 12.3102C16.1592 13.2603 15.6953 14.1334 14.9765 14.7664C14.2576 15.3994 13.3329 15.749 12.375 15.75ZM5.82652 2.83578C5.14887 2.92373 4.5264 3.25528 4.07529 3.76854C3.62418 4.2818 3.37526 4.94168 3.375 5.625C3.3777 8.01112 4.32678 10.2987 6.01402 11.986C7.70126 13.6732 9.98888 14.6223 12.375 14.625C13.059 14.6245 13.7195 14.3749 14.2329 13.923C14.7464 13.4711 15.0778 12.8477 15.1652 12.1693L11.871 10.7621L10.1107 11.9359C9.94893 12.044 9.76184 12.1082 9.56778 12.1222C9.37372 12.1363 9.17933 12.0997 9.00366 12.0161C7.69529 11.3821 6.63678 10.3284 5.99681 9.02292C5.91277 8.84829 5.87528 8.65489 5.88799 8.4615C5.90071 8.26811 5.96319 8.08129 6.06938 7.91916L7.23909 6.13181L5.82652 2.83578Z" fill="white"/>
</svg>
