<svg width="66" height="32" viewBox="0 0 66 32" fill="none" xmlns="http://www.w3.org/2000/svg">
<g clip-path="url(#clip0_853_5982)">
<path fill-rule="evenodd" clip-rule="evenodd" d="M0 31.8285H31.8898V0.186035H0V31.8285Z" fill="#001689"/>
<path fill-rule="evenodd" clip-rule="evenodd" d="M9.68144 10.4093C9.91694 10.9248 10.3017 11.454 11.3564 12.1682C11.5902 12.328 11.8504 12.6605 11.6534 13.1282C11.4533 13.5953 11.0832 14.2593 11.3037 14.5183C11.5274 14.7769 12.3214 14.9114 12.967 14.6543C12.967 14.6543 13.1026 15.0588 13.3394 15.318C13.3394 15.318 13.2276 15.541 12.8558 15.4285C12.8558 15.4285 12.9912 15.7607 12.8044 16.118C12.8044 16.118 12.3713 16.0443 12.1857 15.6497C12.1857 15.6497 12.0111 15.957 11.6642 16.0681C11.6642 16.0681 11.3789 15.9217 11.4424 15.3537C11.4424 15.3537 11.2304 15.8593 10.5869 15.9444C10.5869 15.9444 10.2139 15.4778 10.6973 14.8502C10.6973 14.8502 10.3499 15.158 9.71969 15.01C9.71969 15.01 9.61938 14.6908 10.1888 14.2474C10.1888 14.2474 9.544 14.2225 9.29688 13.6815C9.29688 13.6815 9.56931 13.3487 10.2379 13.4231C10.2379 13.4231 9.61937 13.2869 9.48231 12.5492C9.48231 12.5492 9.92875 12.2662 10.6356 12.7211C10.6356 12.7211 10.51 12.488 10.2139 12.2543C9.91694 12.0203 9.55675 11.3682 9.68144 10.4093Z" fill="white"/>
<path fill-rule="evenodd" clip-rule="evenodd" d="M12.2765 17.83C12.1813 17.7059 12.1117 17.5824 12.0605 17.4635C12.1714 18.3584 12.2098 18.9617 12.6975 19.5416C12.6975 19.5416 12.9911 19.1539 12.8021 18.2116C12.7211 18.1882 12.6279 18.1493 12.54 18.0901C12.54 18.0901 12.651 18.4728 12.5805 18.8574C12.5805 18.8574 12.4065 18.7312 12.2765 17.83Z" fill="white"/>
<path fill-rule="evenodd" clip-rule="evenodd" d="M11.4341 17.7371C11.376 17.6643 11.2638 17.5097 11.2042 17.4001C11.1643 17.9203 11.0252 19.2872 11.4875 19.7161C11.4875 19.7161 11.8044 19.4859 11.9152 17.49C11.8485 17.602 11.7305 17.7211 11.6732 17.7864C11.6732 17.7864 11.7504 18.4191 11.5218 18.8662C11.5218 18.8662 11.2925 18.6934 11.4341 17.7371Z" fill="white"/>
<path fill-rule="evenodd" clip-rule="evenodd" d="M10.3331 18.7821C10.7199 18.3211 10.8371 16.9391 10.8371 16.9391C10.8909 16.9032 10.9441 16.8644 11 16.8212C11.0195 16.8035 11.042 16.7855 11.0624 16.7657C11.0624 16.8156 11.0645 16.8684 11.0696 16.9204C11.0133 17.7525 10.9473 18.6093 10.6852 19.0359C10.4294 19.4543 9.95712 19.6712 9.95712 19.6712C9.51593 18.8906 10.0494 17.8444 10.4981 17.1166C10.5517 17.096 10.6076 17.0699 10.6649 17.0415C10.5082 17.6015 10.2091 18.2681 10.3331 18.7821Z" fill="white"/>
<path fill-rule="evenodd" clip-rule="evenodd" d="M9.23571 16.3837C9.23346 16.4722 9.25015 16.5461 9.26252 16.5824C9.26665 16.5969 9.27321 16.6183 9.28296 16.6395C8.91265 16.9999 8.63796 17.345 8.08971 18.1009C7.54034 18.8573 6.6709 18.8875 6.6709 18.8875C6.75527 18.2748 6.92234 17.7909 7.38846 17.2687C7.85346 16.747 8.44915 16.27 8.88584 15.9548C8.99759 16.0047 9.14515 16.0374 9.33002 16.0155C9.34427 16.0146 9.35946 16.0129 9.37277 16.0093C9.31465 16.0862 9.27884 16.1625 9.26102 16.2326C8.92859 16.4211 7.96765 16.9042 7.57821 17.6847C7.57821 17.6847 8.18627 17.494 9.23571 16.3837Z" fill="white"/>
<path fill-rule="evenodd" clip-rule="evenodd" d="M8.54707 15.6215L8.5827 15.5566C8.59676 15.5348 8.60763 15.5157 8.62226 15.4974C8.26451 15.6349 6.99157 16.1116 6.57982 16.3229C6.16732 16.5358 5.57107 17.0159 5.24707 17.9936C5.24707 17.9936 6.10619 18.0693 6.81532 17.4879C7.52463 16.9043 8.35113 16.0924 8.70401 15.8344C8.66857 15.8022 8.6412 15.7706 8.62226 15.7439C8.62226 15.7439 7.66226 16.5867 6.64807 16.9516C6.64807 16.9516 6.86463 16.5601 7.26626 16.2768C7.75432 15.933 8.12013 15.8173 8.54707 15.6215Z" fill="white"/>
<path fill-rule="evenodd" clip-rule="evenodd" d="M7.81856 15.0437C7.83281 15.01 7.84687 14.9782 7.86131 14.9486C7.44075 15.0327 6.39187 15.1579 5.92181 15.2997C5.45325 15.4435 4.60481 15.7836 4.10156 16.7373C4.10156 16.7373 4.84031 16.9629 6.23438 16.3125C7.62844 15.661 8.06625 15.5255 8.33175 15.4554C8.12044 15.4403 7.96931 15.3693 7.89225 15.3214C7.33594 15.5676 6.59194 15.8578 5.85375 15.8775C5.85375 15.8775 6.21675 15.6227 6.60056 15.4617C7.01437 15.2904 7.47131 15.1335 7.81856 15.0437Z" fill="white"/>
<path fill-rule="evenodd" clip-rule="evenodd" d="M7.85439 14.359C7.99051 14.4223 8.09514 14.4539 8.27382 14.4721C8.17689 14.535 8.08482 14.6139 8.00232 14.7209C7.51051 14.8615 6.6722 15.0147 5.28995 15.1138C3.90901 15.2115 3.17139 14.9607 3.17139 14.9607C3.65289 14.6684 4.42051 14.3719 4.94026 14.2723C5.45926 14.1726 6.82295 14.1841 7.42051 14.103C7.42707 14.1099 7.49945 14.168 7.61739 14.2387C7.1147 14.2831 6.04314 14.3324 5.49114 14.6117C5.49114 14.6117 6.51057 14.7458 7.85439 14.359Z" fill="white"/>
<path fill-rule="evenodd" clip-rule="evenodd" d="M7.75018 13.5704C7.8203 13.5295 7.90411 13.489 8.00743 13.451C7.30711 13.2413 6.3473 12.9048 4.90093 12.8119C3.84136 12.7429 3.07674 12.8032 2.68018 12.9048C2.68018 12.9048 3.64618 13.5792 4.74886 13.817C5.85361 14.0558 6.74986 13.9053 7.40499 13.9111C7.44736 13.8471 7.49668 13.7744 7.57374 13.7024C6.80705 13.7074 5.53299 13.5102 5.07699 13.3591C5.07699 13.3591 6.18849 13.1297 7.75018 13.5704Z" fill="white"/>
<path fill-rule="evenodd" clip-rule="evenodd" d="M7.74615 12.7543C7.7499 12.774 7.8324 13.1655 8.28952 13.3815C7.30665 12.9552 5.37221 12.7097 4.33121 12.2804C2.92571 11.7004 2.66846 10.9768 2.66846 10.9768C3.88571 10.9444 4.86933 11.239 5.62796 11.4704C6.5154 11.7398 7.86727 12.2414 8.34033 12.4507C8.16465 12.4574 7.96871 12.5087 7.80502 12.6172C7.14483 12.3655 6.83677 12.2591 6.23733 12.0924C5.76277 11.9604 5.41365 11.9351 5.11739 11.9071C5.11739 11.9071 5.53383 12.18 6.21989 12.3971C6.89996 12.6137 7.19433 12.6494 7.74615 12.7543Z" fill="white"/>
<path fill-rule="evenodd" clip-rule="evenodd" d="M7.67276 11.6901C7.71195 11.7591 7.82782 11.9237 7.87413 11.989C6.3207 11.731 4.61257 10.5656 4.08438 9.84281C3.55638 9.11983 3.70545 8.0415 3.70545 8.0415C4.21788 8.14327 5.33145 9.09639 5.61963 9.38346C5.90876 9.66904 6.77876 10.5105 7.38195 10.9794L7.56963 11.5219C7.05307 11.1092 6.44032 10.6497 6.05895 10.3641C5.76495 10.1446 5.3247 9.83201 4.8867 9.68448C4.8867 9.68448 5.29001 10.2052 5.61532 10.4597C5.99107 10.7541 6.37301 11.0095 6.68632 11.1803C6.96513 11.3323 7.10801 11.4181 7.67276 11.6901Z" fill="white"/>
<path fill-rule="evenodd" clip-rule="evenodd" d="M12.0534 16.0041C12.1008 15.9626 12.1426 15.9226 12.1753 15.8867C12.2469 15.9756 12.4873 16.2724 12.6061 16.569C12.6946 16.8218 12.7904 17.166 12.8375 17.3632C12.8851 17.5589 13.0256 17.9695 13.1118 18.1098C13.1118 18.1098 12.7338 18.157 12.4535 17.832C12.1783 17.5137 12.0862 17.193 12.0423 16.8644C12.0065 16.6069 12.0196 16.2497 12.0534 16.0041Z" fill="white"/>
<path fill-rule="evenodd" clip-rule="evenodd" d="M11.4568 16.053C11.5271 16.1466 11.5946 16.1843 11.6012 16.1886L11.6531 16.2145L11.7053 16.1962C11.7533 16.1823 11.7962 16.1652 11.8363 16.1449C11.892 16.2965 11.9149 16.3696 11.9278 16.4984C11.9451 16.6703 11.979 16.9406 11.9149 17.1614C11.8363 17.4303 11.6728 17.5949 11.5836 17.6976C11.5836 17.6976 11.3357 17.4271 11.265 17.205C11.1915 16.9713 11.1651 16.6999 11.2566 16.4215C11.3065 16.2705 11.3856 16.1324 11.4568 16.053Z" fill="white"/>
<path fill-rule="evenodd" clip-rule="evenodd" d="M10.6042 16.0789C10.8577 16.0456 11.0488 15.9548 11.1935 15.8499C11.2258 15.9382 11.2756 16.0571 11.2398 16.2257C11.2008 16.3946 11.0833 16.5808 10.9151 16.7159C10.6578 16.9178 10.3177 17.1083 9.94007 17.0508C9.94007 17.0508 9.85326 16.7687 10.6042 16.0789Z" fill="white"/>
<path fill-rule="evenodd" clip-rule="evenodd" d="M10.3179 15.6091C10.3496 15.8594 10.47 16.0166 10.4778 16.029C10.3901 16.1334 10.0719 16.675 9.40908 16.5851C9.40908 16.5851 9.22833 16.2155 9.67102 15.9217C9.96933 15.7228 10.1128 15.6822 10.3179 15.6091Z" fill="white"/>
<path fill-rule="evenodd" clip-rule="evenodd" d="M10.3755 15.1456C10.1994 15.1896 9.96897 15.2073 9.68772 15.1413L9.61104 15.1236L9.58722 15.0499C9.24616 15.3256 8.84116 15.3723 8.70166 15.6226C8.70166 15.6226 8.8721 15.9335 9.31478 15.8827C9.75747 15.8298 10.0888 15.6241 10.3262 15.3294C10.3353 15.2856 10.3554 15.2021 10.3755 15.1456Z" fill="white"/>
<path fill-rule="evenodd" clip-rule="evenodd" d="M9.61132 14.7576C9.67282 14.6647 9.7165 14.5213 9.84888 14.376C9.55694 14.3257 9.29257 14.3215 8.94925 14.3879C8.54144 14.4632 8.12482 14.5589 7.9165 15.176C7.9165 15.176 8.17713 15.3968 8.65375 15.3012C9.05857 15.2182 9.40938 15.0463 9.61132 14.7576Z" fill="white"/>
<path fill-rule="evenodd" clip-rule="evenodd" d="M9.4373 14.0896C9.3353 14.0006 9.23949 13.8866 9.17236 13.7376L9.13899 13.6602C8.78499 13.5175 8.41693 13.4442 8.05449 13.5766C7.69374 13.7115 7.59868 13.8646 7.5083 13.9992C7.5083 13.9992 7.90824 14.3314 8.36686 14.3428C8.82699 14.3579 9.25224 14.2256 9.4373 14.0896Z" fill="white"/>
<path fill-rule="evenodd" clip-rule="evenodd" d="M9.54372 13.3685C9.60466 13.3456 9.67253 13.3244 9.7496 13.3088C9.5951 13.1722 9.43928 12.9629 9.36541 12.6515C9.20078 12.6894 8.81547 12.6894 8.64616 12.626C8.47516 12.5612 8.14178 12.5581 7.88135 12.7283C7.88135 12.7283 7.96779 13.1821 8.55635 13.3369C9.11266 13.4816 9.31741 13.4442 9.54372 13.3685Z" fill="white"/>
<path fill-rule="evenodd" clip-rule="evenodd" d="M9.33157 12.4848L9.4092 12.4355C9.42007 12.4288 9.55188 12.3483 9.77651 12.3306C9.58732 12.1909 9.13395 11.8145 8.81576 11.6338C8.46513 11.4398 7.88557 11.1823 7.59082 11.1438C7.59082 11.1438 7.86757 11.864 8.18857 12.1551C8.52438 12.4573 8.75782 12.5689 9.33157 12.4848Z" fill="white"/>
<path fill-rule="evenodd" clip-rule="evenodd" d="M9.92883 12.1531C9.78596 11.9713 9.67514 11.7202 9.5932 11.4232C9.52683 11.1823 9.37364 10.5836 9.28327 10.429C9.19308 10.2733 8.86645 9.73131 8.2297 9.56201C8.2297 9.56201 8.05945 10.2701 8.38027 10.8282C8.65589 11.311 9.22364 11.8193 9.92883 12.1531Z" fill="white"/>
<path fill-rule="evenodd" clip-rule="evenodd" d="M13.4649 15.4403C13.5433 15.5203 13.6041 15.5633 13.7462 15.6344C13.7462 15.6344 13.9496 16.0191 13.7029 16.4848C13.4557 16.9499 13.2486 17.424 13.1494 17.6883C13.1494 17.6883 13.0172 17.6684 12.8698 16.9406C12.7708 16.4474 12.645 16.3239 12.5132 16.1546C12.6564 16.2264 12.7719 16.2476 12.7821 16.2497L12.8805 16.2662L12.9251 16.1791C13.0131 16.013 13.0402 15.8515 13.0402 15.7164C13.0402 15.6723 13.0369 15.6309 13.0318 15.5929C13.2607 15.5987 13.3826 15.4839 13.4301 15.4257C13.4332 15.4195 13.4377 15.416 13.4398 15.4108L13.4649 15.4403Z" fill="white"/>
<path fill-rule="evenodd" clip-rule="evenodd" d="M8.05071 9.85851C8.04846 9.92698 8.0464 10.0012 8.04847 10.0806L8.06159 10.2546C7.68453 9.77795 7.23471 9.20437 6.80515 8.67377C6.5104 8.31097 6.26121 8.09125 5.9854 7.91432C6.2164 8.5867 6.63528 9.12344 6.93059 9.39116C7.22478 9.6587 7.65415 10.1099 8.07059 10.3854L8.11071 10.522C8.14334 10.6466 8.19321 10.7753 8.26296 10.8957C8.35915 11.0656 8.48759 11.2332 8.63815 11.3953C8.51721 11.3355 8.37884 11.2712 8.23803 11.2124L8.10903 11.1595C6.96115 10.5553 5.82509 9.30446 5.36365 8.43451C4.90165 7.56437 5.09478 6.55414 5.21609 6.01367C5.73678 6.45181 6.4864 7.31358 6.81303 7.78353C7.2154 8.3586 7.73159 9.17423 8.04921 9.83823L8.05071 9.85851Z" fill="white"/>
<path fill-rule="evenodd" clip-rule="evenodd" d="M24.1391 13.5704C24.0697 13.5295 23.9862 13.489 23.8833 13.451C24.5819 13.2413 25.5432 12.9048 26.9883 12.8119C28.0484 12.7429 28.8151 12.8032 29.2102 12.9048C29.2102 12.9048 28.2451 13.5792 27.1407 13.817C26.0369 14.0558 25.1405 13.9053 24.4854 13.9111C24.4426 13.8471 24.3929 13.7744 24.3162 13.7024C25.0831 13.7074 26.3587 13.5102 26.8137 13.3591C26.8137 13.3591 25.7019 13.1297 24.1391 13.5704Z" fill="white"/>
<path fill-rule="evenodd" clip-rule="evenodd" d="M24.1427 12.7543C24.139 12.774 24.057 13.1655 23.5995 13.3815C24.5818 12.9552 26.5182 12.7097 27.5577 12.2804C28.9639 11.7004 29.221 10.9768 29.221 10.9768C28.0041 10.9444 27.0203 11.239 26.2615 11.4704C25.3748 11.7398 24.0218 12.2414 23.5483 12.4507C23.7265 12.4574 23.9202 12.5087 24.0852 12.6172C24.7455 12.3655 25.0527 12.2591 25.653 12.0924C26.1263 11.9604 26.476 11.9351 26.772 11.9071C26.772 11.9071 26.356 12.18 25.6695 12.3971C24.9885 12.6137 24.6947 12.6494 24.1427 12.7543Z" fill="white"/>
<path fill-rule="evenodd" clip-rule="evenodd" d="M24.2173 11.6901C24.1789 11.7591 24.0617 11.9237 24.0161 11.989C25.5694 11.731 27.278 10.5656 27.8055 9.84281C28.3352 9.11983 28.185 8.0415 28.185 8.0415C27.6716 8.14327 26.5586 9.09639 26.2702 9.38346C25.982 9.66904 25.1115 10.5105 24.5079 10.9794L24.32 11.5219C24.8362 11.1092 25.4492 10.6497 25.832 10.3641C26.1255 10.1446 26.5648 9.83201 27.0028 9.68448C27.0028 9.68448 26.6 10.2052 26.2744 10.4597C25.9005 10.7541 25.5184 11.0095 25.2035 11.1803C24.9251 11.3323 24.7826 11.4181 24.2173 11.6901Z" fill="white"/>
<path fill-rule="evenodd" clip-rule="evenodd" d="M23.8398 9.85851C23.8419 9.92698 23.8438 10.0012 23.8406 10.0806L23.8273 10.2546C24.2038 9.77795 24.6555 9.20437 25.0845 8.67377C25.3794 8.31097 25.6292 8.09125 25.9052 7.91432C25.6717 8.5867 25.2553 9.12344 24.959 9.39116C24.6641 9.6587 24.2373 10.1099 23.8198 10.3854L23.7789 10.522C23.7465 10.6466 23.6972 10.7753 23.6276 10.8957C23.5299 11.0656 23.4037 11.2332 23.2515 11.3953C23.3726 11.3355 23.511 11.2712 23.6512 11.2124L23.7804 11.1595C24.9285 10.5553 26.0658 9.30446 26.526 8.43451C26.9852 7.56437 26.7963 6.55414 26.6737 6.01367C26.1527 6.45181 25.4028 7.31358 25.0757 7.78353C24.6735 8.3586 24.1592 9.17423 23.8398 9.83823V9.85851Z" fill="white"/>
<path fill-rule="evenodd" clip-rule="evenodd" d="M9.5158 16.7315C9.04311 17.2004 8.04655 18.2532 8.13936 19.3948C8.13936 19.3948 9.06617 19.1077 9.44699 18.4338C9.82911 17.7611 10.0646 17.339 10.2242 17.1873C10.1212 17.2004 10.0183 17.2004 9.91855 17.1838L9.83511 17.1708C9.59961 17.5959 9.13405 18.29 8.71499 18.5324C8.71499 18.5324 8.60792 17.9697 9.83999 16.8286C9.85686 16.7819 9.88217 16.7278 9.91705 16.6692C9.80455 16.7103 9.67555 16.733 9.53174 16.7306" fill="white"/>
<path fill-rule="evenodd" clip-rule="evenodd" d="M22.2085 10.4093C21.9734 10.9248 21.5869 11.454 20.5358 12.1682C20.2996 12.328 20.0399 12.6605 20.2375 13.1282C20.4351 13.5953 20.8082 14.2593 20.5842 14.5183C20.3618 14.7769 19.5687 14.9114 18.9226 14.6543C18.9226 14.6543 18.7877 15.0588 18.5522 15.318C18.5522 15.318 18.6625 15.541 19.0354 15.4285C19.0354 15.4285 18.8993 15.7607 19.0847 16.118C19.0847 16.118 19.5186 16.0443 19.7035 15.6497C19.7035 15.6497 19.8773 15.957 20.2259 16.0681C20.2259 16.0681 20.512 15.9217 20.4488 15.3537C20.4488 15.3537 20.6584 15.8593 21.3047 15.9444C21.3047 15.9444 21.6766 15.4778 21.1917 14.8502C21.1917 14.8502 21.5393 15.158 22.1716 15.01C22.1716 15.01 22.2707 14.6908 21.6991 14.2474C21.6991 14.2474 22.3459 14.2225 22.5942 13.6815C22.5942 13.6815 22.3208 13.3487 21.652 13.4231C21.652 13.4231 22.2707 13.2869 22.4071 12.5492C22.4071 12.5492 21.9608 12.2662 21.2552 12.7211C21.2552 12.7211 21.3781 12.488 21.6752 12.2543C21.9734 12.0203 22.3337 11.3682 22.2085 10.4093Z" fill="white"/>
<path fill-rule="evenodd" clip-rule="evenodd" d="M19.6139 17.83C19.7076 17.7059 19.7768 17.5824 19.8308 17.4635C19.7198 18.3584 19.6795 18.9617 19.192 19.5416C19.192 19.5416 18.8989 19.1539 19.0868 18.2116C19.17 18.1882 19.2608 18.1493 19.3506 18.0901C19.3506 18.0901 19.239 18.4728 19.3079 18.8574C19.3079 18.8574 19.4856 18.7312 19.6139 17.83Z" fill="white"/>
<path fill-rule="evenodd" clip-rule="evenodd" d="M20.4564 17.7371C20.5149 17.6643 20.6282 17.5097 20.6858 17.4001C20.7261 17.9203 20.8639 19.2872 20.4021 19.7161C20.4021 19.7161 20.0856 19.4859 19.9736 17.49C20.0413 17.602 20.1587 17.7211 20.2148 17.7864C20.2148 17.7864 20.1392 18.4191 20.3679 18.8662C20.3679 18.8662 20.5971 18.6934 20.4564 17.7371Z" fill="white"/>
<path fill-rule="evenodd" clip-rule="evenodd" d="M21.5582 18.7821C21.1684 18.3211 21.0527 16.9391 21.0527 16.9391C20.9996 16.9032 20.9441 16.8644 20.8924 16.8212C20.8691 16.8035 20.8483 16.7855 20.8277 16.7657C20.8277 16.8156 20.8258 16.8684 20.8213 16.9204C20.8757 17.7525 20.9441 18.6093 21.2047 19.0359C21.4609 19.4543 21.9317 19.6712 21.9317 19.6712C22.3745 18.8906 21.84 17.8444 21.3928 17.1166C21.3371 17.096 21.2822 17.0699 21.2265 17.0415C21.3825 17.6015 21.6814 18.2681 21.5582 18.7821Z" fill="white"/>
<path fill-rule="evenodd" clip-rule="evenodd" d="M22.6527 16.3837C22.6569 16.4722 22.6392 16.5461 22.6272 16.5824C22.6229 16.5969 22.6158 16.6183 22.6077 16.6395C22.9764 16.9999 23.2518 17.345 23.8 18.1009C24.3494 18.8573 25.2189 18.8875 25.2189 18.8875C25.1358 18.2748 24.9674 17.7909 24.5019 17.2687C24.0367 16.747 23.4423 16.27 23.0041 15.9548C22.8914 16.0047 22.7453 16.0374 22.5601 16.0155C22.5449 16.0146 22.5303 16.0129 22.5166 16.0093C22.5745 16.0862 22.6098 16.1625 22.6297 16.2326C22.9606 16.4211 23.924 16.9042 24.3119 17.6847C24.3119 17.6847 23.7031 17.494 22.6527 16.3837Z" fill="white"/>
<path fill-rule="evenodd" clip-rule="evenodd" d="M23.3432 15.6215L23.3067 15.5566C23.2943 15.5348 23.2821 15.5157 23.2682 15.4974C23.6252 15.6349 24.8991 16.1116 25.3105 16.3229C25.722 16.5358 26.3172 17.0159 26.6404 17.9936C26.6404 17.9936 25.7828 18.0693 25.0733 17.4879C24.3647 16.9043 23.5371 16.0924 23.1855 15.8344C23.2208 15.8022 23.2472 15.7706 23.2682 15.7439C23.2682 15.7439 24.2275 16.5867 25.2409 16.9516C25.2409 16.9516 25.0249 16.5601 24.6252 16.2768C24.1354 15.933 23.7707 15.8173 23.3432 15.6215Z" fill="white"/>
<path fill-rule="evenodd" clip-rule="evenodd" d="M24.0704 15.0437C24.0575 15.01 24.0436 14.9782 24.0284 14.9486C24.4488 15.0327 25.4993 15.1579 25.9692 15.2997C26.4363 15.4435 27.2856 15.7836 27.7891 16.7373C27.7891 16.7373 27.0503 16.9629 25.655 16.3125C24.2601 15.661 23.825 15.5255 23.5591 15.4554C23.7696 15.4403 23.9204 15.3693 23.999 15.3214C24.5551 15.5676 25.2993 15.8578 26.0371 15.8775C26.0371 15.8775 25.6722 15.6227 25.2903 15.4617C24.874 15.2904 24.4182 15.1335 24.0704 15.0437Z" fill="white"/>
<path fill-rule="evenodd" clip-rule="evenodd" d="M24.0365 14.359C23.8993 14.4223 23.795 14.4539 23.6167 14.4721C23.7138 14.535 23.8066 14.6139 23.8897 14.7209C24.3809 14.8615 25.217 15.0147 26.6 15.1138C27.9817 15.2115 28.7182 14.9607 28.7182 14.9607C28.2373 14.6684 27.4704 14.3719 26.9512 14.2723C26.4307 14.1726 25.0672 14.1841 24.4689 14.103C24.4623 14.1099 24.3888 14.168 24.2724 14.2387C24.776 14.2831 25.8466 14.3324 26.3996 14.6117C26.3996 14.6117 25.3796 14.7458 24.0365 14.359Z" fill="white"/>
<path fill-rule="evenodd" clip-rule="evenodd" d="M19.8359 16.0041C19.7888 15.9626 19.7485 15.9226 19.7125 15.8867C19.6422 15.9756 19.4025 16.2724 19.2854 16.569C19.1954 16.8218 19.0995 17.166 19.0534 17.3632C19.0041 17.5589 18.8629 17.9695 18.7769 18.1098C18.7769 18.1098 19.156 18.157 19.4365 17.832C19.7117 17.5137 19.8045 17.193 19.8492 16.8644C19.8812 16.6069 19.872 16.2497 19.8359 16.0041Z" fill="white"/>
<path fill-rule="evenodd" clip-rule="evenodd" d="M20.4313 16.053C20.3617 16.1466 20.2948 16.1843 20.2878 16.1886L20.2374 16.2145L20.1828 16.1962C20.1373 16.1823 20.0943 16.1652 20.0531 16.1449C19.9976 16.2965 19.9766 16.3696 19.962 16.4984C19.943 16.6703 19.9104 16.9406 19.9738 17.1614C20.0536 17.4303 20.2149 17.5949 20.3055 17.6976C20.3055 17.6976 20.5535 17.4271 20.6248 17.205C20.6979 16.9713 20.7247 16.6999 20.6347 16.4215C20.5839 16.2705 20.5023 16.1324 20.4313 16.053Z" fill="white"/>
<path fill-rule="evenodd" clip-rule="evenodd" d="M21.2865 16.0789C21.0325 16.0456 20.8418 15.9548 20.6963 15.8499C20.6652 15.9382 20.6143 16.0571 20.652 16.2257C20.6886 16.3946 20.8063 16.5808 20.9779 16.7159C21.2312 16.9178 21.5734 17.1083 21.951 17.0508C21.951 17.0508 22.0378 16.7687 21.2865 16.0789Z" fill="white"/>
<path fill-rule="evenodd" clip-rule="evenodd" d="M21.5707 15.6091C21.5407 15.8594 21.4199 16.0166 21.4102 16.029C21.4985 16.1334 21.8167 16.675 22.4836 16.5851C22.4836 16.5851 22.661 16.2155 22.2209 15.9217C21.919 15.7228 21.7771 15.6822 21.5707 15.6091Z" fill="white"/>
<path fill-rule="evenodd" clip-rule="evenodd" d="M21.5127 15.1456C21.6899 15.1896 21.9211 15.2073 22.2031 15.1413L22.2798 15.1236L22.3019 15.0499C22.6437 15.3256 23.0489 15.3723 23.1882 15.6226C23.1882 15.6226 23.0178 15.9335 22.576 15.8827C22.1333 15.8298 21.7994 15.6241 21.5629 15.3294C21.5545 15.2856 21.5354 15.2021 21.5127 15.1456Z" fill="white"/>
<path fill-rule="evenodd" clip-rule="evenodd" d="M22.28 14.7576C22.2164 14.6647 22.1718 14.5213 22.0405 14.376C22.3353 14.3257 22.5982 14.3215 22.9407 14.3879C23.3489 14.4632 23.7651 14.5589 23.9744 15.176C23.9744 15.176 23.711 15.3968 23.2349 15.3012C22.8322 15.2182 22.4806 15.0463 22.28 14.7576Z" fill="white"/>
<path fill-rule="evenodd" clip-rule="evenodd" d="M22.4526 14.0896C22.5554 14.0006 22.6497 13.8866 22.7179 13.7376L22.7513 13.6602C23.1061 13.5175 23.4749 13.4442 23.8343 13.5766C24.1966 13.7115 24.2909 13.8646 24.3841 13.9992C24.3841 13.9992 23.9836 14.3314 23.5225 14.3428C23.0628 14.3579 22.6375 14.2256 22.4526 14.0896Z" fill="white"/>
<path fill-rule="evenodd" clip-rule="evenodd" d="M22.3457 13.3685C22.2844 13.3456 22.2163 13.3244 22.1387 13.3088C22.296 13.1722 22.4501 12.9629 22.5249 12.6515C22.6892 12.6894 23.0749 12.6894 23.2449 12.626C23.4146 12.5612 23.7484 12.5581 24.0084 12.7283C24.0084 12.7283 23.9237 13.1821 23.3321 13.3369C22.7752 13.4816 22.571 13.4442 22.3457 13.3685Z" fill="white"/>
<path fill-rule="evenodd" clip-rule="evenodd" d="M22.5576 12.4848L22.4807 12.4355C22.4695 12.4288 22.3376 12.3483 22.1113 12.3306C22.3026 12.1909 22.7531 11.8145 23.0751 11.6338C23.4248 11.4398 24.0036 11.1823 24.3008 11.1438C24.3008 11.1438 24.0231 11.864 23.7 12.1551C23.3661 12.4573 23.1317 12.5689 22.5576 12.4848Z" fill="white"/>
<path fill-rule="evenodd" clip-rule="evenodd" d="M21.9604 12.1531C22.1033 11.9713 22.2139 11.7202 22.2961 11.4232C22.3639 11.1823 22.5164 10.5836 22.6073 10.429C22.6988 10.2733 23.0241 9.73131 23.6613 9.56201C23.6613 9.56201 23.831 10.2701 23.51 10.8282C23.2326 11.311 22.6671 11.8193 21.9604 12.1531Z" fill="white"/>
<path fill-rule="evenodd" clip-rule="evenodd" d="M18.4271 15.4403C18.3448 15.5203 18.2844 15.5633 18.1438 15.6344C18.1438 15.6344 17.9394 16.0191 18.1867 16.4848C18.4323 16.9499 18.6401 17.424 18.7408 17.6883C18.7408 17.6883 18.8732 17.6684 19.0196 16.9406C19.1195 16.4474 19.2459 16.3239 19.376 16.1546C19.2326 16.2264 19.1188 16.2476 19.1081 16.2497L19.0102 16.2662L18.9647 16.1791C18.8756 16.013 18.8518 15.8515 18.8518 15.7164C18.8518 15.6723 18.8537 15.6309 18.8583 15.5929C18.629 15.5987 18.5066 15.4839 18.4612 15.4257C18.4558 15.4195 18.452 15.416 18.4496 15.4108L18.4271 15.4403Z" fill="white"/>
<path fill-rule="evenodd" clip-rule="evenodd" d="M22.3744 16.7315C22.8467 17.2004 23.844 18.2532 23.7493 19.3948C23.7493 19.3948 22.8229 19.1077 22.443 18.4338C22.0607 17.7611 21.8265 17.339 21.666 17.1873C21.7673 17.2004 21.8702 17.2004 21.9713 17.1838L22.0564 17.1708C22.2906 17.5959 22.7561 18.29 23.1756 18.5324C23.1756 18.5324 23.2819 17.9697 22.0504 16.8286C22.0331 16.7819 22.0071 16.7278 21.9731 16.6692C22.0853 16.7103 22.2141 16.733 22.3577 16.7306" fill="white"/>
<path fill-rule="evenodd" clip-rule="evenodd" d="M15.2217 7.62352C15.2217 7.53943 15.5461 7.46985 15.9451 7.46985C16.345 7.46985 16.6684 7.53943 16.6684 7.62352C16.6684 7.70706 16.345 7.77608 15.9451 7.77608C15.5461 7.77608 15.2217 7.70706 15.2217 7.62352Z" fill="white"/>
<path fill-rule="evenodd" clip-rule="evenodd" d="M16.0859 7.95987C16.0859 8.03782 16.0236 8.10107 15.9447 8.10107C15.8663 8.10107 15.8013 8.03782 15.8013 7.95987C15.8013 7.8821 15.8663 7.81921 15.9447 7.81921C16.0236 7.81921 16.0859 7.8821 16.0859 7.95987Z" fill="white"/>
<path fill-rule="evenodd" clip-rule="evenodd" d="M15.1698 7.47406C14.9304 6.9055 14.7686 6.48466 14.7746 6.34438C14.7787 6.25973 14.8811 6.19648 14.978 6.16727C15.0727 6.13732 15.1576 6.13155 15.2216 6.17992C15.3474 6.27536 15.4627 7.04373 15.5064 7.36299C15.3851 7.38569 15.3114 7.40132 15.1698 7.47406Z" fill="white"/>
<path fill-rule="evenodd" clip-rule="evenodd" d="M15.6095 7.35093C15.6698 7.34312 15.7327 7.34051 15.796 7.33791C15.7583 7.03279 15.6511 6.52395 15.5894 6.32451C15.5264 6.12358 15.4465 5.97939 15.314 5.94312C15.314 5.94312 15.4169 6.22274 15.4739 6.51093C15.5298 6.80023 15.5725 7.07577 15.6095 7.35093Z" fill="white"/>
<path fill-rule="evenodd" clip-rule="evenodd" d="M14.8479 8.37C15.1134 8.30786 15.3851 8.02638 15.3851 8.02638C14.9563 8.08759 14.8479 8.37 14.8479 8.37ZM15.2454 8.34452C14.8753 8.55791 14.4609 8.52572 14.4609 8.52572C14.5412 8.37986 14.6168 8.24498 14.8479 8.08145C15.0793 7.91679 15.4571 7.87586 15.6053 7.89614C15.5723 8.00572 15.4217 8.24182 15.2454 8.34452Z" fill="white"/>
<path fill-rule="evenodd" clip-rule="evenodd" d="M13.8637 8.94785V8.91827C13.4999 8.96441 13.0715 8.94581 13.0715 8.94581C13.0931 9.07976 13.1497 9.18153 13.2455 9.24367C13.2687 8.95102 13.8637 8.94785 13.8637 8.94785ZM12.6567 8.56106C12.6567 8.56106 13.1167 8.73036 13.5774 8.70897C14.0362 8.68571 14.8844 8.67622 15.1574 8.54395C15.1574 8.54395 15.1132 8.71529 14.8944 8.8139C14.8944 8.8139 15.0097 8.8139 15.122 8.91213C15.122 8.91213 15.0558 9.05371 14.8604 9.1285C14.8604 9.1285 15.2111 9.48943 15.587 9.46339C15.587 9.46339 15.4141 9.67715 15.0296 9.59474C14.6452 9.51269 14.5222 9.29929 14.4571 9.21725C14.4571 9.21725 14.507 9.42134 14.4832 9.50376C14.4832 9.50376 14.3146 9.49353 14.1832 9.32943C14.1832 9.32943 14.2786 9.49353 14.2985 9.63213C14.2985 9.63213 14.1926 9.64404 14.0026 9.53297C14.0026 9.53297 14.0424 9.63511 14.0497 9.7525C14.0497 9.7525 13.6057 9.61185 13.3906 9.41148C13.3906 9.41148 13.3878 9.54953 13.3985 9.62785C13.3985 9.62785 12.7096 9.55883 12.6567 8.56106Z" fill="white"/>
<path fill-rule="evenodd" clip-rule="evenodd" d="M12.5502 8.6306C12.5674 8.8466 12.6231 9.05944 12.6992 9.21051C12.6992 9.21051 12.4283 9.00865 12.3623 8.83674C12.2946 8.66651 12.2787 8.54818 12.5502 8.6306Z" fill="white"/>
<path fill-rule="evenodd" clip-rule="evenodd" d="M12.0064 9.45092C12.0705 9.45092 12.1213 9.40162 12.1213 9.33929C12.1213 9.27696 12.0705 9.2271 12.0064 9.2271C11.9452 9.2271 11.8959 9.27696 11.8959 9.33929C11.8959 9.40162 11.9452 9.45092 12.0064 9.45092ZM12.6703 9.31957C12.8518 9.40162 13.0132 9.59622 13.0132 9.59622C12.7386 9.65855 12.6167 9.7365 12.6167 9.7365C12.0902 9.36831 11.6565 9.73855 11.6565 9.73855C11.3717 9.57966 11.3171 9.18822 11.4594 8.98171C11.6016 8.77389 11.9227 8.81036 12.075 8.84664C12.1716 9.14934 12.507 9.24627 12.6703 9.31957Z" fill="white"/>
<path fill-rule="evenodd" clip-rule="evenodd" d="M13.0731 9.66382C13.0731 9.66382 13.2643 9.91759 13.405 10.0292C13.405 10.0292 12.6966 10.0225 12.5181 10.6309C12.5181 10.6309 12.2725 10.2582 12.4517 10.0153C12.645 9.75368 12.8216 9.72149 13.0731 9.66382Z" fill="white"/>
<path fill-rule="evenodd" clip-rule="evenodd" d="M13.8506 9.81482C13.8506 9.81482 14.0795 9.88179 14.156 9.90151C14.156 9.90151 14.1581 9.77017 14.1538 9.70691C14.2226 9.72347 14.3081 9.74523 14.3818 9.75249C14.3818 9.75249 14.6096 10.2582 14.7883 10.4623C14.7883 10.4623 14.7986 10.5744 14.699 10.7447C14.699 10.7447 14.5695 10.4455 14.3375 10.2057C14.2066 10.0714 14.1226 10.0027 13.8506 9.81482Z" fill="white"/>
<path fill-rule="evenodd" clip-rule="evenodd" d="M13.2485 9.70679C13.3228 9.72651 13.6884 9.84018 13.8635 9.96688C14.0861 10.1237 14.2387 10.3047 14.2142 10.6158C14.2142 10.6158 14.036 10.3691 13.838 10.258C13.6818 10.1693 13.3983 9.92372 13.2485 9.70679Z" fill="white"/>
<path fill-rule="evenodd" clip-rule="evenodd" d="M13.254 7.41943C13.3213 7.41943 13.4516 7.45162 13.4516 7.5586C13.4516 7.66762 13.2835 7.92809 13.2373 8.04343H13.233C13.1884 7.92809 13.0176 7.66762 13.0176 7.5586C13.0176 7.45162 13.1498 7.41943 13.2169 7.41943H13.254Z" fill="white"/>
<path fill-rule="evenodd" clip-rule="evenodd" d="M13.1054 8.25997C13.0741 8.10834 13.0133 7.71486 12.9197 7.62816C12.8307 7.54462 12.6976 7.53681 12.6329 7.54034C12.5656 7.54462 12.4967 7.61216 12.5243 7.69979C12.5504 7.79076 12.8438 8.22611 12.8821 8.28118C12.9503 8.26927 12.9374 8.27393 13.1054 8.25997Z" fill="white"/>
<path fill-rule="evenodd" clip-rule="evenodd" d="M13.3657 8.25997C13.3987 8.10834 13.458 7.71486 13.5521 7.62816C13.6406 7.54462 13.7741 7.53681 13.839 7.54034C13.9059 7.54462 13.976 7.61216 13.9492 7.69979C13.9205 7.79076 13.6278 8.22611 13.5887 8.28118C13.5213 8.26927 13.5341 8.27393 13.3657 8.25997Z" fill="white"/>
<path fill-rule="evenodd" clip-rule="evenodd" d="M13.5545 6.89098H13.3254V6.64075H13.1413V6.89098H12.9106V7.04931H13.1413V7.34307H13.3254V7.04931H13.5545V6.89098Z" fill="white"/>
<path fill-rule="evenodd" clip-rule="evenodd" d="M10.7841 8.50976C10.7841 8.4599 10.7863 8.41208 10.7936 8.36427C10.8109 8.24185 10.8124 8.13804 10.7991 8.05078C10.6343 8.11404 10.5231 8.15311 10.2964 8.51646C10.2964 8.51646 10.6577 8.29543 10.7841 8.50976Z" fill="white"/>
<path fill-rule="evenodd" clip-rule="evenodd" d="M11.0992 9.08392C11.1039 8.99406 11.1641 8.70904 11.2395 8.50978C11.3315 8.26215 11.2779 7.90494 11.1664 7.68783C11.0593 7.47871 11.001 7.28187 11.0186 7.06494C11.0186 7.06494 10.8064 7.13601 10.6824 7.21136C10.6629 7.46308 10.8107 7.71499 10.8812 7.85769C10.9642 8.0268 10.947 8.24745 10.9288 8.38252C10.8967 8.61136 10.9438 8.8549 11.0992 9.08392Z" fill="white"/>
<path fill-rule="evenodd" clip-rule="evenodd" d="M11.123 7.16139C11.1143 7.13237 11.1143 7.05293 11.1301 7.0213C11.1301 7.0213 11.4678 6.69572 11.7509 6.64083C11.9292 6.60381 12.0391 6.68269 12.0927 6.72641C12.0927 6.72641 11.9937 6.71507 11.8424 6.83748C11.6905 6.95897 11.5025 7.10539 11.362 7.14223C11.2207 7.17907 11.1914 7.16828 11.123 7.16139Z" fill="white"/>
<path fill-rule="evenodd" clip-rule="evenodd" d="M12.1211 6.75085C12.2466 6.87644 12.3546 7.01002 12.3517 7.12518C12.3501 7.24462 12.2098 7.54472 12.1371 7.65876C12.0637 7.77262 11.9559 7.92258 11.9681 8.10416C11.9749 8.19458 12.0388 8.2876 12.114 8.36481C12.114 8.36481 11.7011 8.26788 11.6501 8.01486C11.6062 7.78862 11.7039 7.63085 11.7705 7.50565C11.8314 7.38732 12.0214 7.11327 12.0703 6.99904C12.114 6.89523 12.1371 6.8089 12.1211 6.75085Z" fill="white"/>
<path fill-rule="evenodd" clip-rule="evenodd" d="M14.5312 9.59888C14.6128 9.88911 14.7534 10.1611 14.8918 10.3745C15.0161 10.5702 15.0951 10.8858 15.0834 10.9933C15.0834 10.9933 15.2696 10.5853 15.1755 10.2971C15.0999 10.0733 14.9002 9.73897 14.5312 9.59888Z" fill="white"/>
<path fill-rule="evenodd" clip-rule="evenodd" d="M14.9956 9.69385C14.9956 9.69385 15.2791 9.69961 15.4111 9.78575C15.5808 9.89682 15.7424 10.1404 15.8052 10.4321C15.8052 10.4321 15.5191 10.3828 15.3785 10.2432C15.2364 10.103 15.062 9.89366 14.9956 9.69385Z" fill="white"/>
<path fill-rule="evenodd" clip-rule="evenodd" d="M13.5311 10.2015C13.4767 10.2056 13.3314 10.2389 13.2607 10.2601C13.2607 10.2601 13.5013 10.3297 13.6221 10.4289C13.7252 10.5124 13.8137 10.6419 13.854 10.8609C13.9134 11.1666 14.0938 11.4953 14.1478 11.5945L14.1699 11.5904C14.1373 11.38 14.2684 10.9435 14.304 10.88C14.304 10.88 14.112 10.7617 14.0239 10.6382C13.9592 10.5472 13.8461 10.3958 13.5311 10.2015Z" fill="white"/>
<path fill-rule="evenodd" clip-rule="evenodd" d="M14.7852 10.8578C14.8548 11.0182 15.0423 11.3026 14.9547 11.5986C14.8675 11.8956 14.6716 12.0228 14.5514 12.2751C14.5514 12.2751 14.4573 11.8202 14.4768 11.4704C14.4983 11.1194 14.6272 10.9845 14.7852 10.8578Z" fill="white"/>
<path fill-rule="evenodd" clip-rule="evenodd" d="M15.3282 10.8693C15.3282 10.8693 15.6096 11.4107 15.6606 11.6226C15.7096 11.8328 15.664 11.9729 15.5676 12.1013C15.4741 12.2278 15.3113 12.3654 15.1611 12.6328C15.1611 12.6328 14.9875 12.4049 14.9671 12.286C14.947 12.1671 14.9794 11.8827 15.0173 11.7643C15.0539 11.6434 15.2026 11.2601 15.3282 10.8693Z" fill="white"/>
<path fill-rule="evenodd" clip-rule="evenodd" d="M15.4721 12.597C15.411 12.6635 15.0821 13.0555 15.0381 13.1697C14.9936 13.2834 14.9177 13.4997 15.019 13.6508C15.1221 13.8015 15.3568 14.0402 15.5597 14.142C15.5597 14.142 15.3384 13.7978 15.3619 13.5159C15.3746 13.3353 15.516 13.1743 15.543 13.0642C15.5698 12.9552 15.5529 12.7693 15.4721 12.597Z" fill="white"/>
<path fill-rule="evenodd" clip-rule="evenodd" d="M14.8285 12.381C14.8789 12.4506 14.9669 12.6193 14.9793 12.7834C14.9914 12.9453 14.9646 13.0755 14.8752 13.3129C14.7638 13.6124 14.5887 13.9458 14.5075 14.0963C14.5075 14.0963 14.3536 13.8772 14.2681 13.6814C14.2681 13.6814 14.5092 13.3529 14.6129 13.1213C14.7314 12.8481 14.7809 12.5959 14.8285 12.381Z" fill="white"/>
<path fill-rule="evenodd" clip-rule="evenodd" d="M14.7172 12.2544C14.7172 12.2544 14.6128 13.0254 14.1558 13.5969C13.8463 13.9841 13.5952 14.1191 13.4285 14.1191C13.1778 14.1191 12.9253 13.9121 12.8416 13.6737C12.7561 13.4375 12.7843 13.0683 12.9466 12.9376C12.9466 12.9376 13.0961 13.4001 13.418 13.4168C13.782 13.4375 14.2492 13.0326 14.7172 12.2544Z" fill="white"/>
<path fill-rule="evenodd" clip-rule="evenodd" d="M14.342 11.9325C14.3801 12.07 14.3921 12.2813 14.342 12.4808C14.3041 12.6328 14.2115 12.8296 14.0326 12.9411C13.8781 13.0367 13.5123 13.0596 13.3745 12.718C13.3745 12.718 14.0405 12.7678 14.342 11.9325Z" fill="white"/>
<path fill-rule="evenodd" clip-rule="evenodd" d="M15.4304 15.0391C15.521 15.2711 15.8458 15.5639 15.845 15.7451C15.8399 16.2238 15.6277 16.517 15.5782 16.6748C15.5782 16.6748 15.1914 16.3706 15.1224 16.0218C15.0871 15.8426 15.1282 15.3049 15.4304 15.0391Z" fill="white"/>
<path fill-rule="evenodd" clip-rule="evenodd" d="M14.9974 15.3781C15.042 15.2534 15.1851 14.9145 15.3493 14.7965C15.3493 14.7965 15.5595 14.1824 14.8828 13.8036C14.8828 13.8036 14.6044 14.1695 14.5312 14.5141C14.457 14.8611 14.8251 15.0676 14.9974 15.3781Z" fill="white"/>
<path fill-rule="evenodd" clip-rule="evenodd" d="M14.1512 13.8253C14.0424 13.957 13.8883 14.1368 13.7692 14.1929C13.7692 14.1929 13.7287 14.4676 13.7507 14.6502C13.7868 14.9213 13.9607 15.1974 14.0362 15.3998C14.0362 15.3998 14.3323 15.0162 14.3662 14.7909C14.3998 14.565 14.3957 14.3797 14.4067 14.2713C14.4067 14.2713 14.2417 14.0054 14.1512 13.8253Z" fill="white"/>
<path fill-rule="evenodd" clip-rule="evenodd" d="M13.3694 15.1434C13.2856 15.0157 13.0158 14.5516 13.0122 14.2131C13.0122 14.2131 13.3456 14.3891 13.625 14.2593C13.625 14.2593 13.661 14.7 13.6083 14.8485C13.5627 14.9694 13.5059 15.0412 13.3694 15.1434Z" fill="white"/>
<path fill-rule="evenodd" clip-rule="evenodd" d="M13.4473 15.2368C13.5013 15.1896 13.6346 15.0681 13.6903 15.0043C13.6903 15.0043 13.9113 15.4067 13.949 15.5245C13.949 15.5245 13.838 15.5531 13.716 15.4653C13.595 15.3775 13.5669 15.3537 13.4473 15.2368Z" fill="white"/>
<path fill-rule="evenodd" clip-rule="evenodd" d="M14.4726 15.0006C14.4464 15.1024 14.0881 15.5956 14.0264 15.6562C14.0264 15.6562 14.0528 15.8348 14.1865 16.0925C14.3187 16.3483 14.5032 16.529 14.6018 16.6198C14.6018 16.6198 14.824 16.2373 14.8894 16.0702C14.9626 15.8774 14.9545 15.6881 14.9234 15.617C14.8476 15.4503 14.5885 15.2094 14.4726 15.0006Z" fill="white"/>
<path fill-rule="evenodd" clip-rule="evenodd" d="M15.0112 16.2924C15.0903 16.4505 15.329 16.7111 15.3662 16.9173C15.396 17.0788 15.3699 17.2111 15.3253 17.3244C15.2803 17.4334 15.138 17.6514 15.0423 17.817C15.0423 17.817 14.715 17.5108 14.6435 17.2922C14.5888 17.1277 14.6094 16.894 14.6876 16.7487C14.7656 16.6021 14.9364 16.4438 15.0112 16.2924Z" fill="white"/>
<path fill-rule="evenodd" clip-rule="evenodd" d="M14.0863 16.2477C14.1702 16.4321 14.3728 16.6148 14.4192 16.7751C14.473 16.9653 14.491 17.0851 14.3985 17.3067C14.316 17.4998 14.2167 17.6136 14.1838 17.732C14.1838 17.732 13.9182 17.3904 13.8733 17.2486C13.8297 17.1068 13.8152 16.8734 13.8702 16.7258C13.9234 16.5759 14.0203 16.3839 14.0863 16.2477Z" fill="white"/>
<path fill-rule="evenodd" clip-rule="evenodd" d="M15.3941 17.547C15.3941 17.547 14.9365 18.0947 14.947 18.385C14.9608 18.7463 15.2027 18.9877 15.2365 19.2099C15.2365 19.2099 15.4755 18.9409 15.5678 18.7602C15.6701 18.5578 15.7476 18.3849 15.7226 18.155C15.6936 17.9245 15.6328 17.7775 15.3941 17.547Z" fill="white"/>
<path fill-rule="evenodd" clip-rule="evenodd" d="M14.5512 17.493C14.6236 17.5978 14.827 17.9561 14.7698 18.1678C14.7124 18.3823 14.4872 18.6824 14.4111 18.8101C14.4111 18.8101 14.2309 18.4426 14.1895 18.2733C14.1496 18.1061 14.1865 17.8303 14.5512 17.493Z" fill="white"/>
<path fill-rule="evenodd" clip-rule="evenodd" d="M15.9493 7.03064C15.9804 6.82468 16.221 6.38227 16.221 6.18952C16.221 6.03752 16.0972 5.91492 15.945 5.91492C15.7907 5.91492 15.6675 6.03752 15.6675 6.18952C15.6675 6.38227 15.9101 6.82468 15.9401 7.03064H15.9493Z" fill="white"/>
<path fill-rule="evenodd" clip-rule="evenodd" d="M16.7201 7.47406C16.9614 6.9055 17.1213 6.48466 17.1151 6.34438C17.1114 6.25973 17.0094 6.19648 16.9143 6.16727C16.8174 6.13732 16.7311 6.13155 16.6683 6.17992C16.5434 6.27536 16.4261 7.04373 16.3833 7.36299C16.5063 7.38569 16.5798 7.40132 16.7201 7.47406Z" fill="white"/>
<path fill-rule="evenodd" clip-rule="evenodd" d="M16.2805 7.35093C16.2196 7.34312 16.1568 7.34051 16.0947 7.33791C16.1332 7.03279 16.2385 6.52395 16.3014 6.32451C16.363 6.12358 16.4425 5.97939 16.5766 5.94312C16.5766 5.94312 16.4729 6.22274 16.4165 6.51093C16.3608 6.80023 16.3173 7.07577 16.2805 7.35093Z" fill="white"/>
<path fill-rule="evenodd" clip-rule="evenodd" d="M16.5065 8.02638C16.5065 8.02638 16.7765 8.30786 17.0435 8.37C17.0435 8.37 16.934 8.08758 16.5065 8.02638ZM16.2847 7.89614C16.4341 7.87586 16.8114 7.91679 17.0435 8.08145C17.2752 8.24498 17.35 8.37986 17.4294 8.52591C17.4294 8.52591 17.015 8.55791 16.645 8.34451C16.4699 8.24182 16.3188 8.00572 16.2847 7.89614Z" fill="white"/>
<path fill-rule="evenodd" clip-rule="evenodd" d="M18.6443 9.24367C18.7408 9.18134 18.7958 9.07976 18.8194 8.94562C18.8194 8.94562 18.3898 8.96441 18.0244 8.91827V8.94785C18.0244 8.94785 18.6212 8.95083 18.6443 9.24367ZM18.4922 9.62785C18.5029 9.54953 18.499 9.41129 18.499 9.41129C18.2835 9.61185 17.8408 9.7525 17.8408 9.7525C17.8474 9.63511 17.8853 9.53297 17.8853 9.53297C17.6974 9.64404 17.5918 9.63194 17.5918 9.63194C17.6113 9.49334 17.7077 9.32925 17.7077 9.32925C17.5751 9.49334 17.4062 9.50376 17.4062 9.50376C17.383 9.42134 17.433 9.21725 17.433 9.21725C17.3678 9.29929 17.2455 9.51269 16.8604 9.59474C16.4749 9.67715 16.3037 9.46339 16.3037 9.46339C16.6789 9.48925 17.0291 9.1285 17.0291 9.1285C16.8343 9.05371 16.7683 8.91195 16.7683 8.91195C16.8818 8.8139 16.9963 8.8139 16.9963 8.8139C16.7766 8.71529 16.7312 8.54395 16.7312 8.54395C17.0065 8.67622 17.8534 8.68571 18.3141 8.70897C18.7738 8.73036 19.2319 8.56106 19.2319 8.56106C19.18 9.55883 18.4922 9.62785 18.4922 9.62785Z" fill="white"/>
<path fill-rule="evenodd" clip-rule="evenodd" d="M19.3396 8.6306C19.3227 8.8466 19.2663 9.05944 19.1909 9.21051C19.1909 9.21051 19.4622 9.00865 19.5271 8.83674C19.5935 8.66651 19.6105 8.54818 19.3396 8.6306Z" fill="white"/>
<path fill-rule="evenodd" clip-rule="evenodd" d="M19.9954 9.33929C19.9954 9.27696 19.9435 9.2271 19.8818 9.2271C19.8203 9.2271 19.7689 9.27696 19.7689 9.33929C19.7689 9.40161 19.8203 9.45092 19.8818 9.45092C19.9435 9.45092 19.9954 9.40161 19.9954 9.33929ZM19.8152 8.84664C19.968 8.81036 20.2889 8.77389 20.4306 8.98171C20.5744 9.18822 20.5184 9.57966 20.233 9.73854C20.233 9.73854 19.7984 9.36831 19.2734 9.7365C19.2734 9.7365 19.1502 9.65854 18.8755 9.59622C18.8755 9.59622 19.0379 9.40161 19.2203 9.31957C19.3819 9.24627 19.7189 9.14934 19.8152 8.84664Z" fill="white"/>
<path fill-rule="evenodd" clip-rule="evenodd" d="M18.8166 9.66382C18.8166 9.66382 18.6265 9.91759 18.4858 10.0292C18.4858 10.0292 19.1936 10.0225 19.3723 10.6309C19.3723 10.6309 19.618 10.2582 19.4381 10.0153C19.246 9.75368 19.069 9.72149 18.8166 9.66382Z" fill="white"/>
<path fill-rule="evenodd" clip-rule="evenodd" d="M18.0395 9.81482C18.0395 9.81482 17.8105 9.88179 17.7344 9.90151C17.7344 9.90151 17.7303 9.77017 17.7381 9.70691C17.6686 9.72347 17.5836 9.74523 17.5094 9.75249C17.5094 9.75249 17.2805 10.2582 17.1029 10.4623C17.1029 10.4623 17.092 10.5744 17.1914 10.7447C17.1914 10.7447 17.3208 10.4455 17.5518 10.2057C17.6836 10.0714 17.767 10.0027 18.0395 9.81482Z" fill="white"/>
<path fill-rule="evenodd" clip-rule="evenodd" d="M18.64 9.70679C18.5688 9.72651 18.2026 9.84018 18.0245 9.96688C17.8042 10.1237 17.6521 10.3047 17.6752 10.6158C17.6752 10.6158 17.8548 10.3691 18.0517 10.258C18.2092 10.1693 18.4923 9.92372 18.64 9.70679Z" fill="white"/>
<path fill-rule="evenodd" clip-rule="evenodd" d="M18.6354 7.41943C18.5684 7.41943 18.437 7.45162 18.437 7.5586C18.437 7.66762 18.6071 7.92809 18.6521 8.04343H18.6562C18.7014 7.92809 18.8716 7.66762 18.8716 7.5586C18.8716 7.45162 18.7406 7.41943 18.6725 7.41943H18.6354Z" fill="white"/>
<path fill-rule="evenodd" clip-rule="evenodd" d="M18.7852 8.25997C18.8163 8.10834 18.8752 7.71486 18.9706 7.62816C19.06 7.54462 19.192 7.53681 19.2584 7.54034C19.3257 7.54462 19.3953 7.61216 19.3653 7.69979C19.3396 7.79076 19.0456 8.22611 19.0064 8.28118C18.9389 8.26927 18.9526 8.27393 18.7852 8.25997Z" fill="white"/>
<path fill-rule="evenodd" clip-rule="evenodd" d="M18.5247 8.25997C18.4923 8.10834 18.4325 7.71486 18.3382 7.62816C18.2482 7.54462 18.1154 7.53681 18.05 7.54034C17.9845 7.54462 17.914 7.61216 17.9425 7.69979C17.969 7.79076 18.2613 8.22611 18.3014 8.28118C18.3691 8.26927 18.3556 8.27393 18.5247 8.25997Z" fill="white"/>
<path fill-rule="evenodd" clip-rule="evenodd" d="M18.3369 6.89098H18.5647V6.64075H18.7485V6.89098H18.978V7.04931H18.7485V7.34307H18.5647V7.04931H18.3369V6.89098Z" fill="white"/>
<path fill-rule="evenodd" clip-rule="evenodd" d="M15.6235 5.40631H15.8512V5.15552H16.0375V5.40631H16.2665V5.56352H16.0375V5.85896H15.8512V5.56352H15.6235V5.40631Z" fill="white"/>
<path fill-rule="evenodd" clip-rule="evenodd" d="M21.1076 8.50976C21.1054 8.4599 21.1024 8.41208 21.0964 8.36427C21.08 8.24185 21.0772 8.13804 21.0902 8.05078C21.2554 8.11404 21.3664 8.15311 21.5936 8.51646C21.5936 8.51646 21.2321 8.29543 21.1076 8.50976Z" fill="white"/>
<path fill-rule="evenodd" clip-rule="evenodd" d="M20.7901 9.08392C20.785 8.99406 20.7264 8.70904 20.6519 8.50978C20.5589 8.26215 20.6114 7.90494 20.7226 7.68783C20.8299 7.47871 20.8902 7.28187 20.8704 7.06494C20.8704 7.06494 21.0839 7.13601 21.2067 7.21136C21.2274 7.46308 21.0798 7.71499 21.0099 7.85769C20.9255 8.0268 20.9422 8.24745 20.9611 8.38252C20.9936 8.61136 20.9439 8.8549 20.7901 9.08392Z" fill="white"/>
<path fill-rule="evenodd" clip-rule="evenodd" d="M20.7677 7.16139C20.7745 7.13237 20.7737 7.05293 20.7585 7.0213C20.7585 7.0213 20.4229 6.69572 20.1394 6.64083C19.9598 6.60381 19.8497 6.68269 19.7959 6.72641C19.7959 6.72641 19.8964 6.71507 20.0473 6.83748C20.1981 6.95897 20.3854 7.10539 20.5279 7.14223C20.6693 7.17907 20.7004 7.16828 20.7677 7.16139Z" fill="white"/>
<path fill-rule="evenodd" clip-rule="evenodd" d="M19.7684 6.75085C19.6424 6.87644 19.5359 7.01002 19.5381 7.12518C19.5398 7.24462 19.6795 7.54472 19.7528 7.65876C19.8267 7.77262 19.9337 7.92258 19.9202 8.10416C19.9144 8.19458 19.8505 8.2876 19.7766 8.36481C19.7766 8.36481 20.1887 8.26788 20.2381 8.01486C20.2836 7.78862 20.1872 7.63085 20.1201 7.50565C20.0586 7.38732 19.8677 7.11327 19.8201 6.99904C19.7766 6.89523 19.7528 6.8089 19.7684 6.75085Z" fill="white"/>
<path fill-rule="evenodd" clip-rule="evenodd" d="M17.3591 9.59888C17.2754 9.88911 17.1361 10.1611 16.9981 10.3745C16.8727 10.5702 16.7937 10.8858 16.8082 10.9933C16.8082 10.9933 16.6205 10.5853 16.7161 10.2971C16.7889 10.0733 16.9886 9.73897 17.3591 9.59888Z" fill="white"/>
<path fill-rule="evenodd" clip-rule="evenodd" d="M16.8932 9.69385C16.8932 9.69385 16.6114 9.69961 16.4796 9.78575C16.3086 9.89682 16.1457 10.1404 16.084 10.4321C16.084 10.4321 16.3703 10.3828 16.512 10.2432C16.654 10.103 16.8272 9.89366 16.8932 9.69385Z" fill="white"/>
<path fill-rule="evenodd" clip-rule="evenodd" d="M18.3592 10.2015C18.4141 10.2056 18.5583 10.2389 18.629 10.2601C18.629 10.2601 18.3878 10.3297 18.2684 10.4289C18.1658 10.5124 18.0751 10.6419 18.0352 10.8609C17.9774 11.1666 17.7955 11.4953 17.741 11.5945L17.7209 11.5904C17.7541 11.38 17.6213 10.9435 17.5874 10.88C17.5874 10.88 17.7788 10.7617 17.8657 10.6382C17.9292 10.5472 18.0445 10.3958 18.3592 10.2015Z" fill="white"/>
<path fill-rule="evenodd" clip-rule="evenodd" d="M17.1045 10.8578C17.0359 11.0182 16.8482 11.3026 16.9343 11.5986C17.0226 11.8956 17.2189 12.0228 17.338 12.2751C17.338 12.2751 17.4338 11.8202 17.4126 11.4704C17.3912 11.1194 17.2635 10.9845 17.1045 10.8578Z" fill="white"/>
<path fill-rule="evenodd" clip-rule="evenodd" d="M15.9482 11.6879C15.9615 11.514 16.3665 11.0955 16.3462 10.8693C16.3252 10.642 16.0217 10.4825 15.9465 10.4492H15.9425C15.8687 10.4825 15.5645 10.642 15.5428 10.8693C15.5216 11.0955 15.9277 11.514 15.9399 11.6879H15.9482Z" fill="white"/>
<path fill-rule="evenodd" clip-rule="evenodd" d="M16.5616 10.8693C16.5616 10.8693 16.2801 11.4107 16.2291 11.6226C16.1794 11.8328 16.2259 11.9729 16.3218 12.1013C16.4164 12.2278 16.5777 12.3654 16.7294 12.6328C16.7294 12.6328 16.9019 12.4049 16.9238 12.286C16.9446 12.1671 16.9105 11.8827 16.8728 11.7643C16.8359 11.6434 16.6861 11.2601 16.5616 10.8693Z" fill="white"/>
<path fill-rule="evenodd" clip-rule="evenodd" d="M15.948 12.9629C16.0759 12.853 16.1906 12.6894 16.2276 12.5923C16.2624 12.4957 16.2718 12.3545 16.1863 12.2459C16.0841 12.1168 15.9561 11.9715 15.948 11.8535H15.9414C15.9319 11.9715 15.8051 12.1168 15.7028 12.2459C15.6169 12.3545 15.6261 12.4957 15.6638 12.5923C15.6986 12.6894 15.8139 12.853 15.9428 12.9629H15.948Z" fill="white"/>
<path fill-rule="evenodd" clip-rule="evenodd" d="M16.4182 12.597C16.4799 12.6635 16.8085 13.0555 16.8526 13.1697C16.8972 13.2834 16.9724 13.4997 16.8708 13.6508C16.7682 13.8015 16.5346 14.0402 16.3291 14.142C16.3291 14.142 16.5513 13.7978 16.5288 13.5159C16.514 13.3353 16.3732 13.1743 16.3465 13.0642C16.3209 12.9552 16.3387 12.7693 16.4182 12.597Z" fill="white"/>
<path fill-rule="evenodd" clip-rule="evenodd" d="M17.0608 12.381C17.01 12.4506 16.923 12.6193 16.9093 12.7834C16.899 12.9453 16.9253 13.0755 17.0149 13.3129C17.1278 13.6124 17.3012 13.9458 17.3811 14.0963C17.3811 14.0963 17.536 13.8772 17.6213 13.6814C17.6213 13.6814 17.3809 13.3529 17.2772 13.1213C17.1578 12.8481 17.1094 12.5959 17.0608 12.381Z" fill="white"/>
<path fill-rule="evenodd" clip-rule="evenodd" d="M17.1733 12.2544C17.1733 12.2544 17.277 13.0254 17.734 13.5969C18.0428 13.9841 18.2948 14.1191 18.4607 14.1191C18.7114 14.1191 18.9643 13.9121 19.0491 13.6737C19.1322 13.4375 19.1061 13.0683 18.9439 12.9376C18.9439 12.9376 18.7935 13.4001 18.4718 13.4168C18.1093 13.4375 17.6413 13.0326 17.1733 12.2544Z" fill="white"/>
<path fill-rule="evenodd" clip-rule="evenodd" d="M17.5476 11.9325C17.5094 12.07 17.4983 12.2813 17.5476 12.4808C17.5861 12.6328 17.6796 12.8296 17.8583 12.9411C18.0126 13.0367 18.3756 13.0596 18.5155 12.718C18.5155 12.718 17.8504 12.7678 17.5476 11.9325Z" fill="white"/>
<path fill-rule="evenodd" clip-rule="evenodd" d="M15.9449 14.2204C16.039 14.1752 16.1183 14.1421 16.2277 13.9784C16.3107 13.8498 16.3912 13.6119 16.3465 13.4422C16.2897 13.2329 16.1765 13.1493 16.1073 13.0186C16.0514 13.0705 16.0167 13.111 15.9481 13.1499H15.9449C15.8752 13.111 15.8399 13.0705 15.7827 13.0186C15.7126 13.1493 15.6008 13.2329 15.5429 13.4422C15.4987 13.6119 15.5783 13.8498 15.6623 13.9784C15.7703 14.1421 15.8506 14.1752 15.9449 14.2204Z" fill="white"/>
<path fill-rule="evenodd" clip-rule="evenodd" d="M15.9447 15.5204C15.9899 15.3153 16.4214 14.9213 16.3807 14.7059C16.3216 14.3846 16.1127 14.4525 15.9479 14.317H15.9447C15.7782 14.4525 15.5673 14.3846 15.5073 14.7059C15.469 14.9213 15.8975 15.3153 15.9425 15.5204H15.9447Z" fill="white"/>
<path fill-rule="evenodd" clip-rule="evenodd" d="M16.46 15.0391C16.3689 15.2711 16.0428 15.5639 16.0454 15.7451C16.0514 16.2238 16.2614 16.517 16.3121 16.6748C16.3121 16.6748 16.6989 16.3706 16.7666 16.0218C16.8029 15.8426 16.7615 15.3049 16.46 15.0391Z" fill="white"/>
<path fill-rule="evenodd" clip-rule="evenodd" d="M16.8911 15.3781C16.8471 15.2534 16.7049 14.9145 16.5398 14.7965C16.5398 14.7965 16.3292 14.1824 17.0063 13.8036C17.0063 13.8036 17.2847 14.1695 17.3593 14.5141C17.433 14.8611 17.0638 15.0676 16.8911 15.3781Z" fill="white"/>
<path fill-rule="evenodd" clip-rule="evenodd" d="M17.7403 13.8253C17.8479 13.957 18.0004 14.1368 18.1211 14.1929C18.1211 14.1929 18.1603 14.4676 18.1391 14.6502C18.1031 14.9213 17.9284 15.1974 17.8545 15.3998C17.8545 15.3998 17.5577 15.0162 17.5222 14.7909C17.4876 14.565 17.4953 14.3797 17.4844 14.2713C17.4844 14.2713 17.6477 14.0054 17.7403 13.8253Z" fill="white"/>
<path fill-rule="evenodd" clip-rule="evenodd" d="M18.5191 15.1434C18.6035 15.0157 18.8754 14.5516 18.8786 14.2131C18.8786 14.2131 18.5446 14.3891 18.2645 14.2593C18.2645 14.2593 18.2285 14.7 18.2834 14.8485C18.3264 14.9694 18.3841 15.0412 18.5191 15.1434Z" fill="white"/>
<path fill-rule="evenodd" clip-rule="evenodd" d="M18.4424 15.2368C18.3879 15.1896 18.2546 15.0681 18.2017 15.0043C18.2017 15.0043 17.9786 15.4067 17.9424 15.5245C17.9424 15.5245 18.0517 15.5531 18.1736 15.4653C18.2953 15.3775 18.3219 15.3537 18.4424 15.2368Z" fill="white"/>
<path fill-rule="evenodd" clip-rule="evenodd" d="M17.4163 15.0006C17.4433 15.1024 17.8012 15.5956 17.8625 15.6562C17.8625 15.6562 17.8342 15.8348 17.7016 16.0925C17.5702 16.3483 17.3865 16.529 17.2869 16.6198C17.2869 16.6198 17.0662 16.2373 17.0002 16.0702C16.9252 15.8774 16.9344 15.6881 16.9678 15.617C17.0411 15.4503 17.3011 15.2094 17.4163 15.0006Z" fill="white"/>
<path fill-rule="evenodd" clip-rule="evenodd" d="M15.9479 17.9214C15.9819 17.7863 16.189 17.6254 16.2738 17.3902C16.3254 17.2516 16.3233 17.0895 16.2685 16.9785C16.2029 16.8488 15.9712 16.5316 15.9447 16.4408C15.9157 16.5316 15.6869 16.8488 15.6204 16.9785C15.5647 17.0895 15.5632 17.2516 15.6138 17.3902C15.7006 17.6254 15.9072 17.7863 15.9414 17.9214H15.9479Z" fill="white"/>
<path fill-rule="evenodd" clip-rule="evenodd" d="M16.8781 16.2924C16.8001 16.4505 16.5616 16.7111 16.5238 16.9173C16.494 17.0788 16.5213 17.2111 16.5635 17.3244C16.6085 17.4334 16.7536 17.6514 16.8478 17.817C16.8478 17.817 17.1744 17.5108 17.2464 17.2922C17.3013 17.1277 17.2803 16.894 17.2012 16.7487C17.1232 16.6021 16.9533 16.4438 16.8781 16.2924Z" fill="white"/>
<path fill-rule="evenodd" clip-rule="evenodd" d="M17.8054 16.2477C17.7208 16.4321 17.5172 16.6148 17.4715 16.7751C17.4165 16.9653 17.3993 17.0851 17.4913 17.3067C17.575 17.4998 17.6721 17.6136 17.707 17.732C17.707 17.732 17.9721 17.3904 18.015 17.2486C18.0619 17.1068 18.0737 16.8734 18.0212 16.7258C17.9657 16.5759 17.8701 16.3839 17.8054 16.2477Z" fill="white"/>
<path fill-rule="evenodd" clip-rule="evenodd" d="M15.9447 20.5389C15.9616 20.3724 16.3092 19.8557 16.3252 19.3086C16.3336 19.0339 16.0884 18.606 15.9479 18.4425H15.9401C15.8013 18.606 15.5551 19.0339 15.5632 19.3086C15.5802 19.8557 15.9267 20.3724 15.9447 20.5389Z" fill="white"/>
<path fill-rule="evenodd" clip-rule="evenodd" d="M16.4973 17.547C16.4973 17.547 16.954 18.0947 16.9437 18.385C16.9306 18.7463 16.6859 18.9877 16.6539 19.2099C16.6539 19.2099 16.4137 18.9409 16.3227 18.7602C16.22 18.5578 16.1416 18.3849 16.1707 18.155C16.1964 17.9245 16.2562 17.7775 16.4973 17.547Z" fill="white"/>
<path fill-rule="evenodd" clip-rule="evenodd" d="M17.3381 17.493C17.2648 17.5978 17.0629 17.9561 17.1199 18.1678C17.1793 18.3823 17.4034 18.6824 17.478 18.8101C17.478 18.8101 17.658 18.4426 17.6996 18.2733C17.7403 18.1061 17.7017 17.8303 17.3381 17.493Z" fill="white"/>
<path fill-rule="evenodd" clip-rule="evenodd" d="M16.2565 21.4173C16.2846 20.9922 16.5287 20.7368 16.5709 20.5159C16.6189 20.2722 16.6024 20.0389 16.4125 19.7582C16.2565 20.2821 16.0886 20.6655 15.9551 20.9271C15.9506 20.9334 15.948 20.9418 15.945 20.9494C15.9415 20.9418 15.9396 20.9334 15.9341 20.9271C15.8016 20.6655 15.6328 20.2821 15.4785 19.7582C15.288 20.0389 15.2715 20.2722 15.3186 20.5159C15.3621 20.7368 15.6051 20.9922 15.6328 21.4173C15.6595 21.8441 15.1763 22.006 15.1763 22.006C15.3386 22.0648 15.5248 22.0912 15.82 21.8134C15.874 21.7636 15.9141 21.7079 15.945 21.6493C15.9761 21.7079 16.0168 21.7636 16.0705 21.8134C16.3639 22.0912 16.5512 22.0648 16.7141 22.006C16.7141 22.006 16.2302 21.8441 16.2565 21.4173Z" fill="white"/>
<path fill-rule="evenodd" clip-rule="evenodd" d="M14.7362 18.5853C14.7861 18.7448 14.9365 19.0395 14.9564 19.1293C14.9925 19.2981 14.9434 19.5027 14.6331 19.7197C14.6331 19.7197 14.4325 19.5796 14.3526 19.3972C14.2789 19.225 14.3217 19.1029 14.3985 19.0153C14.4765 18.9264 14.6592 18.7193 14.7362 18.5853Z" fill="white"/>
<path fill-rule="evenodd" clip-rule="evenodd" d="M15.3881 19.2161C15.3881 19.3016 15.3242 19.7835 15.1869 20.0239C14.9927 20.3597 14.7071 20.6084 14.4577 20.6084C14.2273 20.6084 14.1776 20.4713 14.064 20.417C14.064 20.417 14.1219 20.1245 14.3818 20.0488C14.7011 19.9532 15.1897 19.5736 15.3881 19.2161Z" fill="white"/>
<path fill-rule="evenodd" clip-rule="evenodd" d="M14.5547 19.8303C14.5014 19.7892 14.4543 19.7622 14.391 19.688C14.391 19.688 14.1452 19.7778 13.9425 19.9133C13.7392 20.0489 13.5405 20.2798 13.4336 20.3994C13.4336 20.3994 13.737 20.4772 13.9297 20.3899C13.9297 20.3899 13.9991 20.1023 14.2158 19.9732C14.2638 19.9455 14.415 19.9008 14.5547 19.8303Z" fill="white"/>
<path fill-rule="evenodd" clip-rule="evenodd" d="M14.3043 19.5841C14.2555 19.5114 14.1593 19.3776 14.1801 19.1674C14.1801 19.1674 13.7526 19.4373 13.6276 19.5374C13.4982 19.6421 13.2308 19.9149 13.1714 20.0048C13.1714 20.0048 13.4952 19.9341 13.7431 19.8511C14.0146 19.7621 14.2023 19.6421 14.3043 19.5841Z" fill="white"/>
<path fill-rule="evenodd" clip-rule="evenodd" d="M13.5802 20.041C13.3512 20.124 12.833 20.2057 12.6177 20.2695C12.401 20.3337 12.244 20.4438 12.0376 20.6671C12.0376 20.6671 12.3548 20.756 12.5249 20.8083C12.5249 20.8083 12.7945 20.6265 13.0895 20.5139C13.2826 20.4403 13.3762 20.2408 13.5802 20.041Z" fill="white"/>
<path fill-rule="evenodd" clip-rule="evenodd" d="M13.0988 21.5559C13.1485 21.5008 13.2111 21.4385 13.163 21.3114C13.1296 21.2169 12.9421 21.1157 12.8305 21.0621C12.6451 20.9739 12.1306 20.8368 11.9618 20.7881C11.9618 20.7881 11.8778 20.8846 11.8345 20.9873C11.8148 21.0268 11.8405 21.0679 11.9133 21.0807C12.0567 21.1053 12.4008 21.0413 12.4857 21.0954C12.5748 21.154 12.5423 21.232 12.5423 21.3114C12.5423 21.3114 12.7 21.2147 12.7986 21.2366C12.9372 21.2655 13.0203 21.3306 13.0988 21.5559Z" fill="white"/>
<path fill-rule="evenodd" clip-rule="evenodd" d="M12.6411 20.8451C12.6781 20.8576 12.8792 20.9179 13.0748 21.0409C13.0748 21.0409 13.1609 21.0075 13.2044 20.9287C13.2458 20.8529 13.4209 20.5949 13.5839 20.5601C13.5839 20.5601 13.4457 20.5471 13.366 20.5223C13.366 20.5223 13.1997 20.5648 13.0812 20.6131C12.9627 20.6609 12.8155 20.7335 12.6411 20.8451Z" fill="white"/>
<path fill-rule="evenodd" clip-rule="evenodd" d="M13.968 20.519C13.9376 20.5336 13.8844 20.5592 13.7636 20.5643C13.7636 20.5643 13.3119 20.8748 13.2589 21.1862C13.2148 21.4506 13.3553 21.5782 13.4228 21.611C13.4908 21.6457 13.8075 21.7745 14.0124 21.3538C14.0124 21.3538 13.6622 21.4677 13.5669 21.3016C13.4724 21.1334 13.6275 20.8904 13.7226 20.8208C13.8463 20.7272 14.0717 20.6655 14.2067 20.6889C14.2067 20.6889 14.0976 20.5851 13.968 20.519Z" fill="white"/>
<path fill-rule="evenodd" clip-rule="evenodd" d="M11.0062 24.081C11.0609 23.852 11.1224 23.6128 11.2274 23.3921C11.4318 22.9623 11.9328 21.8196 12.9776 21.6172C13.0764 21.599 12.8647 21.3569 12.7721 21.3701C12.6776 21.3804 12.4914 21.5009 12.4094 21.556C12.4094 21.556 12.4094 21.3114 12.4066 21.2673C12.404 21.2217 12.3648 21.2081 12.3241 21.209C12.2836 21.2096 12.0316 21.2081 11.9508 21.2985C11.7133 21.5726 11.3107 22.3082 11.0831 22.8559C10.8551 23.4031 10.7002 23.5724 10.4594 23.4877C10.2191 23.4031 10.0749 23.1296 9.65676 23.2126C9.51107 23.2425 9.34945 23.3387 9.22363 23.4814C9.25851 23.5484 9.30332 23.6299 9.49982 23.6299C9.6952 23.6299 10.0683 23.711 10.2772 23.8563C10.4868 24.001 10.7058 24.0483 11.0062 24.081Z" fill="white"/>
<path fill-rule="evenodd" clip-rule="evenodd" d="M15.1779 20.5369C15.2019 20.7144 15.288 20.8799 15.3836 21.0518C15.3836 21.0518 15.0647 22.508 13.9158 22.6211C13.9158 22.6211 13.9382 22.3196 14.2787 22.089C14.6193 21.8595 15.1282 21.5019 15.0917 20.9609C15.0917 20.9609 15.0011 20.9791 14.8372 21.1826C14.6743 21.3852 14.3158 21.9713 13.7593 21.9757C13.7593 21.9757 13.8425 21.7013 14.0883 21.5428C14.3343 21.3852 14.6467 21.1826 14.7881 20.938C14.9302 20.6946 15.0793 20.5819 15.1779 20.5369Z" fill="white"/>
<path fill-rule="evenodd" clip-rule="evenodd" d="M14.6357 25.843L15.3357 26.8155L15.8665 25.8793L15.6786 25.5455C15.5401 25.7911 15.3916 26.0568 15.3074 26.2025C15.2416 26.113 15.0647 25.867 14.8332 25.5455L14.6357 25.843Z" fill="white"/>
<path fill-rule="evenodd" clip-rule="evenodd" d="M14.457 25.0191C13.7736 24.0718 12.9311 22.8986 12.8456 22.7797L13.11 22.5906L12.2764 22.2734L12.2908 23.1763L12.573 22.9743L14.2582 25.3181L14.457 25.0191Z" fill="white"/>
<path fill-rule="evenodd" clip-rule="evenodd" d="M8.7005 19.6942C8.906 19.4715 9.25437 19.6646 9.60649 19.9865C9.96106 20.3085 10.1819 20.638 9.97756 20.8603C9.78574 21.0668 9.42293 20.8905 9.06762 20.5695C8.71456 20.2471 8.49237 19.9169 8.7005 19.6942Z" fill="white"/>
<path fill-rule="evenodd" clip-rule="evenodd" d="M9.26943 23.6543C9.25631 23.6444 9.24637 23.636 9.23606 23.6264C9.04856 23.464 8.94187 23.2126 8.94187 22.9384C8.94187 22.412 9.37256 21.9828 9.90468 21.9828C10.4357 21.9828 10.8654 22.412 10.8654 22.9384C10.8654 23.0096 10.8517 23.1263 10.8517 23.1263C10.8958 23.045 11.0537 22.68 11.0857 22.6124C10.9421 22.1 10.4657 21.7226 9.90468 21.7226C9.42018 21.7226 9.00075 22.0018 8.80143 22.4068C8.87662 21.9246 9.11868 21.4915 9.2895 21.3311C9.49462 21.14 9.84262 21.0783 9.84262 21.0783C9.61424 21.1157 9.31274 20.9756 8.97618 20.6671C8.65612 20.3774 8.49262 20.1227 8.4825 19.9103C8.502 20.2102 8.49262 20.3786 8.40656 20.6225C8.29068 20.9547 7.97343 21.5689 8.08725 22.2621C8.14893 22.6426 8.427 23.2089 8.89256 23.6716C8.99118 23.7752 9.02775 23.9291 9.03993 24.0083C9.03993 24.0083 9.72468 24.0083 9.88725 24.024C9.88725 24.024 10.0506 24.0083 10.0481 23.9082C10.0462 23.8074 9.9555 23.7817 9.87375 23.7817C9.79256 23.7817 9.45206 23.7899 9.26943 23.6543Z" fill="white"/>
<path fill-rule="evenodd" clip-rule="evenodd" d="M13.0608 23.8859C12.6194 24.0427 12.1795 24.1283 11.7625 24.1917C11.4897 24.2321 11.2257 24.2472 10.9701 24.2341C10.9741 24.2758 10.9741 24.3313 10.9497 24.3716C10.9497 24.3716 11.0013 24.4315 11.0013 24.4974C11.2593 24.5067 11.5281 24.4922 11.8025 24.4496C12.2596 24.38 12.7385 24.2892 13.2211 24.1074L13.0608 23.8859Z" fill="white"/>
<path fill-rule="evenodd" clip-rule="evenodd" d="M13.7827 23.8521C14.3684 23.536 14.9388 23.046 15.4539 22.2646L15.5459 22.1115C15.4051 22.1738 15.2257 22.1289 15.2257 22.1289C15.215 22.1427 15.1929 22.1779 15.182 22.1985C14.702 22.9016 14.1701 23.3444 13.6274 23.6341L13.7827 23.8521Z" fill="white"/>
<path fill-rule="evenodd" clip-rule="evenodd" d="M9.92657 24.1014C9.84613 24.0884 9.58907 24.0957 9.43532 24.118C9.26638 24.145 9.07476 24.1783 9.05413 24.2711C9.03557 24.3589 9.09632 24.4518 9.18163 24.5848C9.23395 24.6666 9.35995 24.6194 9.42951 24.5935C9.49851 24.5686 9.89451 24.3578 9.95713 24.2893C10.0214 24.2198 10.0481 24.1215 9.92657 24.1014Z" fill="white"/>
<path fill-rule="evenodd" clip-rule="evenodd" d="M10.3293 24.3603C10.2871 24.3339 10.184 24.2939 10.0767 24.3344C9.96908 24.3739 9.57926 24.6018 9.55414 24.7103C9.52676 24.8167 9.58133 24.8691 9.64151 24.8935C9.70151 24.9173 9.77445 24.9402 9.82901 24.946C9.92651 24.9534 10.0212 24.8972 10.0718 24.8366C10.1213 24.7752 10.3043 24.5568 10.3293 24.5067C10.3555 24.4585 10.3696 24.3875 10.3293 24.3603Z" fill="white"/>
<path fill-rule="evenodd" clip-rule="evenodd" d="M10.3773 24.6003C10.3199 24.6636 10.1628 24.8526 10.144 24.8842C10.1264 24.9153 10.154 24.9648 10.2033 24.9584C10.2518 24.9534 10.5213 24.9262 10.6756 24.8224C10.8293 24.7175 10.9323 24.5151 10.8258 24.4429C10.7198 24.3698 10.5545 24.404 10.3773 24.6003Z" fill="white"/>
<path fill-rule="evenodd" clip-rule="evenodd" d="M10.464 24.0198C10.4125 24.0083 10.209 23.958 10.1663 24.0239C10.1102 24.1065 10.1494 24.1952 10.3073 24.2711C10.464 24.3448 10.7608 24.4049 10.821 24.3251C10.8776 24.2425 10.7972 24.1065 10.464 24.0198Z" fill="white"/>
<path fill-rule="evenodd" clip-rule="evenodd" d="M17.1533 18.5853C17.1025 18.7448 16.9525 19.0395 16.9323 19.1293C16.897 19.2981 16.9448 19.5027 17.2557 19.7197C17.2557 19.7197 17.456 19.5796 17.5358 19.3972C17.611 19.225 17.5683 19.1029 17.4903 19.0153C17.4126 18.9264 17.2313 18.7193 17.1533 18.5853Z" fill="white"/>
<path fill-rule="evenodd" clip-rule="evenodd" d="M16.5 19.2161C16.5 19.3016 16.5636 19.7835 16.7031 20.0239C16.8971 20.3597 17.1816 20.6084 17.4311 20.6084C17.6629 20.6084 17.7126 20.4713 17.8251 20.417C17.8251 20.417 17.7669 20.1245 17.5063 20.0488C17.1889 19.9532 16.6991 19.5736 16.5 19.2161Z" fill="white"/>
<path fill-rule="evenodd" clip-rule="evenodd" d="M17.3345 19.8303C17.3881 19.7892 17.4327 19.7622 17.4968 19.688C17.4968 19.688 17.7447 19.7778 17.9474 19.9133C18.1488 20.0489 18.3462 20.2798 18.4557 20.3994C18.4557 20.3994 18.1516 20.4772 17.9588 20.3899C17.9588 20.3899 17.8887 20.1023 17.672 19.9732C17.6257 19.9455 17.4743 19.9008 17.3345 19.8303Z" fill="white"/>
<path fill-rule="evenodd" clip-rule="evenodd" d="M17.5859 19.5841C17.6336 19.5114 17.7301 19.3776 17.7078 19.1674C17.7078 19.1674 18.1346 19.4373 18.2626 19.5374C18.3916 19.6421 18.6583 19.9149 18.7181 20.0048C18.7181 20.0048 18.3943 19.9341 18.146 19.8511C17.8747 19.7621 17.6872 19.6421 17.5859 19.5841Z" fill="white"/>
<path fill-rule="evenodd" clip-rule="evenodd" d="M18.3091 20.041C18.5393 20.124 19.0538 20.2057 19.2717 20.2695C19.4883 20.3337 19.6461 20.4438 19.8524 20.6671C19.8524 20.6671 19.5333 20.756 19.3655 20.8083C19.3655 20.8083 19.0956 20.6265 18.7986 20.5139C18.6072 20.4403 18.5123 20.2408 18.3091 20.041Z" fill="white"/>
<path fill-rule="evenodd" clip-rule="evenodd" d="M18.79 21.5559C18.7407 21.5008 18.6785 21.4385 18.7248 21.3114C18.7591 21.2169 18.9475 21.1157 19.0602 21.0621C19.246 20.9739 19.7603 20.8368 19.9274 20.7881C19.9274 20.7881 20.0108 20.8846 20.0556 20.9873C20.0746 21.0268 20.0474 21.0679 19.9769 21.0807C19.8325 21.1053 19.4885 21.0413 19.4035 21.0954C19.3139 21.154 19.3456 21.232 19.3456 21.3114C19.3456 21.3114 19.19 21.2147 19.0885 21.2366C18.953 21.2655 18.8676 21.3306 18.79 21.5559Z" fill="white"/>
<path fill-rule="evenodd" clip-rule="evenodd" d="M19.2477 20.8451C19.2098 20.8576 19.0099 20.9179 18.8144 21.0409C18.8144 21.0409 18.7277 21.0075 18.6848 20.9287C18.6439 20.8529 18.4675 20.5949 18.3057 20.5601C18.3057 20.5601 18.4433 20.5471 18.5215 20.5223C18.5215 20.5223 18.6891 20.5648 18.8093 20.6131C18.9276 20.6609 19.0754 20.7335 19.2477 20.8451Z" fill="white"/>
<path fill-rule="evenodd" clip-rule="evenodd" d="M17.92 20.519C17.9513 20.5336 18.0041 20.5592 18.1238 20.5643C18.1238 20.5643 18.5771 20.8748 18.6293 21.1862C18.6765 21.4506 18.535 21.5782 18.4661 21.611C18.3973 21.6457 18.0821 21.7745 17.8772 21.3538C17.8772 21.3538 18.2265 21.4677 18.3221 21.3016C18.4168 21.1334 18.2629 20.8904 18.1678 20.8208C18.0431 20.7272 17.8187 20.6655 17.6816 20.6889C17.6816 20.6889 17.7904 20.5851 17.92 20.519Z" fill="white"/>
<path fill-rule="evenodd" clip-rule="evenodd" d="M20.8825 24.081C20.8275 23.852 20.7675 23.6128 20.6616 23.3921C20.4582 22.9623 19.957 21.8196 18.91 21.6172C18.8125 21.599 19.0225 21.3569 19.1187 21.3701C19.212 21.3804 19.3982 21.5009 19.4811 21.556C19.4811 21.556 19.4811 21.3114 19.4832 21.2673C19.4858 21.2217 19.5242 21.2081 19.5636 21.209C19.6047 21.2096 19.857 21.2081 19.9365 21.2985C20.1762 21.5726 20.5778 22.3082 20.8062 22.8559C21.0344 23.4031 21.1898 23.5724 21.429 23.4877C21.67 23.4031 21.8157 23.1296 22.2329 23.2126C22.3787 23.2425 22.539 23.3387 22.6673 23.4814C22.6307 23.5484 22.5854 23.6299 22.3909 23.6299C22.1931 23.6299 21.8196 23.711 21.6122 23.8563C21.4022 24.001 21.1838 24.0483 20.8825 24.081Z" fill="white"/>
<path fill-rule="evenodd" clip-rule="evenodd" d="M16.7092 20.5369C16.6877 20.7144 16.6007 20.8799 16.5063 21.0518C16.5063 21.0518 16.8243 22.508 17.9754 22.6211C17.9754 22.6211 17.951 22.3196 17.6113 22.089C17.2693 21.8595 16.7604 21.5019 16.797 20.9609C16.797 20.9609 16.8877 20.9791 17.0507 21.1826C17.2162 21.3852 17.5749 21.9713 18.129 21.9757C18.129 21.9757 18.0474 21.7013 17.8012 21.5428C17.5554 21.3852 17.2419 21.1826 17.1003 20.938C16.9601 20.6946 16.8112 20.5819 16.7092 20.5369Z" fill="white"/>
<path fill-rule="evenodd" clip-rule="evenodd" d="M15.9468 21.9495C16.0147 22.1426 16.4488 22.753 16.6389 22.9264C16.8309 23.1003 17.2944 23.5614 17.5427 23.7913C17.5427 23.7913 16.836 23.6176 16.4383 23.2598C16.4383 23.2598 16.1557 23.4228 15.9495 23.4228H15.9395C15.7327 23.4228 15.4498 23.2598 15.4498 23.2598C15.053 23.6176 14.3477 23.7913 14.3477 23.7913C14.5946 23.5614 15.0585 23.1003 15.249 22.9264C15.4408 22.753 15.8763 22.1426 15.9429 21.9495H15.9468Z" fill="white"/>
<path fill-rule="evenodd" clip-rule="evenodd" d="M15.9482 23.5661C16.1042 23.5661 16.2519 23.5049 16.3359 23.469C16.2519 23.6435 16.0952 23.9144 15.9446 24.026H15.9425C15.7918 23.9144 15.6349 23.6435 15.5527 23.469C15.6349 23.5049 15.7824 23.5661 15.9392 23.5661H15.9482Z" fill="white"/>
<path fill-rule="evenodd" clip-rule="evenodd" d="M16.5536 26.8154L19.316 22.9743L19.5969 23.1761L19.614 22.2734L18.777 22.5906L19.0426 22.7797C18.9073 22.9679 16.8418 25.8405 16.5817 26.2024L15.3307 23.9527L15.1762 24.1869L14.0628 25.8567L13.784 25.6718L13.7803 26.5594L14.6257 26.2273L14.342 26.0409C14.4956 25.8104 15.1001 24.906 15.3015 24.6018L16.5536 26.8154Z" fill="white"/>
<path fill-rule="evenodd" clip-rule="evenodd" d="M17.057 25.3068C16.8706 25.0279 16.6833 24.7461 16.5875 24.6017C16.5179 24.7314 16.3758 24.9844 16.2172 25.2646L16.0195 24.9139L16.5571 23.9528L16.7133 24.1868L17.266 25.0164L17.057 25.3068Z" fill="white"/>
<path fill-rule="evenodd" clip-rule="evenodd" d="M17.628 25.5565L17.8265 25.8566L18.1046 25.6717L18.1095 26.5595L17.2637 26.2272L17.546 26.041C17.517 25.9967 17.4742 25.9282 17.418 25.8462L17.628 25.5565Z" fill="white"/>
<path fill-rule="evenodd" clip-rule="evenodd" d="M23.189 19.6942C22.9828 19.4715 22.6344 19.6646 22.28 19.9865C21.9277 20.3085 21.7059 20.638 21.9114 20.8603C22.1023 21.0668 22.4688 20.8905 22.8217 20.5695C23.1735 20.2471 23.396 19.9169 23.189 19.6942Z" fill="white"/>
<path fill-rule="evenodd" clip-rule="evenodd" d="M22.6204 23.6543C22.6326 23.6444 22.6418 23.636 22.6528 23.6264C22.8398 23.464 22.9489 23.2126 22.9489 22.9384C22.9489 22.412 22.5167 21.9828 21.9853 21.9828C21.4545 21.9828 21.024 22.412 21.024 22.9384C21.024 23.0096 21.0381 23.1263 21.0381 23.1263C20.9948 23.045 20.835 22.68 20.8037 22.6124C20.946 22.1 21.4213 21.7226 21.9853 21.7226C22.4696 21.7226 22.8891 22.0018 23.0873 22.4068C23.0119 21.9246 22.7725 21.4915 22.6 21.3311C22.3954 21.14 22.0468 21.0783 22.0468 21.0783C22.2746 21.1157 22.5761 20.9756 22.9135 20.6671C23.2331 20.3774 23.3989 20.1227 23.407 19.9103C23.3875 20.2102 23.3961 20.3786 23.481 20.6225C23.598 20.9547 23.916 21.5689 23.8037 22.2621C23.7411 22.6426 23.4626 23.2089 22.9991 23.6716C22.8988 23.7752 22.8615 23.9291 22.8506 24.0083C22.8506 24.0083 22.1644 24.0083 22.0009 24.024C22.0009 24.024 21.8393 24.0083 21.8421 23.9082C21.8451 23.8074 21.9341 23.7817 22.0165 23.7817C22.0963 23.7817 22.4385 23.7899 22.6204 23.6543Z" fill="white"/>
<path fill-rule="evenodd" clip-rule="evenodd" d="M18.1045 23.851C17.5206 23.5335 16.9499 23.046 16.4344 22.2646L16.3418 22.1113C16.4834 22.1737 16.6639 22.129 16.6639 22.129C16.6742 22.1426 16.6954 22.1779 16.7061 22.1986C17.1865 22.9005 17.7182 23.3444 18.2609 23.6341L18.1045 23.851Z" fill="white"/>
<path fill-rule="evenodd" clip-rule="evenodd" d="M18.8274 23.8848C19.2691 24.0427 19.709 24.1283 20.1258 24.1916C20.3986 24.2321 20.6651 24.2472 20.9184 24.2342C20.9148 24.2758 20.9148 24.3311 20.9394 24.3717C20.9394 24.3717 20.8893 24.4316 20.8893 24.4974C20.6293 24.5067 20.3619 24.4922 20.0859 24.4496C19.6323 24.38 19.1501 24.2892 18.6689 24.1069L18.8274 23.8848Z" fill="white"/>
<path fill-rule="evenodd" clip-rule="evenodd" d="M21.9622 24.1014C22.0442 24.0884 22.3012 24.0957 22.4542 24.118C22.6228 24.145 22.8148 24.1783 22.8356 24.2711C22.854 24.3589 22.7933 24.4518 22.7089 24.5848C22.6539 24.6666 22.5287 24.6194 22.461 24.5935C22.3909 24.5686 21.9947 24.3578 21.9302 24.2893C21.8687 24.2198 21.8417 24.1215 21.9622 24.1014Z" fill="white"/>
<path fill-rule="evenodd" clip-rule="evenodd" d="M21.5579 24.3603C21.6012 24.3339 21.7054 24.2939 21.8127 24.3344C21.9192 24.3739 22.3084 24.6018 22.3356 24.7103C22.3609 24.8167 22.3073 24.8691 22.2469 24.8935C22.1877 24.9173 22.1136 24.9402 22.0596 24.946C21.9629 24.9534 21.8685 24.8972 21.8179 24.8366C21.7671 24.7752 21.5865 24.5568 21.5579 24.5067C21.5333 24.4585 21.52 24.3875 21.5579 24.3603Z" fill="white"/>
<path fill-rule="evenodd" clip-rule="evenodd" d="M21.5127 24.6003C21.5684 24.6636 21.727 24.8526 21.7449 24.8842C21.7644 24.9153 21.7351 24.9648 21.6862 24.9584C21.6363 24.9534 21.3689 24.9262 21.2146 24.8224C21.0607 24.7175 20.9583 24.5151 21.0648 24.4429C21.1683 24.3698 21.3342 24.404 21.5127 24.6003Z" fill="white"/>
<path fill-rule="evenodd" clip-rule="evenodd" d="M21.4253 24.0198C21.4761 24.0083 21.6794 23.958 21.7231 24.0239C21.7771 24.1065 21.7384 24.1952 21.5809 24.2711C21.4253 24.3448 21.1281 24.4049 21.0689 24.3251C21.0109 24.2425 21.0929 24.1065 21.4253 24.0198Z" fill="white"/>
<mask id="mask0_853_5982" style="mask-type:alpha" maskUnits="userSpaceOnUse" x="0" y="0" width="66" height="32">
<path d="M0 31.6569H65.8297V0.0145264H0V31.6569Z" fill="white"/>
</mask>
<g mask="url(#mask0_853_5982)">
<path fill-rule="evenodd" clip-rule="evenodd" d="M33.9399 31.8285H65.8299V0.186035H33.9399V31.8285Z" fill="#CC003D"/>
<path fill-rule="evenodd" clip-rule="evenodd" d="M59.6284 10.223C59.6312 10.0829 59.6575 9.10062 59.6597 8.96797H59.9007C60.8323 8.96797 60.9887 9.13132 61.0753 10.223H59.6284ZM62.2793 9.67774C62.133 8.45616 61.555 7.82043 60.1896 7.82043H58.4533L58.2173 14.7213H59.4825C59.4825 14.7213 59.5993 11.5207 59.6061 11.3691C59.7447 11.3691 61.0733 11.3706 61.2047 11.3706C61.2193 11.5101 61.4586 14.7213 61.4586 14.7213H62.7649C62.7649 14.7213 62.3153 9.98062 62.2793 9.67774Z" fill="white"/>
<path fill-rule="evenodd" clip-rule="evenodd" d="M44.2761 19.7006C44.2789 19.5605 44.3051 18.5783 44.3074 18.4457L44.5341 18.4316C45.4657 18.4316 45.6362 18.609 45.723 19.7006H44.2761ZM46.9267 19.1553C46.7809 17.9339 46.2024 17.298 44.8372 17.298H43.1008L42.8647 24.1988H44.13C44.13 24.1988 44.2468 20.9983 44.2537 20.8466C44.3925 20.8466 45.7209 20.8481 45.8524 20.8481C45.867 20.9876 46.1061 24.1988 46.1061 24.1988H47.4124C47.4124 24.1988 46.9629 19.4583 46.9267 19.1553Z" fill="white"/>
<path fill-rule="evenodd" clip-rule="evenodd" d="M37.4326 7.82043V14.7196H38.7114V8.96778H40.2961V14.7196H41.5769V7.82043H37.4326Z" fill="white"/>
<path fill-rule="evenodd" clip-rule="evenodd" d="M50.9606 10.2231H50.2645C49.9766 10.2231 49.7631 10.1593 49.627 10.0304C49.531 9.94087 49.4839 9.81957 49.4839 9.66143V7.82031H48.2021V9.79017C48.2021 10.2443 48.3833 10.6283 48.7406 10.9334C49.093 11.2356 49.5244 11.3878 50.025 11.3878H50.9606V14.7197H52.2405V7.82031H50.9606V10.2231Z" fill="white"/>
<path fill-rule="evenodd" clip-rule="evenodd" d="M53.6572 7.82043V8.96778H54.72V14.7196H54.7357H55.9987H56.0145V8.96778H57.0772V7.82043H53.6572Z" fill="white"/>
<path fill-rule="evenodd" clip-rule="evenodd" d="M51.7798 17.2977V19.5031H50.0242V17.2977H48.7476V24.1999H50.0242V20.6505H51.7798V24.1999H53.0565V17.2977H51.7798Z" fill="white"/>
<path fill-rule="evenodd" clip-rule="evenodd" d="M39.1482 23.1318C39.0239 23.1318 38.7114 23.1033 38.7114 23.1033V21.7563V21.6151V20.6743C38.7114 20.6743 38.8119 20.6508 38.9217 20.6508C39.5705 20.6508 40.3372 20.6133 40.3372 21.8901C40.3372 23.0607 39.4947 23.1318 39.1482 23.1318ZM39.3031 19.5561C39.0828 19.5561 38.8871 19.5614 38.7114 19.5694V18.4454H41.0064V17.2981H37.4326V18.4454V24.1974H37.5192H39.3736C41.3088 24.1974 41.6086 22.4907 41.6086 21.8588C41.6086 21.1111 41.3105 19.5561 39.3031 19.5561Z" fill="white"/>
<path fill-rule="evenodd" clip-rule="evenodd" d="M44.0552 11.2823V11.2817C44.0659 9.41418 44.5311 8.79967 45.0216 8.79055C45.5121 8.79967 45.9773 9.41418 45.9879 11.2817V11.2823C45.9773 13.1063 45.5121 13.7292 45.0216 13.7386C44.5311 13.7292 44.0661 13.1063 44.0552 11.2823ZM47.2618 11.0265C47.2397 10.0395 47.0689 9.33232 46.8043 8.83C46.3873 7.97139 45.723 7.65083 45.0371 7.64265C45.0356 7.64265 45.0343 7.64209 45.0328 7.64209C45.0291 7.64209 45.0253 7.64228 45.0216 7.64228C45.0178 7.64228 45.0141 7.64209 45.0103 7.64209C45.0088 7.64209 45.0075 7.64265 45.006 7.64265C44.3201 7.65083 43.656 7.97139 43.2388 8.83C42.9741 9.33232 42.8034 10.0395 42.7813 11.0265C42.7811 11.028 42.7783 11.248 42.7783 11.2497L42.7785 11.2495C42.7793 11.8644 42.8483 12.4607 42.9831 12.9409C43.3343 14.3546 44.1458 14.8547 44.9929 14.8698C44.9987 14.87 45.0049 14.8706 45.0103 14.8706C45.0141 14.8706 45.0178 14.8704 45.0216 14.8704C45.0253 14.8704 45.0291 14.8706 45.0328 14.8706C45.0384 14.8706 45.0446 14.87 45.0503 14.8698C45.8974 14.8547 46.7089 14.3546 47.0601 12.9409C47.1951 12.4607 47.2641 11.8644 47.2646 11.2495L47.2648 11.2497C47.2648 11.248 47.2618 11.028 47.2618 11.0265Z" fill="white"/>
<path fill-rule="evenodd" clip-rule="evenodd" d="M59.4274 24.1978L57.8882 20.1535C58.2077 19.9174 58.4565 19.4652 58.5672 19.0148C58.6744 18.577 58.8156 17.2977 58.8156 17.2977H57.5567C57.549 17.428 57.5218 17.8657 57.4825 18.3108C57.4242 18.9705 57.2284 19.579 56.5483 19.579H56.0235C56.0226 19.5238 56.0235 17.2977 56.0235 17.2977H54.7437V24.1999H56.0235V20.6955C56.0235 20.6955 56.7006 20.6964 56.7962 20.6957L58.0534 24.1978H59.4274Z" fill="white"/>
</g>
</g>
<defs>
<clipPath id="clip0_853_5982">
<rect width="66" height="32" fill="white"/>
</clipPath>
</defs>
</svg>
