<svg width="72" height="72" viewBox="0 0 72 72" fill="none" xmlns="http://www.w3.org/2000/svg">
<path d="M21.2344 21.2344H14.9062C11.4113 21.2344 8.57812 24.0675 8.57812 27.5625C8.57812 31.0575 11.4113 33.8906 14.9062 33.8906H21.2344V21.2344Z" fill="#FFD2A8"/>
<path d="M57.2624 47.8125L50.5125 46.9264L45.7875 48.2764C44.2689 52.3265 40.3455 54.9843 36 54.9843C31.9922 54.9843 28.3641 52.7061 26.6345 49.2047L21.4875 46.9264C20.8969 47.0109 14.8641 47.7701 14.3156 47.9389C8.36719 50.0062 4.35938 55.617 4.35938 61.9031V69.8906C4.35938 71.0717 5.28736 72 6.46875 72H65.5312C66.7126 72 67.6406 71.0717 67.6406 69.8906V61.8609C67.6406 54.6045 62.2405 49.078 57.2624 47.8125Z" fill="#21BCF0"/>
<path d="M67.6406 61.8609V69.8906C67.6406 71.0717 66.7126 72 65.5312 72H36V54.9843C40.3455 54.9843 44.2689 52.3265 45.7875 48.2764L50.5125 46.9264L57.2624 47.8125C62.2405 49.078 67.6406 54.6045 67.6406 61.8609Z" fill="#0391DD"/>
<path d="M61.3125 63.4219H52.875C51.7091 63.4219 50.7656 62.4784 50.7656 61.3125C50.7656 60.1466 51.7091 59.2031 52.875 59.2031H61.3125C62.4784 59.2031 63.4219 60.1466 63.4219 61.3125C63.4219 62.4784 62.4784 63.4219 61.3125 63.4219Z" fill="#1B1E30"/>
<path d="M50.5133 46.9264C49.3319 54.0982 43.0883 59.2031 36.0008 59.2031C28.9133 59.2031 22.6697 54.0982 21.4883 46.9264C23.429 46.6732 23.8086 46.631 23.8086 46.631C24.0195 46.5891 24.568 46.5468 25.8758 46.3779L26.9305 42.3281C27.1836 41.1467 28.7025 40.3451 29.8414 40.9781C31.7398 41.864 33.8914 42.3281 36.0008 42.3281C38.1101 42.3281 40.2617 41.864 42.1603 40.9781C43.2992 40.3451 44.8181 41.1467 45.0712 42.3281L46.1259 46.3779C48.0242 46.631 48.4462 46.6732 48.4462 46.6732C48.7415 46.7154 49.3741 46.7577 50.5133 46.9264Z" fill="#FFD2A8"/>
<path d="M48.4453 46.6732C48.7406 46.7154 49.3733 46.7577 50.5125 46.9264C49.3311 54.0982 43.0875 59.2031 36 59.2031V42.3281C38.1094 42.3281 40.2609 41.864 42.1595 40.9781C43.2984 40.3451 44.8173 41.1467 45.0705 42.3281L46.1251 46.3779C48.0233 46.631 48.4453 46.6732 48.4453 46.6732Z" fill="#FFC391"/>
<path d="M59.2031 28.5327L53.8875 33.8906L53.8453 33.8484C51.2297 41.2734 44.2266 46.5469 36 46.5469C25.7063 46.5469 17.0156 38.2358 17.0156 27.5625V19.125L21.2344 17.0156H51.9048L54.9844 19.125V21.2344L59.2031 28.5327Z" fill="#FFDDBE"/>
<path d="M59.2031 28.5327L53.8875 33.8906L53.8453 33.8484C51.2297 41.2734 44.2266 46.5469 36 46.5469V17.0156H51.9048L54.9844 19.125V21.2344L59.2031 28.5327Z" fill="#FFCBA0"/>
<path d="M40.2188 0H31.7812C23.6391 0 17.0156 6.62344 17.0156 14.7656V17.0156L21.7406 21.2344H48.1078L54.9844 17.0156V14.7656C54.9844 6.62344 48.3609 0 40.2188 0Z" fill="#21BCF0"/>
<path d="M54.9844 14.7656V17.0156L48.1078 21.2344H36V0H40.2188C48.3609 0 54.9844 6.62344 54.9844 14.7656Z" fill="#0391DD"/>
<path d="M54.9844 17.0156V19.125C54.9844 19.5467 54.8577 19.9688 54.6467 20.3061L51.7358 26.1702C50.6389 28.3219 48.4876 29.6719 46.0406 29.6719H25.9594C23.5124 29.6719 21.3611 28.3219 20.2642 26.1702L17.3533 20.3061C17.3111 20.2219 17.2688 20.1375 17.2266 20.053C17.1001 19.7577 17.0156 19.4624 17.0156 19.125V17.0156H54.9844Z" fill="#2B2D3A"/>
<path d="M54.9844 17.0156V19.125C54.9844 19.5467 54.8577 19.9688 54.6467 20.3061L51.7358 26.1702C50.6389 28.3219 48.4876 29.6719 46.0406 29.6719H36V17.0156H54.9844Z" fill="#1B1E30"/>
<path d="M38.1094 10.5469C38.1094 11.728 37.1814 12.6562 36 12.6562C34.8186 12.6562 33.8906 11.728 33.8906 10.5469C33.8906 9.36548 34.8186 8.4375 36 8.4375C37.1814 8.4375 38.1094 9.36548 38.1094 10.5469Z" fill="#2B2D3A"/>
<path d="M36 12.6562V8.4375C37.1814 8.4375 38.1094 9.36548 38.1094 10.5469C38.1094 11.728 37.1814 12.6562 36 12.6562Z" fill="#1B1E30"/>
<path d="M63.4211 27.5625C63.4211 31.0639 60.5947 33.8906 57.093 33.8906H53.8867C54.6038 31.9499 54.9836 29.7983 54.9836 27.5625V21.2344H57.093C60.5947 21.2344 63.4211 24.0608 63.4211 27.5625Z" fill="#FFC391"/>
</svg>
