<svg width="80" height="80" viewBox="0 0 80 80" fill="none" xmlns="http://www.w3.org/2000/svg">
<g clip-path="url(#clip0_992_35535)">
<path d="M80 40C80 36.25 78.0625 32.7811 75.1094 30.5781C76.5625 27.2498 76.3752 23.3125 74.5 20.0781C72.6252 16.8438 69.3439 14.7344 65.6875 14.3123C65.2656 10.6562 63.1562 7.37484 59.9219 5.5C56.6875 3.625 52.7498 3.4375 49.4219 4.89062C47.2186 1.9375 43.75 0 40 0C36.25 0 32.7814 1.9375 30.5781 4.89062C27.2502 3.4375 23.3125 3.62484 20.0781 5.5C16.8438 7.37484 14.7344 10.6562 14.3127 14.3123C10.6562 14.7344 7.37484 16.8438 5.5 20.0781C3.625 23.3125 3.4375 27.2498 4.89062 30.5781C1.9375 32.7811 0 36.25 0 40C0 43.75 1.9375 47.2186 4.89062 49.4219C3.4375 52.7498 3.62484 56.6875 5.5 59.9219C7.37484 63.1562 10.6561 65.2656 14.3125 65.6873C14.7344 69.3438 16.8438 72.6248 20.0781 74.5C23.3125 76.3752 27.2502 76.5625 30.5781 75.1094C32.7814 78.0625 36.25 80 40 80C43.75 80 47.2186 78.0625 49.4219 75.1094C52.7498 76.5625 56.6875 76.3752 59.9219 74.5C63.1562 72.6248 65.2656 69.3439 65.6873 65.6875C69.3438 65.2656 72.6252 63.1562 74.5 59.9219C76.3752 56.6875 76.5625 52.7498 75.1094 49.4219C78.0625 47.2186 80 43.75 80 40Z" fill="#0391DD"/>
<path d="M75.1094 49.4219C76.5625 52.7498 76.3752 56.6875 74.5 59.9219C72.6252 63.1562 69.3439 65.2656 65.6875 65.6873C65.2656 69.3438 63.1562 72.6248 59.9219 74.5C56.6875 76.3752 52.7498 76.5625 49.4219 75.1094C47.2186 78.0625 43.75 80 40 80V0C43.75 0 47.2186 1.9375 49.4219 4.89062C52.7498 3.4375 56.6875 3.62484 59.9219 5.5C63.1562 7.37484 65.2656 10.6561 65.6873 14.3122C69.3437 14.7344 72.6252 16.8438 74.5 20.0781C76.3752 23.3125 76.5625 27.2498 75.1094 30.5781C78.0625 32.7811 80 36.25 80 40C80 43.75 78.0625 47.2186 75.1094 49.4219Z" fill="#0391DD"/>
<path d="M40 9.53125C23.2186 9.53125 9.53125 23.2186 9.53125 40C9.53125 56.7811 23.2186 70.4688 40 70.4688C56.7814 70.4688 70.4688 56.7811 70.4688 40C70.4688 23.2186 56.7814 9.53125 40 9.53125Z" fill="#21BCF0"/>
<path d="M70.4688 40C70.4688 56.7811 56.7814 70.4688 40 70.4688V9.53125C56.7814 9.53125 70.4688 23.2186 70.4688 40Z" fill="#0391DD"/>
<path d="M30.625 37.6562C26.7478 37.6562 23.5938 34.5022 23.5938 30.625C23.5938 26.7478 26.7478 23.5938 30.625 23.5938C34.5022 23.5938 37.6562 26.7478 37.6562 30.625C37.6562 34.5022 34.5022 37.6562 30.625 37.6562ZM30.625 28.2812C29.3319 28.2812 28.2812 29.3319 28.2812 30.625C28.2812 31.9181 29.3319 32.9688 30.625 32.9688C31.9181 32.9688 32.9688 31.9181 32.9688 30.625C32.9688 29.3319 31.9181 28.2812 30.625 28.2812Z" fill="#EBEEF5"/>
<path d="M49.375 56.4062C45.4978 56.4062 42.3438 53.2522 42.3438 49.375C42.3438 45.4978 45.4978 42.3438 49.375 42.3438C53.2522 42.3438 56.4062 45.4978 56.4062 49.375C56.4062 53.2522 53.2522 56.4062 49.375 56.4062ZM49.375 47.0312C48.0819 47.0312 47.0312 48.0819 47.0312 49.375C47.0312 50.6681 48.0819 51.7188 49.375 51.7188C50.6681 51.7188 51.7188 50.6681 51.7188 49.375C51.7188 48.0819 50.6681 47.0312 49.375 47.0312Z" fill="#DEE4F2"/>
<path d="M51.3435 27.2498L40 44.2655L32.5935 55.3748C31.8906 56.4062 30.4374 56.7344 29.3123 56.0311C28.2343 55.2812 27.9531 53.8281 28.6562 52.7498L40 35.7342L47.4064 24.6248C48.1562 23.5469 49.6093 23.2656 50.6876 23.9686C51.7656 24.7187 52.0468 26.1719 51.3435 27.2498Z" fill="#EBEEF5"/>
<path d="M51.3436 27.2498L40 44.2655V35.7342L47.4064 24.6248C48.1562 23.5469 49.6094 23.2656 50.6877 23.9686C51.7656 24.7187 52.0469 26.1719 51.3436 27.2498Z" fill="#DEE4F2"/>
</g>
<defs>
<clipPath id="clip0_992_35535">
<rect width="80" height="80" fill="white"/>
</clipPath>
</defs>
</svg>
