<svg width="80" height="80" viewBox="0 0 80 80" fill="none" xmlns="http://www.w3.org/2000/svg">
<g clip-path="url(#clip0_992_35592)">
<path d="M67.807 78.0194H48.1339C46.8347 78.0194 45.7813 76.9661 45.7813 75.6667V55.7705H34.2185V75.6669C34.2185 76.9661 33.1651 78.0195 31.8659 78.0195H12.192C10.8928 78.0195 9.83933 76.9663 9.83933 75.6669V42.8979H4.10669C2.3995 42.8979 0.897787 41.8692 0.281069 40.2773C-0.335492 38.6851 0.0815386 36.9134 1.34341 35.7634L37.2371 3.05735C38.8119 1.62189 41.1877 1.62173 42.7632 3.05751L50.925 10.4945V9.18593C50.925 7.88672 51.9785 6.83328 53.2777 6.83328H69.5458C70.845 6.83328 71.8984 7.88656 71.8984 9.18593V29.6051L78.6567 35.7631C79.9189 36.9132 80.3358 38.6851 79.7192 40.2771C79.1025 41.8692 77.6009 42.8977 75.8936 42.8977H70.1597V75.6666C70.1597 76.9661 69.1063 78.0194 67.807 78.0194Z" fill="#21BCF0"/>
<path d="M78.657 35.7629L71.8987 29.6049V9.18577C71.8987 7.88655 70.8454 6.83312 69.546 6.83312H53.2781C51.9789 6.83312 50.9254 7.8864 50.9254 9.18577V10.4942L42.7636 3.05719C41.9758 2.33922 40.9878 1.98031 40 1.98047V55.7704H45.7819V75.6667C45.7819 76.966 46.8351 78.0194 48.1345 78.0194H67.8076C69.1068 78.0194 70.1603 76.9661 70.1603 75.6667V42.8977H75.8942C77.6013 42.8977 79.1031 41.869 79.7198 40.2771C80.336 38.6849 79.9191 36.9131 78.657 35.7629Z" fill="#0391DD"/>
</g>
<defs>
<clipPath id="clip0_992_35592">
<rect width="80" height="80" fill="white"/>
</clipPath>
</defs>
</svg>
