<svg width="72" height="72" viewBox="0 0 72 72" fill="none" xmlns="http://www.w3.org/2000/svg">
<g clip-path="url(#clip0_992_20707)">
<path d="M72 6.32812V16.875L63.3516 21.375H4.05L0 16.875V6.32812C0 2.82642 2.82642 0 6.32812 0H65.6719C69.1736 0 72 2.82642 72 6.32812Z" fill="#21BCF0"/>
<path d="M72 6.32812V16.875L63.3516 21.375H36V0H65.6719C69.1736 0 72 2.82642 72 6.32812Z" fill="#0391DD"/>
<path d="M0 16.875V57.2344C0 60.7358 2.82642 63.5625 6.32812 63.5625H65.6719C69.1736 63.5625 72 60.7358 72 57.2344V16.875H0Z" fill="#EBEEF5"/>
<path d="M63.5625 27.7031C63.5625 28.8842 62.6345 29.8125 61.4531 29.8125H36C34.8186 29.8125 33.8906 28.8842 33.8906 27.7031C33.8906 26.5217 34.8186 25.5938 36 25.5938H61.4531C62.6345 25.5938 63.5625 26.5217 63.5625 27.7031Z" fill="#2B2D3A"/>
<path d="M63.5625 36.1406C63.5625 37.3217 62.6345 38.25 61.4531 38.25H36C34.8186 38.25 33.8906 37.3217 33.8906 36.1406C33.8906 34.9592 34.8186 34.0312 36 34.0312H61.4531C62.6345 34.0312 63.5625 34.9592 63.5625 36.1406Z" fill="#2B2D3A"/>
<path d="M21.0938 30.026V27.7031C21.0938 26.5372 20.1503 25.5938 18.9844 25.5938C17.8185 25.5938 16.875 26.5372 16.875 27.7031C16.875 33.9379 16.875 36.669 16.875 42.8573C16.212 42.6209 15.5087 42.4688 14.7656 42.4688C11.2762 42.4688 8.4375 45.3074 8.4375 48.7969C8.4375 52.2863 11.2762 55.125 14.7656 55.125C18.2551 55.125 21.0938 52.2863 21.0938 48.7969V34.3917C23.5492 35.263 25.3125 37.6093 25.3125 40.3594V44.5781C25.3125 45.744 26.256 46.6875 27.4219 46.6875C28.5878 46.6875 29.5312 45.744 29.5312 44.5781V40.3594C29.5312 35.2665 25.9019 31.006 21.0938 30.026Z" fill="#0391DD"/>
<path d="M72 16.875V57.2344C72 60.7358 69.1736 63.5625 65.6719 63.5625H36V16.875H72Z" fill="#DEE4F2"/>
<path d="M61.4531 38.25H36V34.0312H61.4531C62.6345 34.0312 63.5625 34.9592 63.5625 36.1406C63.5625 37.3217 62.6345 38.25 61.4531 38.25Z" fill="#1B1E30"/>
<path d="M61.4531 29.8125H36V25.5938H61.4531C62.6345 25.5938 63.5625 26.5217 63.5625 27.7031C63.5625 28.8842 62.6345 29.8125 61.4531 29.8125Z" fill="#1B1E30"/>
<path d="M67.2744 62.4236L57.6978 52.8469L60.0602 50.4844C60.6087 49.936 60.8199 49.1344 60.6087 48.4172C60.3977 47.6578 59.7651 47.1094 59.0478 46.9408L41.6243 43.2283C40.9496 43.0594 40.2324 43.3125 39.7262 43.8188C39.2199 44.325 39.0088 45.0423 39.1355 45.7172L42.848 63.1406C43.0167 63.8577 43.5651 64.4906 44.3245 64.7016C45.0415 64.9125 45.8432 64.7016 46.3916 64.1531L48.7541 61.7906L58.3308 71.3673C58.7105 71.7891 59.259 72 59.8073 72C60.3979 72 60.9041 71.7891 61.3262 71.3673L67.2744 65.4188C67.6965 64.997 67.9074 64.4908 67.9074 63.9C67.9074 63.3516 67.6965 62.8031 67.2744 62.4236Z" fill="#1B1E30"/>
<path d="M10.5469 12.6562C11.7119 12.6562 12.6562 11.7119 12.6562 10.5469C12.6562 9.3819 11.7119 8.4375 10.5469 8.4375C9.3819 8.4375 8.4375 9.3819 8.4375 10.5469C8.4375 11.7119 9.3819 12.6562 10.5469 12.6562Z" fill="#EBEEF5"/>
<path d="M18.9844 12.6562C20.1494 12.6562 21.0938 11.7119 21.0938 10.5469C21.0938 9.3819 20.1494 8.4375 18.9844 8.4375C17.8194 8.4375 16.875 9.3819 16.875 10.5469C16.875 11.7119 17.8194 12.6562 18.9844 12.6562Z" fill="#EBEEF5"/>
<path d="M27.4219 12.6562C28.5869 12.6562 29.5312 11.7119 29.5312 10.5469C29.5312 9.3819 28.5869 8.4375 27.4219 8.4375C26.2569 8.4375 25.3125 9.3819 25.3125 10.5469C25.3125 11.7119 26.2569 12.6562 27.4219 12.6562Z" fill="#EBEEF5"/>
<path d="M63.5625 10.5469C63.5625 11.728 62.6345 12.6562 61.4531 12.6562H36C34.8186 12.6562 33.8906 11.728 33.8906 10.5469C33.8906 9.36548 34.8186 8.4375 36 8.4375H61.4531C62.6345 8.4375 63.5625 9.36548 63.5625 10.5469Z" fill="#EBEEF5"/>
<path d="M61.4531 12.6562H36V8.4375H61.4531C62.6345 8.4375 63.5625 9.36548 63.5625 10.5469C63.5625 11.728 62.6345 12.6562 61.4531 12.6562Z" fill="#DEE4F2"/>
</g>
<defs>
<clipPath id="clip0_992_20707">
<rect width="72" height="72" fill="white"/>
</clipPath>
</defs>
</svg>
