<svg width="72" height="72" viewBox="0 0 72 72" fill="none" xmlns="http://www.w3.org/2000/svg">
<g clip-path="url(#clip0_992_20736)">
<path d="M67.6406 14.7656C67.6406 15.9467 66.7126 16.875 65.5312 16.875H54.9844C50.3439 16.875 46.5469 13.078 46.5469 8.4375C46.5469 6.11719 44.6484 4.21875 42.3281 4.21875C40.0078 4.21875 38.1094 6.11719 38.1094 8.4375V14.7656C38.1094 15.9467 37.1814 16.875 36 16.875C34.8186 16.875 33.8906 15.9467 33.8906 14.7656V8.4375C33.8906 6.32812 34.65 4.38736 36 2.91094C37.5187 1.13892 39.797 0 42.3281 0C46.9686 0 50.7656 3.79673 50.7656 8.4375C50.7656 10.7578 52.6641 12.6562 54.9844 12.6562H65.5312C66.7126 12.6562 67.6406 13.5842 67.6406 14.7656Z" fill="#2B2D3A"/>
<path d="M67.6406 14.7656C67.6406 15.9467 66.7126 16.875 65.5312 16.875H54.9844C50.3439 16.875 46.5469 13.078 46.5469 8.4375C46.5469 6.11719 44.6484 4.21875 42.3281 4.21875C40.0078 4.21875 38.1094 6.11719 38.1094 8.4375V14.7656C38.1094 15.9467 37.1814 16.875 36 16.875V2.91094C37.5188 1.13892 39.797 0 42.3281 0C46.9686 0 50.7656 3.79673 50.7656 8.4375C50.7656 10.7578 52.6641 12.6562 54.9844 12.6562H65.5312C66.7126 12.6562 67.6406 13.5842 67.6406 14.7656Z" fill="#1B1E30"/>
<path d="M36 12.6562C32.4983 12.6562 29.6719 15.4827 29.6719 18.9844V23.2031C29.6719 24.3842 30.5999 25.3125 31.7812 25.3125H40.2188C41.4001 25.3125 42.3281 24.3842 42.3281 23.2031V18.9844C42.3281 15.4827 39.5017 12.6562 36 12.6562Z" fill="#2B2D3A"/>
<path d="M40.2188 25.3125H36V12.6562C39.5017 12.6562 42.3281 15.4827 42.3281 18.9844V23.2031C42.3281 24.3842 41.4001 25.3125 40.2188 25.3125Z" fill="#1B1E30"/>
<path d="M63.4219 48.6562V67.4436L59.2031 72H12.7969L8.4375 67.8234L8.57812 48.6562C8.57812 47.4749 9.50611 46.4062 10.6875 46.4062H61.3125C62.4939 46.4062 63.4219 47.4749 63.4219 48.6562Z" fill="#EBEEF5"/>
<path d="M63.4219 48.6562V67.4436L59.2031 72H36V46.4062H61.3125C62.4939 46.4062 63.4219 47.4749 63.4219 48.6562Z" fill="#DEE4F2"/>
<path d="M19.125 63.5625C17.9591 63.5625 17.0156 62.619 17.0156 61.4531V48.6562C17.0156 47.4903 17.9591 46.4062 19.125 46.4062C20.2909 46.4062 21.2344 47.4903 21.2344 48.6562V61.4531C21.2344 62.619 20.2909 63.5625 19.125 63.5625Z" fill="#2B2D3A"/>
<path d="M27.5625 63.5625C26.3966 63.5625 25.4531 62.619 25.4531 61.4531V48.6562C25.4531 47.4903 26.3966 46.4062 27.5625 46.4062C28.7284 46.4062 29.6719 47.4903 29.6719 48.6562V61.4531C29.6719 62.619 28.7284 63.5625 27.5625 63.5625Z" fill="#2B2D3A"/>
<path d="M38.1094 48.6562V61.4531C38.1094 62.6342 37.1814 63.5625 36 63.5625C34.8186 63.5625 33.8906 62.6342 33.8906 61.4531V48.6562C33.8906 47.4749 34.8186 46.4062 36 46.4062C37.1814 46.4062 38.1094 47.4749 38.1094 48.6562Z" fill="#2B2D3A"/>
<path d="M44.4375 63.5625C43.2716 63.5625 42.3281 62.619 42.3281 61.4531V48.6562C42.3281 47.4903 43.2716 46.4062 44.4375 46.4062C45.6034 46.4062 46.5469 47.4903 46.5469 48.6562V61.4531C46.5469 62.619 45.6034 63.5625 44.4375 63.5625Z" fill="#1B1E30"/>
<path d="M52.875 63.5625C51.7091 63.5625 50.7656 62.619 50.7656 61.4531V48.6562C50.7656 47.4903 51.7091 46.4062 52.875 46.4062C54.0409 46.4062 54.9844 47.4903 54.9844 48.6562V61.4531C54.9844 62.619 54.0409 63.5625 52.875 63.5625Z" fill="#1B1E30"/>
<path d="M38.1094 48.6562V61.4531C38.1094 62.6342 37.1814 63.5625 36 63.5625V46.4062C37.1814 46.4062 38.1094 47.4749 38.1094 48.6562Z" fill="#1B1E30"/>
<path d="M72 27.4219V65.6719C72 69.1733 69.1736 72 65.6719 72H59.2031V50.7656H12.7969V72H6.32812C2.82642 72 0 69.1733 0 65.6719V27.4219C0 23.9202 2.82642 21.0938 6.32812 21.0938H19.9266L26.2969 24.3842L28.8703 29.5312H43.1297L45.2812 25.1858L52.0734 21.0938H65.6719C69.1736 21.0938 72 23.9202 72 27.4219Z" fill="#21BCF0"/>
<path d="M72 27.4219V65.6719C72 69.1733 69.1736 72 65.6719 72H59.2031V50.7656H36V29.5312H43.1297L45.2812 25.1858L52.0734 21.0938H65.6719C69.1736 21.0938 72 23.9202 72 27.4219Z" fill="#0391DD"/>
<path d="M14.9062 42.1875C11.4168 42.1875 8.57812 39.3488 8.57812 35.8594C8.57812 32.3699 11.4168 29.5312 14.9062 29.5312C18.3957 29.5312 21.2344 32.3699 21.2344 35.8594C21.2344 39.3488 18.3957 42.1875 14.9062 42.1875Z" fill="#EBEEF5"/>
<path d="M57.0938 42.1875C53.6043 42.1875 50.7656 39.3488 50.7656 35.8594C50.7656 32.3699 53.6043 29.5312 57.0938 29.5312C60.5832 29.5312 63.4219 32.3699 63.4219 35.8594C63.4219 39.3488 60.5832 42.1875 57.0938 42.1875Z" fill="#DEE4F2"/>
<path d="M19.9258 21.0938L25.6633 32.5686C26.043 33.2859 26.7602 33.75 27.5617 33.75H44.4367C45.2383 33.75 45.9555 33.2859 46.3352 32.5686L52.0727 21.0938H19.9258Z" fill="#EBEEF5"/>
<path d="M31.7812 42.1875H27.5625C26.3966 42.1875 25.4531 41.244 25.4531 40.0781C25.4531 38.9122 26.3966 37.9688 27.5625 37.9688H31.7812C32.9472 37.9688 33.8906 38.9122 33.8906 40.0781C33.8906 41.244 32.9472 42.1875 31.7812 42.1875Z" fill="#2B2D3A"/>
<path d="M44.4375 42.1875H40.2188C39.0528 42.1875 38.1094 41.244 38.1094 40.0781C38.1094 38.9122 39.0528 37.9688 40.2188 37.9688H44.4375C45.6034 37.9688 46.5469 38.9122 46.5469 40.0781C46.5469 41.244 45.6034 42.1875 44.4375 42.1875Z" fill="#1B1E30"/>
<path d="M36 21.0938H52.0734L46.3359 32.5686C45.9563 33.2859 45.2391 33.75 44.4375 33.75H36V21.0938Z" fill="#DEE4F2"/>
</g>
<defs>
<clipPath id="clip0_992_20736">
<rect width="72" height="72" fill="white"/>
</clipPath>
</defs>
</svg>
