<svg width="80" height="80" viewBox="0 0 80 80" fill="none" xmlns="http://www.w3.org/2000/svg">
<g clip-path="url(#clip0_992_35528)">
<path d="M63.2059 29.765C62.8145 28.9547 61.9951 28.4375 61.0933 28.4375H46.1358L58.5023 3.39203C58.8662 2.66641 58.8273 1.80359 58.3994 1.11234C57.9714 0.421094 57.2184 0 56.4059 0H39.9997H28.2809C27.2051 0 26.2691 0.7325 26.0081 1.77609L16.6331 39.5886C16.4569 40.2889 16.6148 41.0306 17.0589 41.5981C17.503 42.168 18.185 42.4998 18.9059 42.4998H29.9655L21.3206 77.0884C21.0528 78.1573 21.5655 79.2673 22.5544 79.7572C23.5606 80.2498 24.7433 79.9692 25.4245 79.1209L39.9997 60.9019L62.9245 32.2459C63.4875 31.5411 63.595 30.5775 63.2059 29.765Z" fill="#21BCF0"/>
<path d="M63.2062 29.765C62.8148 28.9547 61.9955 28.4375 61.0936 28.4375H46.1361L58.5026 3.39203C58.8666 2.66641 58.8277 1.80359 58.3997 1.11234C57.9717 0.421094 57.2187 0 56.4062 0H40V60.902L62.9248 32.2461C63.4878 31.5411 63.5953 30.5775 63.2062 29.765Z" fill="#0391DD"/>
</g>
<defs>
<clipPath id="clip0_992_35528">
<rect width="80" height="80" fill="white"/>
</clipPath>
</defs>
</svg>
