<svg width="80" height="80" viewBox="0 0 80 80" fill="none" xmlns="http://www.w3.org/2000/svg">
<g clip-path="url(#clip0_992_35598)">
<path d="M75.1562 16.4062C75.1562 17.7186 74.1252 18.75 72.8125 18.75H61.0938C55.9377 18.75 51.7188 14.5311 51.7188 9.375C51.7188 6.79688 49.6094 4.6875 47.0312 4.6875C44.4531 4.6875 42.3438 6.79688 42.3438 9.375V16.4062C42.3438 17.7186 41.3127 18.75 40 18.75C38.6873 18.75 37.6562 17.7186 37.6562 16.4062V9.375C37.6562 7.03125 38.5 4.87484 40 3.23438C41.6875 1.26547 44.2189 0 47.0312 0C52.1873 0 56.4062 4.21859 56.4062 9.375C56.4062 11.9531 58.5156 14.0625 61.0938 14.0625H72.8125C74.1252 14.0625 75.1562 15.0936 75.1562 16.4062Z" fill="#2B2D3A"/>
<path d="M75.1562 16.4062C75.1562 17.7186 74.1252 18.75 72.8125 18.75H61.0938C55.9377 18.75 51.7188 14.5311 51.7188 9.375C51.7188 6.79688 49.6094 4.6875 47.0312 4.6875C44.4531 4.6875 42.3438 6.79688 42.3438 9.375V16.4062C42.3438 17.7186 41.3127 18.75 40 18.75V3.23438C41.6875 1.26547 44.2189 0 47.0312 0C52.1873 0 56.4062 4.21859 56.4062 9.375C56.4062 11.9531 58.5156 14.0625 61.0938 14.0625H72.8125C74.1252 14.0625 75.1562 15.0936 75.1562 16.4062Z" fill="#1B1E30"/>
<path d="M40 14.0625C36.1092 14.0625 32.9688 17.203 32.9688 21.0938V25.7812C32.9688 27.0936 33.9998 28.125 35.3125 28.125H44.6875C46.0002 28.125 47.0312 27.0936 47.0312 25.7812V21.0938C47.0312 17.203 43.8908 14.0625 40 14.0625Z" fill="#2B2D3A"/>
<path d="M44.6875 28.125H40V14.0625C43.8908 14.0625 47.0312 17.203 47.0312 21.0938V25.7812C47.0312 27.0936 46.0002 28.125 44.6875 28.125Z" fill="#2B2D3A"/>
<path d="M70.4688 54.0625V74.9373L65.7812 80H14.2188L9.375 75.3594L9.53125 54.0625C9.53125 52.7498 10.5623 51.5625 11.875 51.5625H68.125C69.4377 51.5625 70.4688 52.7498 70.4688 54.0625Z" fill="#EBEEF5"/>
<path d="M70.4688 54.0625V74.9373L65.7812 80H40V51.5625H68.125C69.4377 51.5625 70.4688 52.7498 70.4688 54.0625Z" fill="#DEE4F2"/>
<path d="M21.25 70.625C19.9545 70.625 18.9062 69.5767 18.9062 68.2812V54.0625C18.9062 52.767 19.9545 51.5625 21.25 51.5625C22.5455 51.5625 23.5938 52.767 23.5938 54.0625V68.2812C23.5938 69.5767 22.5455 70.625 21.25 70.625Z" fill="#2B2D3A"/>
<path d="M30.625 70.625C29.3295 70.625 28.2812 69.5767 28.2812 68.2812V54.0625C28.2812 52.767 29.3295 51.5625 30.625 51.5625C31.9205 51.5625 32.9688 52.767 32.9688 54.0625V68.2812C32.9688 69.5767 31.9205 70.625 30.625 70.625Z" fill="#2B2D3A"/>
<path d="M42.3438 54.0625V68.2812C42.3438 69.5936 41.3127 70.625 40 70.625C38.6873 70.625 37.6562 69.5936 37.6562 68.2812V54.0625C37.6562 52.7498 38.6873 51.5625 40 51.5625C41.3127 51.5625 42.3438 52.7498 42.3438 54.0625Z" fill="#2B2D3A"/>
<path d="M49.375 70.625C48.0795 70.625 47.0312 69.5767 47.0312 68.2812V54.0625C47.0312 52.767 48.0795 51.5625 49.375 51.5625C50.6705 51.5625 51.7188 52.767 51.7188 54.0625V68.2812C51.7188 69.5767 50.6705 70.625 49.375 70.625Z" fill="#1B1E30"/>
<path d="M58.75 70.625C57.4545 70.625 56.4062 69.5767 56.4062 68.2812V54.0625C56.4062 52.767 57.4545 51.5625 58.75 51.5625C60.0455 51.5625 61.0938 52.767 61.0938 54.0625V68.2812C61.0938 69.5767 60.0455 70.625 58.75 70.625Z" fill="#1B1E30"/>
<path d="M42.3438 54.0625V68.2812C42.3438 69.5936 41.3127 70.625 40 70.625V51.5625C41.3127 51.5625 42.3438 52.7498 42.3438 54.0625Z" fill="#1B1E30"/>
<path d="M80 30.4688V72.9688C80 76.8592 76.8595 80 72.9688 80H65.7812V56.4062H14.2188V80H7.03125C3.14047 80 0 76.8592 0 72.9688V30.4688C0 26.578 3.14047 23.4375 7.03125 23.4375H22.1406L29.2188 27.0936L32.0781 32.8125H47.9219L50.3125 27.9842L57.8594 23.4375H72.9688C76.8595 23.4375 80 26.578 80 30.4688Z" fill="#21BCF0"/>
<path d="M80 30.4688V72.9688C80 76.8592 76.8595 80 72.9688 80H65.7812V56.4062H40V32.8125H47.9219L50.3125 27.9842L57.8594 23.4375H72.9688C76.8595 23.4375 80 26.578 80 30.4688Z" fill="#0391DD"/>
<path d="M16.5625 46.875C12.6853 46.875 9.53125 43.7209 9.53125 39.8438C9.53125 35.9666 12.6853 32.8125 16.5625 32.8125C20.4397 32.8125 23.5938 35.9666 23.5938 39.8438C23.5938 43.7209 20.4397 46.875 16.5625 46.875Z" fill="#EBEEF5"/>
<path d="M63.4375 46.875C59.5603 46.875 56.4062 43.7209 56.4062 39.8438C56.4062 35.9666 59.5603 32.8125 63.4375 32.8125C67.3147 32.8125 70.4688 35.9666 70.4688 39.8438C70.4688 43.7209 67.3147 46.875 63.4375 46.875Z" fill="#DEE4F2"/>
<path d="M22.1406 23.4375L28.5156 36.1873C28.9375 36.9844 29.7344 37.5 30.625 37.5H49.375C50.2656 37.5 51.0625 36.9844 51.4844 36.1873L57.8594 23.4375H22.1406Z" fill="#DEE4F2"/>
<path d="M35.3125 46.875H30.625C29.3295 46.875 28.2812 45.8267 28.2812 44.5312C28.2812 43.2358 29.3295 42.1875 30.625 42.1875H35.3125C36.608 42.1875 37.6562 43.2358 37.6562 44.5312C37.6562 45.8267 36.608 46.875 35.3125 46.875Z" fill="#2B2D3A"/>
<path d="M49.375 46.875H44.6875C43.392 46.875 42.3438 45.8267 42.3438 44.5312C42.3438 43.2358 43.392 42.1875 44.6875 42.1875H49.375C50.6705 42.1875 51.7188 43.2358 51.7188 44.5312C51.7188 45.8267 50.6705 46.875 49.375 46.875Z" fill="#1B1E30"/>
<path d="M40 23.4375H57.8594L51.4844 36.1873C51.0625 36.9844 50.2656 37.5 49.375 37.5H40V23.4375Z" fill="#C4CDE2"/>
</g>
<defs>
<clipPath id="clip0_992_35598">
<rect width="80" height="80" fill="white"/>
</clipPath>
</defs>
</svg>
