<svg width="72" height="72" viewBox="0 0 72 72" fill="none" xmlns="http://www.w3.org/2000/svg">
<g clip-path="url(#clip0_992_20768)">
<path d="M70.4506 18.0118C67.3259 9.69314 60.3446 4.33069 52.9129 4.33069C45.5656 4.33069 40.8363 7.53989 38.1339 10.2421C37.2894 11.0866 36.5715 11.9735 36.0225 12.7758C35.4735 11.9735 34.7558 11.0866 33.9112 10.2421C31.2088 7.53989 26.4796 4.33069 19.1322 4.33069C11.7005 4.33069 4.70506 9.6511 1.6227 17.885C-1.4598 26.119 -0.91094 38.3224 10.0257 47.9077C13.5726 50.9901 26.6064 60.153 34.6292 67.1626C35.0093 67.5003 35.5161 67.6693 36.0228 67.6693C36.5295 67.6693 37.0363 67.5003 37.4164 67.1626C45.4392 60.153 58.2759 50.9901 61.8227 47.9077C72.7591 38.3224 73.4911 26.1615 70.4506 18.0118Z" fill="#21BCF0"/>
<path d="M46.0729 21.3053L36.0231 23.8389L29.1826 25.5278C28.2535 25.739 27.5781 26.5835 27.5781 27.5548V38.4912C26.9026 38.2801 26.2268 38.1114 25.4667 38.1114C21.9618 38.1114 19.1328 40.9403 19.1328 44.4453C19.1328 47.9499 21.9618 50.7792 25.4667 50.7792C28.9716 50.7792 31.8006 47.9499 31.8006 44.4453V29.2017L44.4684 26.0348V34.2687C43.793 34.0576 43.1171 33.8888 42.357 33.8888C38.8521 33.8888 36.0231 36.7178 36.0231 40.2227C36.0231 43.7274 38.8521 46.5566 42.357 46.5566C45.862 46.5566 48.6909 43.7274 48.6909 40.2227V23.3324C48.6909 21.9389 47.3819 20.9676 46.0729 21.3053Z" fill="#2B2D3A"/>
<path d="M61.8233 47.9077C58.2765 50.99 45.4397 60.153 37.417 67.1626C37.0369 67.5003 36.5301 67.6693 36.0234 67.6693V12.7759C36.5724 11.9736 37.2902 11.0867 38.1348 10.2423C40.8372 7.54001 45.5665 4.33081 52.9138 4.33081C60.3455 4.33081 67.3268 9.69341 70.4515 18.0119C73.4918 26.1614 72.7599 38.3224 61.8233 47.9077Z" fill="#0391DD"/>
<path d="M48.6912 23.3324V40.2227C48.6912 43.7274 45.8623 46.5566 42.3573 46.5566C38.8524 46.5566 36.0234 43.7274 36.0234 40.2227C36.0234 36.7178 38.8524 33.8888 42.3573 33.8888C43.1174 33.8888 43.7931 34.0576 44.4687 34.2687V26.0348L36.0236 28.1461V23.8389L46.0733 21.3053C47.3821 20.9676 48.6912 21.9389 48.6912 23.3324Z" fill="#1B1E30"/>
</g>
<defs>
<clipPath id="clip0_992_20768">
<rect width="72" height="72" fill="white"/>
</clipPath>
</defs>
</svg>
