<svg width="80" height="80" viewBox="0 0 80 80" fill="none" xmlns="http://www.w3.org/2000/svg">
<g clip-path="url(#clip0_992_35625)">
<path d="M71.7822 20.77L51.6988 0.686719C51.2594 0.246875 50.6631 0 50.0416 0H16.1509C11.398 0 7.53125 3.86687 7.53125 8.62V71.3803C7.53125 76.1331 11.398 80 16.1509 80H63.8491C68.602 80 72.4688 76.1331 72.4688 71.3803V22.427C72.4686 21.8055 72.2216 21.2094 71.7822 20.77Z" fill="#21BCF0"/>
<path d="M71.7822 20.77L51.6987 0.686719C51.2594 0.246875 50.6631 0 50.0416 0H40V80H63.8487C68.6017 80 72.4686 76.1331 72.4686 71.3803V22.427C72.4686 21.8055 72.2217 21.2094 71.7822 20.77Z" fill="#0391DD"/>
<path d="M39.9997 30.1251C29.0177 30.1251 20.083 39.0598 20.083 50.0418C20.083 61.0239 29.0177 69.9586 39.9997 69.9586C50.9818 69.9586 59.9164 61.0239 59.9164 50.0418C59.9164 39.0598 50.9819 30.1251 39.9997 30.1251Z" fill="#EBEEF5"/>
<path d="M40 30.1251V69.9586C50.982 69.9586 59.9167 61.0239 59.9167 50.0418C59.9167 39.0598 50.9822 30.1251 40 30.1251Z" fill="#DEE4F2"/>
<path d="M38.2242 55.9358C37.6025 55.9358 37.0064 55.689 36.567 55.2491L33.0166 51.6986C32.1013 50.7835 32.1013 49.2994 33.0166 48.3841C33.9317 47.4689 35.4158 47.4689 36.3311 48.3841L38.2242 50.2774L43.667 44.8339C44.5825 43.9188 46.0662 43.9185 46.9817 44.8339C47.897 45.7491 47.897 47.2332 46.9819 48.1488L39.8817 55.249C39.442 55.689 38.8459 55.9358 38.2242 55.9358Z" fill="#6C718F"/>
<path d="M71.7818 20.7699L51.6984 0.68664C51.028 0.016171 50.0201 -0.184298 49.1441 0.178515C48.2684 0.541327 47.6973 1.39586 47.6973 2.34367V16.151C47.6973 20.9041 51.564 24.7707 56.317 24.7707H70.1244C71.0723 24.7707 71.9271 24.1998 72.2898 23.3238C72.6526 22.448 72.4521 21.4401 71.7818 20.7699Z" fill="#0391DD"/>
<path d="M46.9827 44.8339C46.0673 43.9185 44.5836 43.9188 43.668 44.8339L40 48.5022V55.1316L46.9827 48.1489C47.898 47.2332 47.898 45.7491 46.9827 44.8339Z" fill="#1B1E30"/>
</g>
<defs>
<clipPath id="clip0_992_35625">
<rect width="80" height="80" fill="white"/>
</clipPath>
</defs>
</svg>
