<svg width="72" height="72" viewBox="0 0 72 72" fill="none" xmlns="http://www.w3.org/2000/svg">
<g clip-path="url(#clip0_992_20682)">
<path d="M45.5483 8.64844C43.9031 10.5047 42.8484 12.825 42.5953 15.3986C42.4074 16.6189 41.3651 17.3924 40.1061 17.2124C38.7561 17.0014 37.3077 16.875 35.9999 16.875C30.5578 16.875 25.1857 18.7734 21.0514 22.2749H21.0092L15.6094 22.8233L11.6016 18.8155L12.0233 13.3734C18.6045 7.46733 27.1827 4.21875 36 4.21875C38.7423 4.21875 41.6672 4.55639 44.4514 5.18892C45.9156 5.53373 46.6125 7.39125 45.5483 8.64844Z" fill="#21BCF0"/>
<path d="M12.0177 13.2537C4.2878 20.2049 0 29.9714 0 40.2188V53.0157L4.30144 52.606C4.49817 51.645 5.30944 50.9063 6.32812 50.9063H10.5469C11.7128 50.9063 12.6562 49.9628 12.6562 48.7969V40.2188C12.6562 33.2881 15.6506 26.7151 21.0275 22.2635C13.472 14.708 12.0177 13.2537 12.0177 13.2537Z" fill="#2B2D3A"/>
<path d="M67.7818 53.0156H72.0006V40.2187C72.0006 34.9 70.8821 29.6877 68.6758 25.0055C68.0153 23.5974 66.0641 23.3495 65.0916 24.6223C63.5693 26.6163 61.4249 28.1241 59.0519 28.8677C57.885 29.2324 57.269 30.5177 57.7211 31.659C58.7985 34.3721 59.3444 37.345 59.3444 40.2187V48.7968C59.3444 49.9627 60.2878 50.9062 61.4537 50.9062H65.6725C66.8363 50.9062 67.7818 51.8518 67.7818 53.0156Z" fill="#1B1E30"/>
<path d="M10.5469 67.7812H6.32812C2.83866 67.7812 0 64.9426 0 61.4531V53.0156C0 49.5262 2.83866 46.6875 6.32812 46.6875H10.5469C11.7128 46.6875 12.6562 47.631 12.6562 48.7969V65.6719C12.6562 66.8378 11.7128 67.7812 10.5469 67.7812Z" fill="#21BCF0"/>
<path d="M45.5483 8.64844C43.9032 10.5047 42.8485 12.825 42.5953 15.3986C42.4075 16.6189 41.3652 17.3924 40.1061 17.2124C38.7561 17.0014 37.3077 16.875 35.9999 16.875V4.21875C38.7422 4.21875 41.6671 4.55639 44.4513 5.18892C45.9156 5.53373 46.6126 7.39125 45.5483 8.64844Z" fill="#0391DD"/>
<path d="M65.6719 67.7812H61.4531C60.2872 67.7812 59.3438 66.8378 59.3438 65.6719V48.7969C59.3438 47.631 60.2872 46.6875 61.4531 46.6875H65.6719C69.1613 46.6875 72 49.5262 72 53.0156V61.4531C72 64.9426 69.1613 67.7812 65.6719 67.7812Z" fill="#0391DD"/>
<path d="M55.125 0C45.8014 0 38.25 7.55142 38.25 16.875C38.25 26.1983 45.8014 33.75 55.125 33.75C64.4486 33.75 72 26.1983 72 16.875C72 7.55142 64.4486 0 55.125 0Z" fill="#F06262"/>
<path d="M72 16.875C72 26.1983 64.4486 33.75 55.125 33.75V0C64.4486 0 72 7.55142 72 16.875Z" fill="#DF4848"/>
<path d="M59.3438 23.2031C60.5087 23.2031 61.4531 22.2587 61.4531 21.0938C61.4531 19.9288 60.5087 18.9844 59.3438 18.9844C58.1788 18.9844 57.2344 19.9288 57.2344 21.0938C57.2344 22.2587 58.1788 23.2031 59.3438 23.2031Z" fill="#DEE4F2"/>
<path d="M50.9062 14.7656C52.0712 14.7656 53.0156 13.8212 53.0156 12.6562C53.0156 11.4913 52.0712 10.5469 50.9062 10.5469C49.7413 10.5469 48.7969 11.4913 48.7969 12.6562C48.7969 13.8212 49.7413 14.7656 50.9062 14.7656Z" fill="#EBEEF5"/>
<path d="M14.7656 72C11.2762 72 8.4375 69.1613 8.4375 65.6719V48.7969C8.4375 45.3074 11.2762 42.4688 14.7656 42.4688C18.2551 42.4688 21.0938 45.3074 21.0938 48.7969V65.6719C21.0938 69.1613 18.2551 72 14.7656 72Z" fill="#2B2D3A"/>
<path d="M57.2344 72C53.7449 72 50.9062 69.1613 50.9062 65.6719V48.7969C50.9062 45.3074 53.7449 42.4688 57.2344 42.4688C60.7238 42.4688 63.5625 45.3074 63.5625 48.7969V65.6719C63.5625 69.1613 60.7238 72 57.2344 72Z" fill="#1B1E30"/>
<path d="M60.8203 14.1325L55.125 19.828L52.3828 22.57C51.6237 23.4141 50.189 23.4141 49.4298 22.57C48.5861 21.7685 48.5861 20.4187 49.4298 19.617L55.125 13.9217L57.8673 11.1797C58.6689 10.3359 60.0186 10.3359 60.8203 11.1797C61.664 11.9812 61.664 13.331 60.8203 14.1325Z" fill="#EBEEF5"/>
<path d="M60.8203 14.1325L55.125 19.828V13.9217L57.8673 11.1797C58.6689 10.3359 60.0186 10.3359 60.8203 11.1797C61.6641 11.9812 61.6641 13.331 60.8203 14.1325Z" fill="#DEE4F2"/>
</g>
<defs>
<clipPath id="clip0_992_20682">
<rect width="72" height="72" fill="white"/>
</clipPath>
</defs>
</svg>
