<svg width="80" height="80" viewBox="0 0 80 80" fill="none" xmlns="http://www.w3.org/2000/svg">
<path d="M40.0001 80C17.9439 80 0 62.0561 0 40.0001C0 17.944 17.9439 0 40.0001 0C62.0563 0 80.0002 17.9439 80.0002 40.0001C80.0002 62.0563 62.0561 80 40.0001 80Z" fill="#8B91B4"/>
<path d="M39.9998 0C39.9531 0 39.9067 0.00156214 39.8599 0.00171836V79.9983C39.9066 79.9984 39.953 80 39.9998 80C62.0559 80 79.9999 62.0561 79.9999 39.9999C79.9999 17.9437 62.0559 0 39.9998 0V0Z" fill="#6C718F"/>
<path d="M40.0002 75.3137C59.5034 75.3137 75.3138 59.5032 75.3138 40C75.3138 20.4969 59.5034 4.6864 40.0002 4.6864C20.497 4.6864 4.68652 20.4969 4.68652 40C4.68652 59.5032 20.497 75.3137 40.0002 75.3137Z" fill="white"/>
<path d="M40.0003 4.6864C39.9536 4.6864 39.9072 4.68796 39.8604 4.68812V75.3118C39.9071 75.312 39.9535 75.3135 40.0003 75.3135C59.4723 75.3135 75.314 59.472 75.314 39.9999C75.314 20.5278 59.4723 4.6864 40.0003 4.6864Z" fill="#FAFAFA"/>
<path d="M39.8598 42.2535C38.5657 42.2535 37.5166 41.2044 37.5166 39.9103V20.9323C37.5166 19.6382 38.5657 18.5891 39.8598 18.5891C41.1539 18.5891 42.203 19.6382 42.203 20.9323V39.9103C42.203 41.2046 41.1539 42.2535 39.8598 42.2535Z" fill="#2B2D3A"/>
<path d="M39.8599 18.5891V42.2535C41.1539 42.2535 42.2031 41.2044 42.2031 39.9103V20.9323C42.2031 19.6382 41.1539 18.5891 39.8599 18.5891Z" fill="#1B1E30"/>
<path d="M58.859 37.5671H39.8599V42.2536H58.859C60.153 42.2536 61.2022 41.2044 61.2022 39.9104C61.2022 38.6163 60.153 37.5671 58.859 37.5671Z" fill="#1B1E30"/>
<path d="M39.8597 46.94C35.9836 46.94 32.8301 43.7865 32.8301 39.9104C32.8301 36.0341 35.9836 32.8807 39.8597 32.8807C43.736 32.8807 46.8894 36.0341 46.8894 39.9104C46.8894 43.7867 43.736 46.94 39.8597 46.94Z" fill="#2B2D3A"/>
<path d="M39.8599 32.8807V46.94C43.7362 46.94 46.8895 43.7865 46.8895 39.9104C46.8895 36.0342 43.7362 32.8807 39.8599 32.8807Z" fill="#1B1E30"/>
<path d="M39.8598 42.2536C41.1539 42.2536 42.203 41.2045 42.203 39.9104C42.203 38.6162 41.1539 37.5671 39.8598 37.5671C38.5657 37.5671 37.5166 38.6162 37.5166 39.9104C37.5166 41.2045 38.5657 42.2536 39.8598 42.2536Z" fill="#0391DD"/>
<path d="M39.8599 37.5671V42.2536C41.1521 42.2536 42.2031 41.2024 42.2031 39.9104C42.2031 38.6183 41.1521 37.5671 39.8599 37.5671Z" fill="#0391DD"/>
<path d="M68.2838 42.3432C66.9897 42.3432 65.9406 41.2941 65.9406 40C65.9406 25.6961 54.3037 14.0592 39.9999 14.0592C38.7059 14.0592 37.6567 13.0101 37.6567 11.716C37.6567 10.4219 38.7059 9.3728 39.9999 9.3728C56.8878 9.3728 70.6272 23.112 70.6272 40C70.627 41.2941 69.5779 42.3432 68.2838 42.3432Z" fill="#0391DD"/>
<path d="M39.9998 9.3728C39.9527 9.3728 39.9064 9.37718 39.8599 9.37983V14.0522C39.9064 14.055 39.9525 14.0592 39.9998 14.0592C54.3036 14.0592 65.9406 25.6961 65.9406 40C65.9406 41.2941 66.9897 42.3432 68.2838 42.3432C69.5779 42.3432 70.627 41.2941 70.627 40C70.6269 23.112 56.8877 9.3728 39.9998 9.3728Z" fill="#0391DD"/>
<path d="M11.4296 37.4911H11.4359C12.7293 37.4942 13.776 38.5455 13.7729 39.8406C13.7697 41.134 12.7184 42.1806 11.4234 42.1775C10.1299 42.1744 9.08331 41.1231 9.08643 39.8281C9.08956 38.5362 10.1378 37.4911 11.4296 37.4911Z" fill="#2B2D3A"/>
<path d="M13.5481 48.3026C14.4682 48.3026 15.343 48.8494 15.7148 49.7538C16.2084 50.9504 15.6382 52.3189 14.4416 52.8125C13.245 53.3062 11.875 52.7344 11.3814 51.5394C10.8893 50.3428 11.4595 48.9726 12.6561 48.4791C12.9482 48.3589 13.2497 48.3026 13.5481 48.3026Z" fill="#2B2D3A"/>
<path d="M19.6494 57.4786C20.2524 57.4786 20.8538 57.7083 21.3131 58.1708C22.2238 59.0894 22.2191 60.5734 21.3006 61.4841C20.382 62.3964 18.898 62.3902 17.9873 61.4716V61.4732C17.075 60.5547 17.0797 59.0706 17.9982 58.1583C18.4559 57.7052 19.0526 57.4786 19.6494 57.4786Z" fill="#2B2D3A"/>
<path d="M28.7804 63.646C29.0834 63.646 29.3912 63.7054 29.688 63.8303C30.8814 64.3318 31.4407 65.7049 30.9392 66.8984C30.4378 68.092 29.0647 68.6513 27.8712 68.1498C26.6777 67.6484 26.1185 66.2735 26.6199 65.0816C26.9964 64.1851 27.8665 63.646 28.7804 63.646Z" fill="#2B2D3A"/>
<path d="M13.653 31.3455C13.3484 31.3455 13.0391 31.2861 12.7407 31.1598C11.5488 30.6536 10.9927 29.2789 11.4972 28.087C12.0018 26.895 13.3765 26.339 14.5684 26.8436C15.7603 27.348 16.3164 28.7242 15.8119 29.9163C15.4338 30.8083 14.5668 31.3455 13.653 31.3455Z" fill="#2B2D3A"/>
<path d="M19.8451 22.2306C19.2406 22.2306 18.636 21.9978 18.1783 21.5339C17.2691 20.6136 17.2785 19.1296 18.1986 18.2206C19.1187 17.3114 20.6028 17.3191 21.5119 18.2409C22.4211 19.161 22.4117 20.645 21.4916 21.5542C21.0353 22.0055 20.4403 22.2306 19.8451 22.2306Z" fill="#2B2D3A"/>
<path d="M29.0367 16.1522C28.1134 16.1522 27.2386 15.6022 26.8668 14.6947C26.3763 13.4981 26.9496 12.1297 28.1478 11.6392C29.346 11.1485 30.7144 11.7235 31.2033 12.92C31.6939 14.1181 31.1206 15.4867 29.9224 15.9771C29.6318 16.0959 29.3319 16.1522 29.0367 16.1522Z" fill="#2B2D3A"/>
<path d="M67.0562 48.4793C68.2528 48.9727 68.823 50.3429 68.3309 51.5395C67.8373 52.7345 66.4673 53.3063 65.2707 52.8126C64.0741 52.319 63.5039 50.9506 63.9975 49.754C64.3693 48.8495 65.2441 48.3027 66.1642 48.3027C66.4626 48.3026 66.7641 48.3588 67.0562 48.4793Z" fill="#1B1E30"/>
<path d="M61.7138 58.1583C62.6324 59.0706 62.6371 60.5547 61.7248 61.4732C60.8125 62.3917 61.7248 61.4732 61.7248 61.4716C60.8141 62.3902 59.33 62.3964 58.4115 61.4841C57.4929 60.5734 57.4883 59.0894 58.399 58.1708C58.8582 57.7083 59.4597 57.4786 60.0627 57.4786C60.6594 57.4786 61.2561 57.7052 61.7138 58.1583Z" fill="#1B1E30"/>
<path d="M53.0921 65.0816C53.5935 66.2735 53.0343 67.6484 51.8408 68.1498C50.6473 68.6513 49.2742 68.092 48.7727 66.8984C48.2713 65.7049 48.8305 64.3318 50.024 63.8303C50.3208 63.7054 50.6286 63.646 50.9316 63.646C51.8455 63.646 52.7156 64.1851 53.0921 65.0816Z" fill="#1B1E30"/>
<path d="M42.2025 68.1762C42.2103 69.4712 41.1652 70.5256 39.8718 70.5319C38.5783 70.5381 37.5239 69.4931 37.5176 68.1995C37.5098 66.9062 38.5549 65.8517 39.8483 65.8455H39.8593C41.1496 65.8456 42.1978 66.8858 42.2025 68.1762Z" fill="#2B2D3A"/>
<path d="M39.8599 65.8456V70.5314C39.8638 70.5314 39.8677 70.532 39.8716 70.532C41.165 70.5258 42.2101 69.4713 42.2023 68.1763C42.1976 66.886 41.1499 65.846 39.8599 65.8456Z" fill="#1B1E30"/>
</svg>
