<svg width="32" height="32" viewBox="0 0 32 32" fill="none" xmlns="http://www.w3.org/2000/svg">
<path d="M28.6628 6.21729C29.4228 7.19998 30.0662 8.26759 30.58 9.39868L16.0056 20.1428L9.91455 16.3244V11.7307L16.0056 15.5491L28.6628 6.21729Z" fill="#21A038"/>
<path d="M3.69637 16.0001C3.69637 15.794 3.70139 15.5892 3.71145 15.3856L0.0201037 15.2047C0.00753957 15.4686 4.46082e-06 15.735 4.46082e-06 16.0038C-0.0015661 18.1045 0.411602 20.1847 1.21582 22.1252C2.02003 24.0658 3.19945 25.8285 4.68642 27.3121L7.30479 24.6949C6.16016 23.5548 5.25213 22.1998 4.63288 20.7076C4.01362 19.2155 3.69536 17.6156 3.69637 16.0001Z" fill="url(#paint0_linear_853_5987)"/>
<path d="M16.0001 3.69551C16.2061 3.69551 16.4108 3.70306 16.6144 3.71311L16.7991 0.0203231C16.5345 0.00775833 16.2681 0.00147671 16.0001 0.00147671C13.8985 -0.00108619 11.8173 0.411506 9.8757 1.21556C7.9341 2.01962 6.17046 3.19931 4.68604 4.68688L7.3044 7.30538C8.44445 6.16032 9.79959 5.25192 11.2919 4.63241C12.7842 4.0129 14.3842 3.6945 16.0001 3.69551Z" fill="url(#paint1_linear_853_5987)"/>
<path d="M16.001 28.3046C15.795 28.3046 15.5901 28.3046 15.3854 28.2883L15.2007 31.9798C15.4662 31.9932 15.733 31.9999 16.001 31.9999C18.1016 32.0021 20.1819 31.5892 22.1224 30.785C24.063 29.9807 25.8255 28.8008 27.3088 27.3133L24.6954 24.696C23.5552 25.8405 22.2002 26.7484 20.7082 27.3677C19.2161 27.9869 17.6164 28.3054 16.001 28.3046Z" fill="url(#paint2_linear_853_5987)"/>
<path d="M22.9351 5.84264L26.046 3.54957C23.2026 1.24703 19.6534 -0.00639161 15.9946 2.45107e-05V3.69532C18.4721 3.69225 20.8922 4.441 22.9351 5.84264Z" fill="url(#paint3_linear_853_5987)"/>
<path d="M31.9998 16.0002C32.0018 15.0389 31.9177 14.0793 31.7485 13.1329L28.3047 15.671C28.3047 15.7804 28.3047 15.8897 28.3047 16.0002C28.3056 17.7194 27.9452 19.4197 27.247 20.9907C26.5487 22.5617 25.5281 23.9684 24.2515 25.1197L26.7354 27.8652C28.3952 26.3667 29.7216 24.5361 30.6284 22.4922C31.5354 20.4482 32.0026 18.2364 31.9998 16.0002Z" fill="#21A038"/>
<path d="M16.0006 28.3047C14.2813 28.3053 12.5811 27.9448 11.0099 27.2466C9.43887 26.5484 8.03192 25.5279 6.88023 24.2513L4.13623 26.7341C5.63445 28.3943 7.46485 29.7209 9.50875 30.6281C11.5526 31.5352 13.7644 32.0026 16.0006 32V28.3047Z" fill="url(#paint4_linear_853_5987)"/>
<path d="M7.74957 6.88041L5.26689 4.13501C3.60663 5.6332 2.2798 7.46365 1.37245 9.50765C0.465118 11.5516 -0.00247372 13.7635 9.84167e-06 15.9999H3.69638C3.69561 14.2808 4.05603 12.5805 4.75426 11.0095C5.45249 9.43859 6.47296 8.03182 7.74957 6.88041Z" fill="url(#paint5_linear_853_5987)"/>
<defs>
<linearGradient id="paint0_linear_853_5987" x1="5.43399" y1="26.851" x2="1.39551" y2="15.1772" gradientUnits="userSpaceOnUse">
<stop offset="0.14" stop-color="#F1E813"/>
<stop offset="0.3" stop-color="#E6E418"/>
<stop offset="0.58" stop-color="#C9DA26"/>
<stop offset="0.89" stop-color="#A2CC39"/>
</linearGradient>
<linearGradient id="paint1_linear_853_5987" x1="5.74142" y1="5.34025" x2="16.1434" y2="1.37641" gradientUnits="userSpaceOnUse">
<stop offset="0.06" stop-color="#0FA7DF"/>
<stop offset="0.54" stop-color="#0098F8"/>
<stop offset="0.92" stop-color="#0290EA"/>
</linearGradient>
<linearGradient id="paint2_linear_853_5987" x1="14.957" y1="29.7697" x2="26.7195" y2="27.1125" gradientUnits="userSpaceOnUse">
<stop offset="0.12" stop-color="#A2CC39"/>
<stop offset="0.28" stop-color="#86C239"/>
<stop offset="0.87" stop-color="#219F38"/>
</linearGradient>
<linearGradient id="paint3_linear_853_5987" x1="15.2258" y1="1.23765" x2="25.2821" y2="4.34086" gradientUnits="userSpaceOnUse">
<stop offset="0.06" stop-color="#0290EA"/>
<stop offset="0.79" stop-color="#0C89CA"/>
</linearGradient>
<linearGradient id="paint4_linear_853_5987" x1="5.06346" y1="26.2843" x2="16.0095" y2="30.375" gradientUnits="userSpaceOnUse">
<stop offset="0.13" stop-color="#F1E813"/>
<stop offset="0.3" stop-color="#EAE616"/>
<stop offset="0.53" stop-color="#D8DF1F"/>
<stop offset="0.8" stop-color="#BAD52D"/>
<stop offset="0.98" stop-color="#A2CC39"/>
</linearGradient>
<linearGradient id="paint5_linear_853_5987" x1="1.37704" y1="16.4472" x2="5.77111" y2="5.01721" gradientUnits="userSpaceOnUse">
<stop offset="0.07" stop-color="#A2CC39"/>
<stop offset="0.26" stop-color="#81C45E"/>
<stop offset="0.92" stop-color="#0FA7DF"/>
</linearGradient>
</defs>
</svg>
