<svg width="18" height="18" viewBox="0 0 18 18" fill="none" xmlns="http://www.w3.org/2000/svg">
<path d="M9.00001 12.9375C8.92613 12.9376 8.85296 12.9231 8.7847 12.8948C8.71643 12.8666 8.65443 12.8251 8.60226 12.7728L2.97726 7.14777C2.87176 7.04228 2.8125 6.8992 2.8125 6.75001C2.8125 6.60083 2.87176 6.45775 2.97726 6.35226C3.08275 6.24676 3.22583 6.1875 3.37501 6.1875C3.5242 6.1875 3.66728 6.24676 3.77277 6.35226L9.00001 11.5795L14.2273 6.35226C14.3327 6.24676 14.4758 6.1875 14.625 6.1875C14.7742 6.1875 14.9173 6.24676 15.0228 6.35226C15.1283 6.45775 15.1875 6.60083 15.1875 6.75001C15.1875 6.8992 15.1283 7.04228 15.0228 7.14777L9.39777 12.7728C9.34559 12.8251 9.28359 12.8666 9.21533 12.8948C9.14707 12.9231 9.0739 12.9376 9.00001 12.9375V12.9375Z" fill="#B7B7B7"/>
</svg>
