<svg width="16" height="16" viewBox="0 0 16 16" fill="none" xmlns="http://www.w3.org/2000/svg">
<path d="M11.7039 14.4989C11.5113 14.4988 11.3227 14.4437 11.1602 14.3403L8.00811 12.3431C8.00576 12.3414 8.00291 12.3404 7.99998 12.3404C7.99706 12.3404 7.99421 12.3414 7.99186 12.3431L5.06248 14.1991C4.87365 14.3197 4.65281 14.3804 4.42889 14.3734C4.20496 14.3663 3.98837 14.2919 3.80748 14.1597C3.62021 14.0241 3.47825 13.8351 3.40018 13.6174C3.32212 13.3998 3.31159 13.1636 3.36998 12.9399L4.21467 9.61738C4.21695 9.60909 4.21697 9.60035 4.21474 9.59206C4.21251 9.58376 4.20811 9.57621 4.20198 9.57019L1.37523 7.21744C1.21413 7.0836 1.09714 6.90428 1.03956 6.7029C0.981983 6.50153 0.986485 6.28746 1.05248 6.08869C1.11467 5.89259 1.23457 5.71982 1.39651 5.59294C1.55845 5.46606 1.75489 5.39097 1.96017 5.3775L5.65173 5.13794C5.65663 5.13674 5.66111 5.13426 5.66474 5.13075C5.66836 5.12725 5.67099 5.12285 5.67236 5.118L7.04923 1.65088C7.12363 1.45919 7.25423 1.29446 7.4239 1.17831C7.59357 1.06215 7.79439 1 8.00001 1C8.20563 1 8.40645 1.06215 8.57613 1.17831C8.7458 1.29446 8.8764 1.45919 8.95079 1.65088L10.3277 5.11794C10.329 5.12279 10.3316 5.12719 10.3352 5.1307C10.3388 5.13421 10.3433 5.13671 10.3482 5.13794L14.0398 5.3775C14.2451 5.39097 14.4415 5.46604 14.6034 5.5929C14.7654 5.71975 14.8853 5.8925 14.9475 6.08856C15.0135 6.28734 15.018 6.5014 14.9604 6.70278C14.9028 6.90415 14.7858 7.08347 14.6247 7.21731L11.7981 9.57C11.792 9.57603 11.7875 9.5836 11.7853 9.59192C11.7831 9.60024 11.7831 9.60901 11.7854 9.61731L12.6962 13.1999C12.749 13.4025 12.7394 13.6164 12.6687 13.8134C12.598 14.0105 12.4694 14.1816 12.2998 14.3044C12.1267 14.4305 11.9181 14.4986 11.704 14.4989L11.7039 14.4989ZM7.99998 11.3416C8.19226 11.3414 8.38066 11.3958 8.54323 11.4984L11.6955 13.4956C11.6983 13.4975 11.7013 13.499 11.7045 13.5001C11.7122 13.4963 11.7188 13.4906 11.7237 13.4835C11.7272 13.478 11.7293 13.4718 11.7299 13.4653C11.7304 13.4589 11.7295 13.4524 11.727 13.4464L10.8162 9.86369C10.7677 9.67237 10.7741 9.47127 10.8346 9.2834C10.8951 9.09553 11.0073 8.9285 11.1583 8.80144L13.985 6.44875C13.9926 6.44304 13.9979 6.43482 14 6.42556C14.0022 6.4163 14.0009 6.40658 13.9966 6.39813C13.9895 6.37644 13.9822 6.37594 13.975 6.3755L10.2834 6.13594C10.0897 6.1221 9.90388 6.05385 9.74727 5.93905C9.59066 5.82424 9.46965 5.66755 9.39817 5.487L8.02129 2.02C8.01342 2 8.00836 2 7.99998 2C7.99161 2 7.98654 2 7.97861 2.02L6.60173 5.48706C6.53023 5.66759 6.40921 5.82427 6.2526 5.93906C6.096 6.05385 5.91016 6.12209 5.71648 6.13594L2.02498 6.3755C2.01779 6.37594 2.01042 6.37644 2.00336 6.39813C1.99902 6.40658 1.9978 6.4163 1.99993 6.42556C2.00206 6.43482 2.00739 6.44304 2.01498 6.44875L4.84173 8.8015C4.99273 8.92857 5.1049 9.09559 5.1654 9.28344C5.22589 9.47129 5.23227 9.67238 5.18379 9.86369L4.33917 13.1862C4.3297 13.2158 4.32996 13.2478 4.33992 13.2773C4.34989 13.3068 4.36903 13.3323 4.39454 13.3501C4.41297 13.3656 4.43608 13.3745 4.46015 13.3753C4.48422 13.376 4.50785 13.3687 4.52723 13.3544L7.45673 11.4984C7.61929 11.3957 7.80769 11.3413 7.99998 11.3416V11.3416Z" fill="white"/>
</svg>
