<svg width="32" height="32" viewBox="0 0 32 32" fill="none" xmlns="http://www.w3.org/2000/svg">
<path d="M28.7409 8.85277C28.7376 8.84665 28.7351 8.8404 28.7316 8.8344L28.7269 8.8269C28.5479 8.51978 28.2902 8.26598 27.9804 8.09165L16.9805 1.90415C16.6808 1.73687 16.3432 1.64905 16 1.64905C15.6568 1.64905 15.3192 1.73687 15.0195 1.90415L4.01937 8.09165C3.70842 8.26681 3.45001 8.52202 3.271 8.83077C3.26912 8.83415 3.26675 8.83715 3.26475 8.84065C3.26188 8.84602 3.25962 8.85165 3.25662 8.85715C3.08866 9.15571 3.00028 9.49245 3 9.83502V22.1653C3.00026 22.5201 3.09479 22.8685 3.27392 23.1748C3.45306 23.4811 3.71036 23.7343 4.0195 23.9085L15.0196 30.096C15.2967 30.2509 15.6067 30.3376 15.924 30.3488C15.9467 30.3505 15.9694 30.3525 15.9925 30.3528H16.0015C16.033 30.3528 16.064 30.351 16.0949 30.3481C16.4057 30.3343 16.709 30.248 16.9805 30.096L27.9805 23.9085C28.2897 23.7343 28.5471 23.4811 28.7262 23.1747C28.9053 22.8684 28.9998 22.5199 29 22.165V9.83502C28.9997 9.49079 28.9104 9.15248 28.7409 8.8529V8.85277ZM16 3.6474L25.9679 9.2544L22.1404 11.4289L12.055 5.8664L16 3.6474ZM16.1138 14.8526L6.04738 9.24577L10.0049 7.01965L20.1004 12.5878L16.1138 14.8526ZM5 10.9516L15.1134 16.5848L15.0149 27.7985L5 22.1653V10.9516ZM17.0152 27.7816L17.1136 16.5849L21.1278 14.3044V19.0639C21.1278 19.3291 21.2331 19.5835 21.4206 19.771C21.6082 19.9585 21.8625 20.0639 22.1278 20.0639C22.393 20.0639 22.6473 19.9585 22.8349 19.771C23.0224 19.5835 23.1278 19.3291 23.1278 19.0639V13.1681L27 10.9683V22.1651L17.0152 27.7816Z" fill="#2B2D3A"/>
</svg>
