<svg width="18" height="18" viewBox="0 0 18 18" fill="none" xmlns="http://www.w3.org/2000/svg">
<path opacity="0.2" d="M9 15.75C12.7279 15.75 15.75 12.7279 15.75 9C15.75 5.27208 12.7279 2.25 9 2.25C5.27208 2.25 2.25 5.27208 2.25 9C2.25 12.7279 5.27208 15.75 9 15.75Z" fill="#FBB80B"/>
<path d="M11.7053 6.90558L7.96878 10.4724L6.29457 8.87433C6.24122 8.8229 6.17823 8.78252 6.10923 8.7555C6.04022 8.72849 5.96656 8.71538 5.89247 8.71692C5.81838 8.71846 5.74533 8.73463 5.67751 8.76449C5.60969 8.79435 5.54844 8.83732 5.49727 8.89092C5.44611 8.94453 5.40604 9.00771 5.37937 9.07685C5.3527 9.14599 5.33995 9.21972 5.34186 9.29379C5.34377 9.36787 5.3603 9.44084 5.3905 9.50852C5.42069 9.57619 5.46397 9.63723 5.51782 9.68812L7.58037 11.6569C7.68501 11.7567 7.8241 11.8125 7.96874 11.8125C8.11339 11.8125 8.25248 11.7567 8.35711 11.6569L12.4821 7.71937C12.5359 7.66848 12.5792 7.60744 12.6094 7.53977C12.6396 7.4721 12.6561 7.39912 12.658 7.32504C12.6599 7.25097 12.6472 7.17724 12.6205 7.1081C12.5939 7.03896 12.5538 6.97578 12.5026 6.92217C12.4515 6.86857 12.3902 6.8256 12.3224 6.79574C12.2546 6.76588 12.1815 6.74971 12.1074 6.74817C12.0333 6.74663 11.9597 6.75974 11.8907 6.78675C11.8217 6.81377 11.7587 6.85415 11.7053 6.90558V6.90558Z" fill="#FBB80B"/>
<path d="M9 1.6875C7.55373 1.6875 6.13993 2.11637 4.9374 2.91988C3.73486 3.72339 2.7976 4.86544 2.24413 6.20163C1.69067 7.53781 1.54586 9.00811 1.82801 10.4266C2.11017 11.8451 2.80661 13.148 3.82928 14.1707C4.85196 15.1934 6.15492 15.8898 7.57341 16.172C8.99189 16.4541 10.4622 16.3093 11.7984 15.7559C13.1346 15.2024 14.2766 14.2651 15.0801 13.0626C15.8836 11.8601 16.3125 10.4463 16.3125 9C16.3103 7.06128 15.5392 5.20259 14.1683 3.83171C12.7974 2.46082 10.9387 1.6897 9 1.6875V1.6875ZM9 15.1875C7.77623 15.1875 6.57994 14.8246 5.56241 14.1447C4.54488 13.4648 3.75182 12.4985 3.2835 11.3679C2.81518 10.2372 2.69265 8.99314 2.93139 7.79288C3.17014 6.59262 3.75944 5.49011 4.62478 4.62478C5.49012 3.75944 6.59262 3.17014 7.79288 2.93139C8.99314 2.69265 10.2372 2.81518 11.3679 3.2835C12.4985 3.75181 13.4648 4.54488 14.1447 5.56241C14.8246 6.57994 15.1875 7.77623 15.1875 9C15.1856 10.6405 14.5331 12.2132 13.3732 13.3732C12.2132 14.5331 10.6405 15.1856 9 15.1875V15.1875Z" fill="#FBB80B"/>
</svg>
