<svg width="24" height="24" viewBox="0 0 24 24" fill="none" xmlns="http://www.w3.org/2000/svg">
<path opacity="0.2" d="M12 21C16.9706 21 21 16.9706 21 12C21 7.02944 16.9706 3 12 3C7.02944 3 3 7.02944 3 12C3 16.9706 7.02944 21 12 21Z" fill="#2BC277"/>
<path d="M16.1416 9.05994C16.2321 9.06182 16.3214 9.08205 16.4043 9.11853C16.4872 9.15503 16.5625 9.20731 16.625 9.27283C16.6875 9.33831 16.736 9.41593 16.7686 9.50037C16.8011 9.58477 16.8168 9.67459 16.8145 9.76501C16.8121 9.85556 16.7918 9.945 16.7549 10.0277C16.7365 10.0689 16.7144 10.1083 16.6885 10.1449L16.5996 10.2474L11.0996 15.4974C10.9718 15.6195 10.8017 15.6878 10.625 15.6879C10.4483 15.6879 10.2783 15.6194 10.1504 15.4974L7.40039 12.8724H7.39941C7.33364 12.8103 7.28103 12.7354 7.24414 12.6527C7.20723 12.57 7.1869 12.4806 7.18457 12.39C7.18226 12.2997 7.19799 12.2097 7.23047 12.1254C7.26307 12.0409 7.31247 11.9633 7.375 11.8978C7.43742 11.8324 7.51202 11.78 7.59473 11.7435C7.67752 11.7071 7.76699 11.6869 7.85742 11.6849C7.94797 11.6831 8.03871 11.6988 8.12305 11.7318C8.20732 11.7648 8.28445 11.8145 8.34961 11.8773L10.582 14.0082L10.625 14.0492L10.668 14.0082L15.6504 9.25232C15.7156 9.18951 15.7927 9.13981 15.877 9.10681C15.9612 9.07388 16.0512 9.05808 16.1416 9.05994Z" fill="#2BC277" stroke="#2BC277" stroke-width="0.125"/>
<path d="M12 2.25C10.0716 2.25 8.18657 2.82183 6.58319 3.89317C4.97982 4.96452 3.73013 6.48726 2.99218 8.26884C2.25422 10.0504 2.06114 12.0108 2.43735 13.9021C2.81355 15.7934 3.74215 17.5307 5.10571 18.8943C6.46928 20.2579 8.20656 21.1865 10.0979 21.5627C11.9892 21.9389 13.9496 21.7458 15.7312 21.0078C17.5127 20.2699 19.0355 19.0202 20.1068 17.4168C21.1782 15.8134 21.75 13.9284 21.75 12C21.7471 9.41504 20.7189 6.93679 18.8911 5.10894C17.0632 3.2811 14.585 2.25293 12 2.25V2.25ZM12 20.25C10.3683 20.25 8.77326 19.7661 7.41655 18.8596C6.05984 17.9531 5.00242 16.6646 4.378 15.1571C3.75358 13.6496 3.5902 11.9908 3.90853 10.3905C4.22685 8.79016 5.01259 7.32015 6.16637 6.16637C7.32016 5.01259 8.79017 4.22685 10.3905 3.90852C11.9909 3.59019 13.6497 3.75357 15.1571 4.37799C16.6646 5.00242 17.9531 6.05984 18.8596 7.41655C19.7662 8.77325 20.25 10.3683 20.25 12C20.2475 14.1873 19.3775 16.2843 17.8309 17.8309C16.2843 19.3775 14.1873 20.2475 12 20.25V20.25Z" fill="#2BC277"/>
</svg>
