<svg width="18" height="15" viewBox="0 0 18 15" fill="none" xmlns="http://www.w3.org/2000/svg">
<path d="M0.219655 6.96964L6.96965 0.219639C7.0393 0.149993 7.12198 0.0947475 7.21298 0.0570555C7.30397 0.0193634 7.40151 -3.91278e-05 7.5 -3.91364e-05C7.59849 -3.9145e-05 7.69602 0.0193634 7.78702 0.0570554C7.87802 0.0947475 7.9607 0.149993 8.03034 0.219639C8.09999 0.289285 8.15523 0.371963 8.19293 0.46296C8.23062 0.553957 8.25002 0.651487 8.25002 0.749981C8.25002 0.848474 8.23062 0.946005 8.19293 1.037C8.15523 1.128 8.09999 1.21068 8.03034 1.28033L2.56069 6.74998L17.25 6.74998C17.4489 6.74998 17.6397 6.829 17.7803 6.96965C17.921 7.1103 18 7.30107 18 7.49998C18 7.69889 17.921 7.88966 17.7803 8.03031C17.6397 8.17096 17.4489 8.24998 17.25 8.24998L2.56069 8.24998L8.03034 13.7196C8.171 13.8603 8.25002 14.0511 8.25002 14.25C8.25002 14.4489 8.171 14.6397 8.03034 14.7803C7.88969 14.921 7.69892 15 7.5 15C7.30108 15 7.11031 14.921 6.96966 14.7803L0.219655 8.03033C0.150009 7.96068 0.0947603 7.878 0.0570672 7.787C0.0193742 7.69601 -2.73499e-05 7.59848 -2.73586e-05 7.49998C-2.73672e-05 7.40149 0.0193742 7.30396 0.0570672 7.21296C0.0947602 7.12196 0.150008 7.03928 0.219655 6.96964Z" fill="#2B2D3A"/>
</svg>
