<svg width="18" height="15" viewBox="0 0 18 15" fill="none" xmlns="http://www.w3.org/2000/svg">
<path d="M17.7803 8.03036L11.0303 14.7804C10.9607 14.85 10.878 14.9053 10.787 14.9429C10.696 14.9806 10.5985 15 10.5 15C10.4015 15 10.304 14.9806 10.213 14.9429C10.122 14.9053 10.0393 14.85 9.96966 14.7804C9.90001 14.7107 9.84476 14.628 9.80707 14.537C9.76938 14.446 9.74998 14.3485 9.74998 14.25C9.74998 14.1515 9.76938 14.054 9.80707 13.963C9.84476 13.872 9.90001 13.7893 9.96966 13.7197L15.4393 8.25002L0.75 8.25002C0.551088 8.25002 0.360322 8.171 0.21967 8.03035C0.0790178 7.8897 0 7.69893 0 7.50002C0 7.30111 0.0790178 7.11034 0.21967 6.96969C0.360322 6.82904 0.551088 6.75002 0.75 6.75002L15.4393 6.75002L9.96966 1.28036C9.829 1.13971 9.74998 0.948937 9.74998 0.750019C9.74998 0.551102 9.829 0.360331 9.96966 0.219675C10.1103 0.0790195 10.3011 0 10.5 0C10.6989 0 10.8897 0.0790195 11.0303 0.219675L17.7803 6.96968C17.85 7.03932 17.9052 7.122 17.9429 7.213C17.9806 7.30399 18 7.40152 18 7.50002C18 7.59851 17.9806 7.69604 17.9429 7.78704C17.9052 7.87804 17.85 7.96072 17.7803 8.03036Z" fill="#2B2D3A"/>
</svg>
