<svg width="18" height="18" viewBox="0 0 18 18" fill="none" xmlns="http://www.w3.org/2000/svg">
<path d="M5.625 14.125C6.2118 14.125 6.6875 14.6007 6.6875 15.1875C6.6875 15.7743 6.2118 16.25 5.625 16.25C5.0382 16.25 4.5625 15.7743 4.5625 15.1875C4.5625 14.6007 5.0382 14.125 5.625 14.125Z" fill="#2B2D3A" stroke="#2B2D3A" stroke-width="0.125"/>
<path d="M12.9375 14.125C13.5243 14.125 14 14.6007 14 15.1875C14 15.7743 13.5243 16.25 12.9375 16.25C12.3507 16.25 11.875 15.7743 11.875 15.1875C11.875 14.6007 12.3507 14.125 12.9375 14.125Z" fill="#2B2D3A" stroke="#2B2D3A" stroke-width="0.125"/>
<path d="M2.97322 5.0625H15.5893L13.7331 11.5591C13.666 11.7941 13.5241 12.0009 13.3289 12.1481C13.1337 12.2954 12.8959 12.375 12.6514 12.375H5.91109C5.66662 12.375 5.42879 12.2954 5.23362 12.1481C5.03844 12.0009 4.89654 11.7941 4.82938 11.5591L2.28621 2.65797C2.25262 2.54044 2.18167 2.43704 2.08408 2.36343C1.9865 2.28982 1.86759 2.25 1.74535 2.25H0.5625" stroke="#2B2D3A" stroke-linecap="round" stroke-linejoin="round"/>
</svg>
