<svg width="36" height="32" viewBox="0 0 36 32" fill="none" xmlns="http://www.w3.org/2000/svg">
<path d="M35.5327 14.9687L36 13.4796L34.454 13.5278C34.3234 13.5278 33.3739 13.501 32.4528 12.8362C32.5215 12.8429 32.5901 12.8523 32.6602 12.8523C33.6082 12.8523 34.5254 12.2839 34.893 11.4718L35.5582 10.0041C34.7246 10.0148 33.9624 9.91025 33.9624 9.91025C33.9557 9.90899 33.3551 9.83252 32.6602 9.1262C32.1619 8.6196 31.5451 8.35155 30.8771 8.35155C30.5849 8.35155 30.3237 8.40377 30.0987 8.47481C30.1337 8.35553 30.1674 8.23493 30.1863 8.11028C30.399 6.73647 29.5103 5.68835 29.5103 5.68966L28.348 4.25687L27.6276 5.94028C27.6249 5.94566 27.443 6.33968 27.1172 6.5327C27.0188 6.03814 26.7777 5.48189 26.262 4.94984C25.2897 3.94725 24.1059 3.79848 23.4865 3.79848C23.1997 3.79848 22.9949 3.82928 22.9451 3.83735L21.5418 4.11209C21.6227 3.79979 21.795 3.25698 22.1102 2.76778L22.8845 1.56688L20.9358 1.78802L20.315 0.475826L19.1137 1.09236L18.0027 0L16.8944 1.09236L15.689 0.475826L15.0696 1.78802L13.1222 1.56688L13.8979 2.76778C14.2131 3.25698 14.3854 3.79848 14.4649 4.11078L13.1264 3.84809L13.0805 3.84003C13.0131 3.82928 12.8098 3.79848 12.5216 3.79848C11.9022 3.79848 10.7184 3.94857 9.74874 4.94984C9.23161 5.48058 8.99057 6.03814 8.89093 6.5327C8.56773 6.34238 8.38723 5.95372 8.38723 5.95372L7.66546 4.26087L6.48432 5.70303C6.34029 5.88936 5.62791 6.8745 5.82177 8.11293C5.84201 8.23625 5.87437 8.35692 5.90937 8.4762C5.6858 8.40516 5.42453 8.35281 5.13228 8.35281C4.46437 8.35281 3.84753 8.62092 3.34794 9.12752C2.65567 9.83126 2.05776 9.91025 2.06318 9.91025C2.06318 9.91025 1.43153 10.0229 0.453831 10.0055L1.1151 11.4731C1.48272 12.2867 2.40121 12.8536 3.34794 12.8536C3.41926 12.8536 3.48794 12.8443 3.558 12.8375C2.63953 13.5024 1.69016 13.5292 1.57568 13.5305L0 13.4796L0.476737 14.9674C0.716452 15.734 1.51774 17.0046 3.05298 17.1413C2.88599 17.8383 2.51567 18.6184 1.70227 18.9547L0.52931 19.4359L1.16897 20.5443C1.52985 21.1421 2.377 21.8418 3.58361 21.8418C3.84482 21.8405 4.09664 21.8149 4.33912 21.7641C4.40105 22.0375 4.47912 22.3109 4.57069 22.5816C4.93029 23.6459 4.62051 24.3884 4.61654 24.3964L4.03742 25.604L5.33024 25.9431C5.34639 25.9485 5.73695 26.0544 6.22576 26.0544C6.448 26.0544 6.65946 26.0316 6.85881 25.9846C7.00959 25.9498 7.15369 25.9029 7.29237 25.8467C7.45937 26.1455 7.66275 26.4176 7.89981 26.6616C8.72797 27.5073 9.90098 27.9362 11.3877 27.9362H11.3931L12.4543 27.9228L10.2619 28.8288L11.9264 29.629C12.531 29.9226 13.2489 30.2697 13.9787 30.535L13.7714 31.1006L14.3451 31.3607C14.3962 31.3835 15.4992 31.8754 17.3334 31.9799C17.3334 31.9799 17.7764 32 18.0202 32C18.264 32 18.7016 31.9785 18.7016 31.9785C20.5237 31.8713 21.6186 31.3848 21.6698 31.3607L22.2448 31.0993L22.0347 30.5324C22.7862 30.2589 23.5295 29.8985 24.1086 29.6169L25.7422 28.8275L23.5565 27.9201L24.6218 27.9335C26.1098 27.9335 27.2842 27.5046 28.111 26.6575C28.3467 26.415 28.5501 26.1428 28.7184 25.8439C28.8571 25.9003 29.0025 25.9472 29.1534 25.982C29.3513 26.0289 29.5627 26.0517 29.785 26.0517C30.2657 26.0517 30.6603 25.9458 30.6711 25.9431L31.9693 25.6014L31.4037 24.4165C31.3902 24.3856 31.0805 23.6445 31.44 22.579C31.5316 22.3068 31.6084 22.0334 31.6704 21.7613C31.9141 21.8123 32.1686 21.8391 32.4312 21.8391C33.9678 21.8391 34.7045 20.7629 34.8472 20.5296L35.4802 19.4332L34.3072 18.9534C33.4924 18.617 33.1234 17.8356 32.9578 17.1399C34.4715 17.0113 35.2849 15.7407 35.5327 14.9687ZM14.5673 4.6241L14.5511 4.62816L14.5645 4.61072L14.5673 4.6241Z" fill="white"/>
<path d="M18.0055 4.55835C16.7638 4.55966 15.8332 4.96444 15.6299 5.44026L18.0055 6.37311L20.3811 5.44026C20.1791 4.96444 19.2485 4.55966 18.0055 4.55835Z" fill="white"/>
<path d="M18.0295 29.2536H18.0269H18.0066H17.9838H17.9824C17.2296 29.259 16.194 29.1049 15.6943 28.9601L15.0938 30.5778C15.4897 30.7186 16.831 30.9867 18.0066 30.9867C19.1796 30.9867 20.5223 30.7172 20.9169 30.5778L20.3176 28.9601C19.8166 29.1061 18.7823 29.259 18.0295 29.2536Z" fill="white"/>
<path d="M22.5743 27.6451C22.1271 27.8971 21.1293 28.2751 20.5488 28.4507L21.0363 29.787C21.9346 29.543 22.6753 29.2576 23.288 28.952L22.2766 28.6169L22.5743 27.6451Z" fill="white"/>
<path d="M13.4403 27.6451L13.7393 28.6169L12.7266 28.952C13.3379 29.2576 14.0826 29.543 14.9768 29.787L15.4644 28.4507C14.8866 28.2751 13.8874 27.8958 13.4403 27.6451Z" fill="white"/>
<path d="M18.0033 3.01161C18.9393 3.01161 19.8578 3.23413 20.5635 3.62554C20.6281 3.40971 20.7183 3.14833 20.8409 2.87497L20.5742 2.90708L20.2941 2.93657L20.1756 2.68325L19.8188 1.93269L19.1683 2.27048L18.9151 2.39914L18.7131 2.20075L18.0061 1.50378L17.3004 2.20075L17.0984 2.39914L16.8452 2.27048L16.1907 1.93269L15.8379 2.68325L15.7167 2.93657L15.4366 2.90708L15.1699 2.87497C15.2925 3.14971 15.3814 3.40971 15.4473 3.62554C16.1544 3.23413 17.0701 3.01161 18.0033 3.01161Z" fill="white"/>
<path d="M32.2942 11.6861C32.4153 11.7277 32.5392 11.7464 32.6618 11.7464C33.1911 11.7464 33.7028 11.406 33.8792 11.0159C33.8792 11.0159 32.9082 10.957 31.8646 9.90214C31.5319 9.56035 31.1805 9.4585 30.8788 9.4585C30.4101 9.4585 30.0586 9.70507 30.0586 9.70507C31.3191 10.3726 31.5764 11.4449 32.2942 11.6861Z" fill="white"/>
<path d="M3.34889 11.7464C3.47142 11.7464 3.59534 11.7277 3.71384 11.6861C4.43436 11.4449 4.69292 10.3726 5.95339 9.70507C5.95339 9.70507 5.60054 9.4585 5.13456 9.4585C4.8316 9.4585 4.48007 9.56035 4.14615 9.90214C3.10375 10.957 2.13281 11.0159 2.13281 11.0159C2.30649 11.406 2.81958 11.7464 3.34889 11.7464Z" fill="white"/>
<path d="M32.6355 16.0437C32.6572 16.045 32.676 16.045 32.6988 16.045C34.02 16.045 34.4684 14.6364 34.4684 14.6364H34.4428C34.2004 14.6364 32.2356 14.58 30.8471 12.8229C29.9327 11.6675 29.184 10.6516 27.7039 10.2522L27.5585 10.2267L27.5262 10.0793C27.4858 9.85406 27.6406 9.64367 27.9921 9.41585C30.0337 8.08491 28.648 6.38804 28.648 6.38804C28.648 6.38804 28.0649 7.74577 26.7599 7.74577C26.729 7.74577 26.6953 7.74444 26.6629 7.74444C26.5148 7.73642 26.372 7.73106 26.228 7.70024L25.9869 7.65333C25.9869 7.65333 26.3586 6.64676 25.4617 5.72188C24.7856 5.02361 23.9628 4.90564 23.4874 4.90564C23.2477 4.90564 23.0956 4.93651 23.0956 4.93651C23.5467 5.52356 23.8726 6.49664 23.3514 7.09703C22.9016 7.6131 21.8027 7.63855 21.8027 8.40789C21.8027 8.73358 22.1084 9.11428 22.6579 9.45601C24.3102 10.4921 25.9506 11.8659 26.632 13.7075C27.4845 16.0048 26.5243 17.5287 25.1533 18.4026C25.1533 18.4026 25.583 18.7966 26.2064 18.8463C26.333 18.8583 26.4569 18.8637 26.5727 18.8637C27.8885 18.8637 28.5686 18.2498 28.5686 18.2498C28.5686 18.2498 28.4567 19.0982 27.7713 19.8864C27.1397 20.6141 26.3101 21.0417 25.0456 21.0605C25.0456 21.0605 25.0052 21.6449 25.5654 22.1501C25.9236 22.4691 26.7519 22.5737 26.7519 22.5737C26.7519 22.5737 25.2018 22.8859 25.0308 25.1645C24.9378 26.3989 24.6213 26.8278 24.6213 26.8278H24.6496C28.2467 26.8278 28.1537 23.7572 28.1537 23.7572C28.1537 23.7572 28.4042 24.6659 29.4076 24.9031C29.5287 24.9353 29.658 24.9474 29.7819 24.9474C30.1051 24.9474 30.3853 24.8723 30.3853 24.8723C30.3853 24.8723 29.86 23.7693 30.3812 22.2265C30.8135 20.9466 30.7434 19.9976 30.7434 19.9976C30.7434 19.9976 31.2283 20.7267 32.4296 20.7334H32.4417C33.4422 20.7334 33.8785 19.9788 33.8785 19.9788C31.4801 18.9883 31.7171 15.7904 31.7171 15.7904C31.7171 15.7904 32.0282 16.0209 32.6355 16.0437ZM31.9137 19.3837C30.9387 18.9052 30.3219 17.6346 30.1724 17.1763C30.0109 19.696 28.7746 21.4451 27.3296 23.1286C26.5795 24.0011 26.3182 24.8495 26.3182 24.8495C26.3182 24.8495 26.4623 23.8885 27.1114 23.1057C28.4595 21.4934 29.7401 19.4869 29.8358 17.1668C29.9017 15.5477 29.4829 14.2343 28.8298 13.1526C29.1947 14.2798 29.1436 15.6604 27.9033 16.9484C27.9033 16.9484 30.3718 14.0037 26.9202 10.9853C25.5385 9.83664 24.0275 9.12766 23.2491 8.62498C26.061 9.53778 27.4333 8.53253 27.4333 8.53253C26.535 9.30724 25.3728 9.29386 24.6524 9.1826C24.8476 9.27782 25.0509 9.37695 25.2705 9.49358C27.6406 10.7749 29.7711 12.8832 30.1347 15.8038V15.781C30.6869 18.6479 31.9137 19.3837 31.9137 19.3837Z" fill="white"/>
<path d="M9.25473 22.5737C9.25473 22.5737 10.0829 22.4705 10.4412 22.1501C11 21.6449 10.961 21.0605 10.961 21.0605C9.69504 21.0431 8.86688 20.6141 8.23119 19.8877C7.55116 19.0996 7.43803 18.2511 7.43803 18.2511C7.43803 18.2511 8.11805 18.865 9.43244 18.865C9.551 18.865 9.67354 18.8597 9.80011 18.8476C10.4236 18.798 10.8545 18.404 10.8545 18.404C9.48365 17.5301 8.5221 16.0048 9.37322 13.7075C10.056 11.8673 11.6949 10.4921 13.3473 9.45601C13.8968 9.11428 14.2025 8.73491 14.2025 8.40789C14.2025 7.63855 13.1049 7.6131 12.6552 7.09703C12.1339 6.49664 12.4612 5.52218 12.911 4.93651C12.911 4.93651 12.7615 4.90564 12.5204 4.90564C12.0464 4.90564 11.2235 5.02361 10.5476 5.72188C9.64793 6.64676 10.021 7.65333 10.021 7.65333L9.77993 7.70024C9.63583 7.73106 9.49172 7.73642 9.34491 7.74444C9.3113 7.74444 9.28159 7.74577 9.2493 7.74577C7.94166 7.74577 7.36121 6.38941 7.36121 6.38941C7.36121 6.38941 5.97543 8.08617 8.01576 9.41711C8.36722 9.645 8.52072 9.85546 8.48036 10.0806L8.448 10.2281L8.29986 10.2535C6.82258 10.6529 6.07249 11.6689 5.15805 12.8243C3.77227 14.5787 1.81014 14.6364 1.56506 14.6364H1.53809C1.53809 14.6364 1.98653 16.045 3.30767 16.045C3.32918 16.045 3.34803 16.045 3.37092 16.0437C3.97837 16.0222 4.29079 15.7904 4.29079 15.7904C4.29079 15.7904 4.52507 18.987 2.12931 19.9788C2.12931 19.9788 2.56566 20.7334 3.56624 20.7334H3.57835C4.78092 20.7267 5.26444 19.9976 5.26444 19.9976C5.26444 19.9976 5.19437 20.9466 5.62529 22.2265C6.14652 23.7693 5.62404 24.8723 5.62404 24.8723C5.62404 24.8723 5.9041 24.9474 6.22599 24.9474C6.35117 24.9474 6.47919 24.9353 6.59901 24.9031C7.60092 24.6659 7.8528 23.7572 7.8528 23.7572C7.8528 23.7572 7.76116 26.8278 11.3582 26.8278H11.3839C11.3839 26.8278 11.0687 26.3989 10.9771 25.1645C10.8047 22.8859 9.25473 22.5737 9.25473 22.5737ZM8.67699 23.1286C7.23193 21.4451 5.99706 19.696 5.83404 17.1763C5.68464 17.6332 5.07045 18.9052 4.09554 19.3837C4.09554 19.3837 5.32101 18.6479 5.87175 15.781V15.8038C6.23677 12.8846 8.36589 10.7749 10.7374 9.49358C10.9543 9.37556 11.1602 9.27643 11.3542 9.1826C10.6337 9.29386 9.47154 9.30724 8.57332 8.53253C8.57332 8.53253 9.9456 9.53778 12.7561 8.62498C11.9777 9.12766 10.4681 9.83664 9.08634 10.9853C5.63343 14.0037 8.10329 16.9484 8.10329 16.9484C6.86161 15.659 6.81179 14.2798 7.17675 13.1526C6.52226 14.2355 6.10471 15.5477 6.17213 17.1668C6.26635 19.4869 7.54706 21.4934 8.89248 23.1057C9.54287 23.8872 9.68968 24.8495 9.68968 24.8495C9.68968 24.8495 9.42569 24.0011 8.67699 23.1286Z" fill="white"/>
<path d="M15.3452 11.3472C15.4045 11.4102 15.4624 11.4786 15.5176 11.5469C15.5311 11.563 15.5432 11.5778 15.5566 11.5965C15.6078 11.6649 15.6604 11.7373 15.7101 11.811C15.7209 11.8257 15.7317 11.8431 15.7438 11.8606C15.8044 11.9517 15.861 12.0455 15.9176 12.142C16.4361 13.0334 17.2669 13.5655 18.0036 13.5668C18.7416 13.5655 19.5698 13.0334 20.091 12.142C20.1489 12.0429 20.2068 11.9464 20.2674 11.8565C20.2768 11.8431 20.2862 11.8311 20.2943 11.8176C20.3455 11.7413 20.3994 11.6662 20.4559 11.5939C20.468 11.5778 20.4788 11.5644 20.4895 11.551C20.5475 11.4799 20.6067 11.4102 20.6673 11.3459C20.6782 11.3352 20.6862 11.3258 20.6956 11.3177C20.9596 11.0484 21.2748 10.8433 21.6868 10.7294L21.5037 10.6235H21.4928L20.763 10.2012L20.0129 9.77368L18.009 10.8593L18.0036 10.8553L17.9996 10.8593L15.9943 9.77368L15.2455 10.1999L14.5143 10.6221H14.5062L14.3203 10.728C14.7338 10.8419 15.0476 11.0443 15.3129 11.3138C15.325 11.3245 15.3331 11.3366 15.3452 11.3472ZM17.1929 11.2601H18.0413H18.8883V11.8391C18.689 11.5965 18.3012 11.6461 18.3012 11.6461V12.4812C18.3012 12.4812 18.316 12.8913 18.4601 13.0696H18.0413H17.6211C17.7679 12.8926 17.7814 12.4812 17.7814 12.4812V11.6461C17.7814 11.6461 17.3949 11.5965 17.1929 11.8391V11.2601Z" fill="white"/>
<path d="M17.8333 10.1368V6.74724L15.665 6.01538L16.2374 9.30058L17.8333 10.1368ZM17.3673 7.5796V8.12371L17.2623 8.07546C17.2569 8.07149 17.1033 8.03657 16.834 7.82485C16.3895 7.48173 16.3815 7.16544 16.3815 7.16544L17.3673 7.5796Z" fill="white"/>
<path d="M19.7758 9.30058L20.3455 6.01538L18.1787 6.74724V10.1368L19.7758 9.30058ZM18.6446 7.5796L19.6304 7.16677C19.6304 7.16677 19.6223 7.48305 19.1766 7.82617C18.9086 8.03796 18.7537 8.07275 18.7483 8.07686L18.6432 8.1251V7.5796H18.6446Z" fill="white"/>
<path d="M14.7671 17.9952C14.9785 18.0716 15.2344 18.0878 15.365 18.0878C15.3704 18.0716 15.3772 18.0516 15.3839 18.0274C15.396 17.9885 15.4067 17.951 15.4149 17.9082C15.4512 17.7205 15.4647 17.5074 15.4673 17.3707C15.3785 17.3157 15.2532 17.2179 15.1832 17.0718C15.1024 16.9029 14.9879 16.8252 14.8195 16.8252C14.6015 16.8252 14.3671 16.9552 14.2675 17.0168C14.188 17.4846 14.5341 17.9095 14.7671 17.9952Z" fill="white"/>
<path d="M19.5562 16.1962C19.1536 16.6317 18.3658 17.3904 18.3267 17.4292L18.2795 17.4775L15.7895 17.4386C15.7881 17.684 15.7478 17.893 15.7087 18.0458C15.702 18.0713 15.6952 18.0981 15.6885 18.1249L18.6512 18.6543C18.9596 18.4398 19.808 17.8232 20.1366 17.582C19.8969 17.2336 19.8741 16.8208 19.9279 16.5299C19.7717 16.4294 19.6518 16.3168 19.5562 16.1962Z" fill="white"/>
<path d="M19.8973 13.2155C19.3236 13.7826 18.7728 13.9916 18.2813 14.0399C18.1924 14.0492 18.1022 14.0546 18.0106 14.0546H18.0039H17.9985C17.9069 14.0546 17.8153 14.0492 17.7265 14.0399C17.6403 14.0318 17.5501 14.0184 17.4598 13.9983C17.4275 14.1257 17.387 14.3924 17.503 14.6443C17.6066 14.8735 17.818 15.0437 18.1264 15.1564L18.2301 15.1966L18.2315 15.3078C18.2315 15.3413 18.2557 16.0624 19.0462 16.2621C19.1755 16.1294 19.2927 16.0101 19.3789 15.911C19.2172 15.533 19.3021 15.147 19.5364 14.958C19.5256 14.9982 19.4233 15.9445 20.1855 16.2956L20.3107 16.3546L20.2731 16.4872C20.261 16.5275 20.0064 17.4429 20.9289 17.7833L21.0919 17.845L21.0191 18.0032C21.003 18.0381 20.6407 18.869 21.4931 19.3408H23.3422V17.8799C22.685 17.7995 22.4062 17.274 22.3349 16.9014C22.0291 16.8492 21.7922 16.7178 21.6305 16.5033C21.2427 15.9954 21.5767 15.5303 21.5807 15.5048C21.5793 15.5089 21.5807 16.0048 21.8877 16.3104C22.04 16.4578 22.2204 16.5717 22.4938 16.5972L22.6284 16.6092L22.6406 16.7459C22.6433 16.7754 22.7173 17.4456 23.3436 17.5515L23.3422 14.568C23.3422 14.1055 23.4782 13.6404 23.6412 13.2115H19.8973V13.2155Z" fill="white"/>
<path d="M14.9209 14.5827L14.8711 16.4832L15.0879 16.5154L15.6185 14.6926L15.3491 14.1323L14.9209 14.5827Z" fill="white"/>
<path d="M20.7705 23.2988C20.7867 23.2988 20.8055 23.3015 20.8231 23.3055C21.153 23.3993 21.2365 24.5841 21.8156 24.6901C21.8721 24.7021 21.9246 24.7048 21.9704 24.7048C22.1374 24.7048 22.237 24.6337 22.3448 24.5078C22.3448 24.5078 22.0539 24.0521 21.8358 23.7451C21.5462 23.343 21.3214 22.8565 20.7826 22.8565C20.7705 22.8565 20.7543 22.8565 20.7409 22.8578C20.5631 22.8672 20.4541 22.953 20.4541 22.953C20.2359 22.8163 20.0325 22.7694 19.848 22.7694C19.51 22.7694 19.2474 22.9235 19.1168 22.9235H19.1114L17.9074 22.8055C17.7189 22.7881 17.5708 22.5992 17.5169 22.5254C17.5034 22.5053 17.4967 22.4932 17.4967 22.4932C17.4967 22.4611 17.4967 22.4276 17.494 22.3981C17.4536 21.4183 16.6914 20.9988 16.4207 20.9921C16.4207 20.9921 16.453 20.8058 16.379 20.7348L16.1137 21.0551L15.2423 20.6195L15.8631 21.3419L15.3366 21.9303C15.2706 21.9974 15.2787 22.0885 15.3056 22.126L15.5332 22.3257L15.8214 22.1514C15.8363 22.1408 15.8619 22.138 15.8941 22.138C15.9735 22.138 16.0934 22.1582 16.2011 22.1582C16.3183 22.1582 16.4207 22.1327 16.4328 22.0228C16.3965 22.386 16.0584 23.0173 16.2807 23.5132L16.445 23.8872L15.381 23.7344L14.8828 24.572C14.7293 24.8509 14.7049 25.1525 14.8531 25.3159L15.039 25.5479C15.039 25.5479 15.3003 25.2717 15.3595 25.0908L15.2747 24.9983C15.2033 24.9205 15.2073 24.8509 15.2504 24.7665L15.5628 24.2504L16.8193 24.5453L16.8853 24.4327C16.9702 24.2919 17.0927 24.2491 17.2274 24.2491C17.2826 24.2491 17.3391 24.2558 17.3984 24.2652C17.6314 24.3108 18.0152 24.3724 18.399 24.3724C18.8205 24.3724 19.238 24.2973 19.4602 24.0494C19.9153 24.7209 20.8378 24.8281 20.7651 25.1686L20.5228 26.3185C20.683 26.3118 20.8378 26.3011 20.9847 26.281L21.2149 25.0841C21.2405 24.9541 21.2648 24.7785 21.2648 24.7785C21.1759 24.6887 20.9604 24.4984 20.8392 24.2678C20.6763 23.9569 20.7651 23.7947 20.6129 23.3899C20.6184 23.3926 20.6642 23.2988 20.7705 23.2988ZM16.0705 21.618C16.0086 21.6167 15.9641 21.5644 15.9669 21.5028C15.9723 21.4438 16.0221 21.3969 16.0827 21.4022C16.1446 21.4049 16.189 21.4586 16.1864 21.5175C16.181 21.5764 16.1298 21.6221 16.0705 21.618Z" fill="white"/>
<path d="M14.3576 24.387C14.3576 24.387 14.7738 24.2168 14.8115 24.0948L14.7563 23.9567C14.7172 23.8669 14.7226 23.7691 14.798 23.7155L15.2478 23.4059L15.9993 23.5493C15.9993 23.5493 15.8633 23.3804 15.8768 23.1539L15.1603 23.0024L14.4842 23.4126C14.1947 23.6284 14.1731 23.9809 14.2687 24.1899L14.3576 24.387Z" fill="white"/>
<path d="M19.667 26.3356C19.8016 26.3303 19.9498 26.3276 20.1128 26.3276C20.1128 26.3276 20.4993 25.2031 20.5208 25.1669C20.304 25.0717 19.8542 24.8345 19.6805 24.726C19.795 24.8961 20.0737 25.0919 20.0185 25.242L19.667 26.3356Z" fill="white"/>
<path d="M23.3484 19.6666H12.665V23.6661C12.665 25.3013 13.8542 26.3253 15.609 26.3253C17.0755 26.3253 17.462 26.3816 18.0074 26.9204C18.3831 26.5478 18.6943 26.4085 19.3325 26.3561L19.3474 26.2946L19.6841 25.2584C19.6652 25.2356 19.1145 24.6124 19.1145 24.6124C18.8963 24.6848 18.7131 24.6968 18.4047 24.6968C18.0882 24.6968 17.7313 24.6606 17.3449 24.5883C17.3058 24.5789 17.2694 24.5762 17.2331 24.5762C17.186 24.5762 17.1818 24.5803 17.1697 24.6031L17.1024 24.7129L16.9799 24.914L16.7496 24.8617L15.7247 24.6218L15.5847 24.8523L15.6062 24.8764L15.7315 25.0131L15.6763 25.1914C15.6009 25.4247 15.3558 25.6967 15.2817 25.7718L15.0259 26.0452L14.7928 25.7516L14.6178 25.5332C14.4333 25.3281 14.3902 25.0131 14.4939 24.6834C14.4911 24.6862 14.4872 24.6875 14.4831 24.6875L14.1936 24.8068L14.0629 24.5253L13.9714 24.3255C13.8138 23.9745 13.8717 23.461 14.2959 23.1515L15.1215 22.6877L15.9066 22.8419C15.9255 22.7668 15.9537 22.4987 15.9766 22.4304C15.9618 22.4291 15.947 22.425 15.9322 22.425L15.4797 22.5925L15.0433 22.2923C15.0433 22.2923 14.8724 22.1288 15.0271 21.9653L15.45 21.3286L14.3795 19.991L16.0251 20.6639L16.1342 20.5285L16.3564 20.2645L16.6082 20.503C16.6796 20.5713 16.72 20.6558 16.7401 20.7402C17.194 20.9158 18.0061 21.4345 18.0774 22.2776L17.8229 22.3795V22.3862C17.8809 22.4545 17.9293 22.4827 17.9442 22.4853L19.1184 22.6006C19.1481 22.5952 19.1858 22.5818 19.2275 22.5698C19.373 22.5201 19.5925 22.4491 19.8524 22.4491C20.0638 22.4491 20.2685 22.4974 20.4651 22.5885C20.5378 22.5617 20.6268 22.5416 20.7291 22.5349L20.7857 22.5336C21.4146 22.5336 21.727 23.0014 21.9775 23.374C22.0193 23.4383 22.061 23.4999 22.1041 23.5602C22.3236 23.8685 22.6104 24.3202 22.6226 24.339L22.7518 24.54L22.593 24.7237C22.4704 24.8643 22.2872 25.0293 21.9721 25.0293C21.9075 25.0293 21.8361 25.0225 21.7593 25.0078C21.692 24.9957 21.6314 24.9757 21.5721 24.9516C21.5627 25.0131 21.5506 25.0869 21.5385 25.1499L21.3324 26.2194C22.5647 25.9178 23.3471 24.9917 23.3471 23.6675L23.3484 19.6666Z" fill="#FFDD2D"/>
<path d="M12.6625 19.3449H20.9703C20.5555 18.9187 20.5609 18.3786 20.6673 18.0274C20.5461 17.9697 20.4464 17.9001 20.3576 17.825C20.033 18.0636 19.0418 18.782 18.7832 18.9616L18.728 18.9991L15.4677 18.4121H15.4016C15.3236 18.4121 15.2091 18.4094 15.0839 18.3946C15.0489 18.5407 14.9222 18.6413 14.7768 18.6413C14.7606 18.6413 14.7418 18.6399 14.7243 18.6359C14.6394 18.6211 14.5653 18.5783 14.5155 18.5072C14.4644 18.4376 14.4442 18.3545 14.459 18.2687L14.4711 18.199C14.1344 17.963 13.8247 17.4363 13.9621 16.8814L13.9755 16.8224L14.0226 16.789C14.0293 16.7836 14.0859 16.7461 14.1695 16.6978L13.9324 16.6616C13.8436 16.6456 13.7843 16.5637 13.7978 16.4766C13.8126 16.3882 13.8961 16.3252 13.9836 16.3426L14.5479 16.4311L14.5991 14.4528L15.4393 13.5681L15.9632 14.6659L15.4098 16.5692L15.908 16.6469C15.9956 16.6603 16.0562 16.742 16.0427 16.8318C16.0293 16.911 15.9619 16.9658 15.8824 16.9658C15.8744 16.9658 15.8649 16.9658 15.8569 16.9646L15.4515 16.8989C15.4569 16.911 15.465 16.9176 15.4703 16.931C15.5134 17.0194 15.6091 17.0838 15.6657 17.1106L18.1516 17.1495C18.2567 17.0477 18.5179 16.7929 18.7859 16.5236C18.1745 16.293 17.9523 15.7676 17.9146 15.4191C17.5726 15.2744 17.3369 15.0572 17.2062 14.7744C17.0473 14.4246 17.1039 14.0748 17.1456 13.9046C16.8143 13.784 16.4656 13.5642 16.11 13.213H12.3662C12.5265 13.6419 12.6625 14.1069 12.6625 14.5694V19.3449Z" fill="#FFDD2D"/>
<path d="M16.083 21.4023C16.0223 21.3968 15.971 21.4438 15.9671 21.5027C15.9629 21.5644 16.0088 21.6167 16.0709 21.618C16.1302 21.6233 16.1828 21.5778 16.1882 21.5175C16.1882 21.4585 16.145 21.4035 16.083 21.4023Z" fill="black"/>
<path d="M23.3334 28.6545L22.718 28.42L22.8876 27.7873L23.0748 27.097C23.0748 27.097 21.984 27.6855 20.4474 28.1277C20.011 28.2524 19.6811 28.3087 19.6811 28.3087V28.7778C19.6811 28.7778 18.8596 28.9199 18.0287 28.9199H18.0193H18.0072H17.991H17.9816C17.1507 28.9199 16.3292 28.7778 16.3292 28.7778V28.3087C16.3292 28.3087 15.9979 28.2524 15.563 28.1277C14.0263 27.6855 12.9368 27.097 12.9368 27.097L13.1214 27.7873L13.2951 28.42L12.6783 28.6545L11.9941 28.9092C12.7793 29.2858 13.8661 29.8353 14.8613 30.106L14.627 30.7441C14.627 30.7441 15.8888 31.3164 17.991 31.3217V31.3231H17.9978H18.0072H18.0153H18.0207V31.3217C20.1256 31.3164 21.386 30.7441 21.386 30.7441L21.1504 30.106C22.1456 29.8353 23.2351 29.2858 24.0162 28.9092L23.3334 28.6545ZM12.7241 28.9521L13.7368 28.617L13.4379 27.6453C13.8836 27.8973 14.8842 28.2752 15.4633 28.4508L14.9744 29.787C14.0803 29.5418 13.3355 29.2563 12.7241 28.9521ZM18.0072 30.9866C16.8316 30.9866 15.4889 30.7173 15.0943 30.5779L15.6949 28.9601C16.1932 29.1048 17.2301 29.259 17.9829 29.2537H17.9843H18.0072H18.0274H18.0301C18.7829 29.259 19.8172 29.1048 20.3182 28.9601L20.9174 30.5779C20.5228 30.7186 19.1815 30.9866 18.0072 30.9866ZM21.0373 29.787L20.5498 28.4508C21.1302 28.2752 22.1281 27.8973 22.5752 27.6453L22.2776 28.617L23.2889 28.9521C22.6762 29.2563 21.9355 29.5418 21.0373 29.787Z" fill="black"/>
<path d="M18.0036 3.4032C19.2561 3.4032 20.2581 3.81604 20.8115 4.257C20.8115 4.257 20.9758 3.27185 21.5374 2.402L20.5287 2.51591L20.0008 1.39942L18.9868 1.91949L18.0036 0.951782L17.0232 1.91949L16.0078 1.39942L15.4813 2.51591L14.4727 2.402C15.0342 3.27185 15.1985 4.257 15.1985 4.257C15.7534 3.81604 16.7526 3.4032 18.0036 3.4032ZM15.4355 2.90732L15.7157 2.93681L15.8368 2.68343L16.1897 1.93285L16.8441 2.26928L17.0973 2.398L17.2994 2.19961L18.005 1.50265L18.712 2.19961L18.914 2.398L19.1672 2.26928L19.8176 1.93285L20.1746 2.68343L20.2931 2.93681L20.5732 2.90732L20.8398 2.87513C20.7172 3.14988 20.6271 3.40988 20.5624 3.62571C19.8567 3.2343 18.9383 3.01185 18.0023 3.01185C17.0704 3.01185 16.1533 3.2343 15.445 3.62571C15.379 3.40988 15.2901 3.14857 15.1676 2.87513L15.4355 2.90732Z" fill="black"/>
<path d="M32.6992 16.4748C34.3193 16.4748 34.8606 14.8342 34.8835 14.7645L35.064 14.1869L34.4566 14.2057H34.4539C34.2398 14.2057 32.4528 14.1587 31.1854 12.5557L31.0656 12.4069C30.2374 11.3588 29.4523 10.363 28.049 9.90861C28.0894 9.87243 28.1474 9.82684 28.2268 9.77588C28.9715 9.28804 29.4052 8.69563 29.5142 8.00806C29.6731 6.97326 29.0106 6.14897 28.9809 6.11548L28.5298 5.56062L28.2484 6.21871C28.2295 6.26027 27.7555 7.31379 26.7589 7.31379H26.6848C26.6161 7.30969 26.5515 7.30704 26.4869 7.30173C26.5219 6.83125 26.4356 6.10342 25.7732 5.42122C24.9772 4.5996 23.9995 4.47632 23.4878 4.47632C23.2144 4.47632 23.0326 4.5098 23.0137 4.51249L22.3322 4.64652L22.7524 5.19739C23.0824 5.62229 23.3814 6.40636 23.0272 6.81654C22.9141 6.94649 22.6811 7.05238 22.4575 7.15827C21.9983 7.36866 21.3721 7.66089 21.3721 8.40605C21.3721 8.88859 21.7478 9.3926 22.4293 9.82147C24.4466 11.0841 25.691 12.4016 26.2283 13.8558C27.0592 16.0928 25.9751 17.3688 24.922 18.0403L24.4493 18.3431L24.8627 18.7211C24.9179 18.7694 25.4243 19.2131 26.1717 19.2774C26.3131 19.2867 26.4491 19.2948 26.5757 19.2948C27.0551 19.2948 27.4632 19.2198 27.7945 19.1192C27.7029 19.2787 27.5911 19.4409 27.4497 19.6044C26.8478 20.2987 26.1071 20.615 25.0418 20.6311L24.6459 20.6378L24.615 21.0332C24.6109 21.1122 24.5812 21.8455 25.2789 22.4687C25.3852 22.5652 25.5145 22.6443 25.6492 22.71C25.1765 23.1335 24.6958 23.8707 24.6029 25.1345C24.5247 26.1893 24.2716 26.5794 24.2688 26.5835L23.8311 27.2483L24.6217 27.2589C25.9279 27.2589 26.9286 26.8998 27.6221 26.1893C28.0315 25.7686 28.2658 25.2941 28.4045 24.8732C28.6321 25.0662 28.9258 25.2351 29.3082 25.3249C29.4537 25.3584 29.6125 25.3772 29.7836 25.3772C30.1525 25.3772 30.4609 25.2994 30.4959 25.2914L31.001 25.1573L30.7775 24.6882C30.7613 24.6507 30.3398 23.7098 30.7936 22.3668C30.9889 21.7865 31.0885 21.2664 31.137 20.8616C31.4548 21.0265 31.8804 21.1632 32.4311 21.1646C33.6809 21.1646 34.2318 20.2357 34.2573 20.1968L34.5038 19.7706L34.0472 19.583C32.5578 18.9678 32.2278 17.3152 32.1619 16.4198C32.2965 16.4453 32.45 16.4694 32.6237 16.4748H32.6992ZM33.8802 19.9784C33.8802 19.9784 33.4439 20.733 32.4433 20.733H32.4311C31.2299 20.7263 30.7451 19.9971 30.7451 19.9971C30.7451 19.9971 30.8152 20.9461 30.3815 22.2261C29.8604 23.7687 30.3855 24.8719 30.3855 24.8719C30.3855 24.8719 30.1054 24.9469 29.7822 24.9469C29.6584 24.9469 29.5291 24.9349 29.4078 24.9027C28.4045 24.6655 28.1541 23.7567 28.1541 23.7567C28.1541 23.7567 28.247 26.8274 24.65 26.8274H24.6217C24.6217 26.8274 24.9381 26.3985 25.0324 25.164C25.2034 22.8856 26.7535 22.5732 26.7535 22.5732C26.7535 22.5732 25.9267 22.47 25.5684 22.1497C25.0082 21.6444 25.0472 21.06 25.0472 21.06C26.3131 21.0426 27.1413 20.6137 27.7729 19.8859C28.4571 19.0978 28.5702 18.2494 28.5702 18.2494C28.5702 18.2494 27.8901 18.8632 26.5743 18.8632C26.4585 18.8632 26.3346 18.8579 26.2081 18.8458C25.5859 18.7963 25.155 18.4022 25.155 18.4022C26.5246 17.5283 27.4861 16.003 26.6337 13.7057C25.9509 11.8654 24.3106 10.4903 22.6595 9.45416C22.1101 9.1125 21.8044 8.73313 21.8044 8.40605C21.8044 7.63677 22.9033 7.61265 23.3544 7.09525C23.8743 6.49484 23.5484 5.52038 23.0972 4.93471C23.0972 4.93471 23.2494 4.90384 23.4892 4.90384C23.9645 4.90384 24.7873 5.02312 25.4634 5.72008C26.3616 6.64491 25.9886 7.65148 25.9886 7.65148L26.2296 7.6984C26.3737 7.72921 26.5165 7.73458 26.6646 7.74127C26.697 7.74127 26.7292 7.74266 26.7616 7.74266C28.0665 7.74266 28.6496 6.38493 28.6496 6.38493C28.6496 6.38493 30.0368 8.08307 27.9952 9.41262C27.6437 9.6405 27.4888 9.85096 27.5292 10.0761L27.5615 10.2236L27.7069 10.249C29.187 10.6484 29.9358 11.6644 30.8502 12.8198C32.2386 14.5769 34.2034 14.6332 34.4459 14.6332H34.4715C34.4715 14.6332 34.023 16.0419 32.7019 16.0419C32.6803 16.0419 32.6614 16.0419 32.6386 16.0405C32.0312 16.0191 31.7201 15.7872 31.7201 15.7872C31.7201 15.7872 31.4817 18.9865 33.8802 19.9784Z" fill="black"/>
<path d="M29.8516 10.086C30.4563 10.4063 30.8078 10.8352 31.1162 11.2158C31.4192 11.5871 31.7074 11.945 32.1572 12.0937C32.3174 12.1487 32.4872 12.1742 32.6595 12.1742C33.3356 12.1742 34.0143 11.7627 34.2716 11.193L34.5301 10.6221L33.9038 10.5845C33.8743 10.5832 33.0689 10.5108 32.172 9.59811C31.803 9.22417 31.3573 9.0271 30.8765 9.0271C30.2893 9.0271 29.8543 9.31933 29.8059 9.34875L29.2295 9.75224L29.8516 10.086ZM30.8779 9.45869C31.1795 9.45869 31.531 9.5606 31.8636 9.90233C32.9073 10.9572 33.8782 11.0161 33.8782 11.0161C33.7018 11.4048 33.1901 11.7466 32.6608 11.7466C32.5383 11.7466 32.4158 11.7278 32.2932 11.6863C31.5754 11.445 31.3182 10.3728 30.0563 9.70533C30.0563 9.70533 30.4092 9.45869 30.8779 9.45869Z" fill="black"/>
<path d="M30.1386 15.781V15.8024C29.775 12.8832 27.6445 10.7749 25.2743 9.49223C25.0547 9.3756 24.8527 9.27647 24.6562 9.18131C25.378 9.29251 26.5402 9.30596 27.4371 8.53125C27.4371 8.53125 26.0648 9.5365 23.2529 8.62376C24.0313 9.12631 25.5436 9.83542 26.924 10.984C30.3756 14.0024 27.9057 16.9471 27.9057 16.9471C29.1461 15.659 29.1972 14.2785 28.8322 13.1513C29.4854 14.2329 29.9029 15.5464 29.8382 17.1656C29.7427 19.4856 28.4619 21.4921 27.1139 23.1045C26.4661 23.8872 26.3207 24.8482 26.3207 24.8482C26.3207 24.8482 26.5819 23.9998 27.332 23.1273C28.7771 21.4438 30.0119 19.6947 30.1736 17.1749C30.3231 17.632 30.9385 18.904 31.9148 19.3825C31.9176 19.3838 30.6907 18.6479 30.1386 15.781Z" fill="black"/>
<path d="M11.7396 26.5826C11.7382 26.5785 11.4878 26.1885 11.407 25.1337C11.3127 23.8697 10.8332 23.1326 10.3593 22.7091C10.4966 22.6447 10.6232 22.5657 10.7296 22.4678C11.4259 21.8445 11.3962 21.1114 11.3922 21.0324L11.3653 20.637L10.9666 20.6303C9.90405 20.6129 9.16203 20.2965 8.56002 19.6036C8.42002 19.44 8.30688 19.2778 8.21524 19.1184C8.54659 19.2189 8.95197 19.294 9.43271 19.294C9.56199 19.294 9.69531 19.2859 9.8367 19.2765C10.5841 19.2121 11.0905 18.7699 11.1471 18.7202L11.5605 18.3423L11.0878 18.0394C10.0307 17.3666 8.95058 16.0906 9.78013 13.8549C10.3175 12.4007 11.5605 11.0832 13.5805 9.82061C14.2619 9.39174 14.635 8.88773 14.635 8.40518C14.635 7.66003 14.0101 7.36654 13.551 7.15741C13.3274 7.05152 13.0944 6.94562 12.9812 6.81568C12.6257 6.40681 12.926 5.62144 13.2547 5.19654L13.6775 4.64567L12.9934 4.51164C12.9732 4.50895 12.7941 4.47546 12.5193 4.47546C12.0076 4.47546 11.0326 4.59874 10.2353 5.42036C9.57145 6.10395 9.48385 6.83171 9.51759 7.30087C9.45288 7.30617 9.38831 7.30882 9.32096 7.31293H9.24824C8.24898 7.31293 7.77632 6.25941 7.75746 6.21786L7.476 5.55976L7.02074 6.11463C6.9952 6.14812 6.32993 6.97379 6.4915 8.00719C6.59928 8.69476 7.03291 9.28718 7.77764 9.77502C7.85842 9.82591 7.91499 9.87157 7.95542 9.90775C6.55343 10.3621 5.76973 11.3593 4.94143 12.4074L4.82161 12.5562C3.55572 14.1592 1.76463 14.2061 1.55052 14.2061L0.94043 14.1874L1.12627 14.765C1.1478 14.8347 1.68785 16.4752 3.30926 16.4752L3.3874 16.4725C3.55843 16.4672 3.71193 16.4444 3.84935 16.4177C3.78199 17.3116 3.45204 18.9642 1.9612 19.5808L1.50607 19.7684L1.75253 20.1946C1.77674 20.2335 2.32892 21.1623 3.58132 21.1623C4.12803 21.161 4.55359 21.0243 4.87276 20.8595C4.92125 21.2642 5.0209 21.7842 5.21621 22.3646C5.67002 23.7076 5.24724 24.6485 5.23103 24.6861L5.00753 25.1551L5.51381 25.2891C5.54749 25.2972 5.85858 25.3749 6.22625 25.3749C6.39861 25.3749 6.55753 25.3562 6.70031 25.3227C7.08405 25.2329 7.38033 25.064 7.60529 24.871C7.74257 25.2919 7.97831 25.7663 8.38634 26.1872C9.08125 26.8975 10.0805 27.2568 11.3868 27.2568L12.1787 27.246L11.7396 26.5826ZM11.3571 26.8279C7.76011 26.8279 7.85174 23.7572 7.85174 23.7572C7.85174 23.7572 7.60118 24.6659 6.59789 24.9032C6.47807 24.9353 6.35011 24.9473 6.22493 24.9473C5.90166 24.9473 5.62291 24.8723 5.62291 24.8723C5.62291 24.8723 6.14547 23.7693 5.62424 22.2265C5.19332 20.9466 5.26332 19.9976 5.26332 19.9976C5.26332 19.9976 4.77986 20.7268 3.57729 20.7334H3.56518C2.56453 20.7334 2.12819 19.9788 2.12819 19.9788C4.52533 18.9884 4.28966 15.7903 4.28966 15.7903C4.28966 15.7903 3.97863 16.0209 3.36987 16.0437C3.34836 16.045 3.32812 16.045 3.30661 16.045C1.98415 16.045 1.53703 14.6364 1.53703 14.6364H1.56394C1.80771 14.6364 3.76989 14.5801 5.15832 12.8229C6.07269 11.6676 6.82284 10.6529 8.30019 10.2522L8.44833 10.2268L8.48056 10.0793C8.52105 9.85414 8.36748 9.64368 8.01602 9.41586C5.97437 8.08492 7.36148 6.38807 7.36148 6.38807C7.36148 6.38807 7.94192 7.74445 9.24963 7.74445C9.28185 7.74445 9.31149 7.74313 9.34517 7.74313C9.49199 7.73504 9.63748 7.72974 9.78013 7.69886L10.0212 7.65195C10.0212 7.65195 9.6482 6.64538 10.5478 5.7206C11.2239 5.02227 12.0467 4.90436 12.5207 4.90436C12.7618 4.90436 12.9113 4.93516 12.9113 4.93516C12.4614 5.52221 12.1356 6.49529 12.6554 7.09578C13.1051 7.61179 14.2027 7.63724 14.2027 8.40658C14.2027 8.73227 13.897 9.1129 13.3476 9.45469C11.6951 10.4908 10.0549 11.866 9.37342 13.7061C8.52237 16.0035 9.48259 17.5274 10.8549 18.4026C10.8549 18.4026 10.4239 18.7967 9.80037 18.8463C9.6738 18.8583 9.55127 18.8636 9.43271 18.8636C8.11831 18.8636 7.43829 18.2498 7.43829 18.2498C7.43829 18.2498 7.55136 19.0982 8.23145 19.8864C8.86715 20.6141 9.69531 21.043 10.9613 21.0605C10.9613 21.0605 11.0016 21.6448 10.4414 22.1501C10.0818 22.4691 9.25499 22.5736 9.25499 22.5736C9.25499 22.5736 10.8064 22.886 10.976 25.1645C11.069 26.3989 11.3827 26.8279 11.3827 26.8279H11.3571Z" fill="black"/>
<path d="M3.3444 12.1754C3.51808 12.1754 3.68779 12.15 3.8481 12.095C4.30052 11.9462 4.5874 11.5883 4.89043 11.2171C5.20014 10.8365 5.54895 10.4075 6.15361 10.0872L6.77574 9.75474L6.19807 9.35138C6.14958 9.32057 5.71594 9.02966 5.13014 9.02966C4.64801 9.02966 4.20095 9.22541 3.83321 9.60067C2.93637 10.5121 2.13243 10.5858 2.10272 10.5872L1.47656 10.6233L1.73375 11.1956C1.9923 11.7626 2.66967 12.1754 3.3444 12.1754ZM4.14166 9.90357C4.47565 9.56184 4.82711 9.45992 5.13014 9.45992C5.59606 9.45992 5.94897 9.7065 5.94897 9.7065C4.68837 10.3754 4.4298 11.4462 3.70936 11.6876C3.59086 11.729 3.46693 11.7479 3.3444 11.7479C2.81516 11.7479 2.30339 11.4074 2.12833 11.0174C2.12833 11.016 3.09794 10.9571 4.14166 9.90357Z" fill="black"/>
<path d="M6.17368 17.167C6.10626 15.5479 6.52382 14.2344 7.17823 13.1528C6.81334 14.28 6.86317 15.6605 8.10484 16.9485C8.10484 16.9485 5.63498 14.0039 9.08789 10.9855C10.4696 9.83688 11.9806 9.12778 12.7576 8.62522C9.94715 9.53796 8.57487 8.53271 8.57487 8.53271C9.4717 9.30742 10.6339 9.29397 11.3558 9.18139C11.1605 9.27654 10.9558 9.37581 10.7389 9.49237C8.36606 10.7751 6.23693 12.8834 5.87204 15.8026V15.7798C5.32117 18.6467 4.0957 19.3825 4.0957 19.3825C5.07075 18.904 5.6848 17.6335 5.83433 17.175C5.99723 19.6948 7.23216 21.4439 8.67715 23.1274C9.42724 24 9.69123 24.8483 9.69123 24.8483C9.69123 24.8483 9.54442 23.8874 8.89397 23.1046C7.54861 21.4949 6.2679 19.4871 6.17368 17.167Z" fill="black"/>
<path d="M17.1943 11.2601V11.8392C17.3951 11.5965 17.7829 11.6461 17.7829 11.6461V12.4811C17.7829 12.4811 17.7694 12.8913 17.6227 13.0696H18.0427H18.4616C18.3175 12.8926 18.3027 12.4811 18.3027 12.4811V11.6461C18.3027 11.6461 18.6905 11.5965 18.8899 11.8392V11.2601H18.0427H17.1943Z" fill="black"/>
<path d="M16.8354 7.8261C17.1033 8.03788 17.2582 8.07274 17.2636 8.07671L17.3686 8.12496V7.57946L16.3828 7.16663C16.3828 7.16802 16.3923 7.48298 16.8354 7.8261Z" fill="black"/>
<path d="M19.1736 7.8261C19.6194 7.48298 19.6274 7.16663 19.6274 7.16663L18.6416 7.57946V8.12496L18.7453 8.07671C18.7521 8.07274 18.9056 8.03788 19.1736 7.8261Z" fill="black"/>
<path d="M20.9494 5.60536C20.9494 4.77843 19.5501 4.03455 18.0055 4.03455H18.0041H18.0001H17.996C16.4513 4.03455 15.0522 4.77843 15.0522 5.60536L15.0832 5.80913L15.6999 9.3328L15.0805 9.69063L13.4779 10.6222H13.4832C13.4832 10.6222 13.1224 10.8058 12.9554 10.9197C12.3453 11.342 12.216 11.9571 12.5702 12.2118C12.6578 11.7105 13.0563 11.1851 13.8025 11.1851C14.3398 11.1851 14.7492 11.4612 15.0805 11.8754C15.1653 11.9799 15.2461 12.0912 15.3215 12.2118C15.4144 12.3632 15.5073 12.4959 15.6003 12.6246H11.4727C11.7757 13.2317 12.0638 13.8751 12.0638 14.5735V23.6661C12.0638 25.8669 13.7647 26.9177 15.6043 26.9177C17.0264 26.9177 17.2176 26.8534 18.0027 27.6308C18.7838 26.852 18.9751 26.9177 20.3985 26.9177C22.2395 26.9177 23.9376 25.8669 23.9376 23.6661V14.5735C23.9376 13.8751 24.2259 13.2317 24.5302 12.6246H20.4013C20.4928 12.4973 20.5857 12.3632 20.6787 12.2118C20.7554 12.0912 20.8348 11.9799 20.9184 11.8754C21.2524 11.4598 21.6604 11.1851 22.1977 11.1851C22.9438 11.1851 23.341 11.7091 23.4299 12.2118C23.7841 11.9571 23.6562 11.342 23.0421 10.9197C22.8778 10.8058 22.5169 10.6222 22.5169 10.6222H22.5223L20.9197 9.69063L20.303 9.3328L20.9197 5.80913L20.9494 5.60536ZM15.6595 6.01552L17.8277 6.74732V10.137L16.2319 9.29933L15.6595 6.01552ZM16.108 13.2157C16.4635 13.5681 16.8123 13.7867 17.1436 13.9073C17.1005 14.0775 17.0439 14.4287 17.2042 14.7785C17.3348 15.0599 17.5718 15.2771 17.9126 15.4219C17.9503 15.7703 18.1711 16.2944 18.7838 16.5263C18.5158 16.7957 18.2546 17.0489 18.1482 17.1522L15.6635 17.1133C15.607 17.0851 15.5114 17.0222 15.4683 16.9324C15.4629 16.9203 15.4548 16.9136 15.4508 16.9002L15.8561 16.9658C15.8656 16.9672 15.8736 16.9672 15.8818 16.9672C15.9598 16.9672 16.0285 16.9136 16.042 16.8332C16.0555 16.7434 15.9949 16.6616 15.9074 16.6482L15.4091 16.5705L15.9625 14.6686L15.4387 13.5709L14.5983 14.4554L14.5472 16.4338L13.9829 16.3453C13.8953 16.3279 13.8118 16.3922 13.7971 16.4794C13.7836 16.5665 13.8428 16.6482 13.9317 16.6643L14.1687 16.7005C14.0839 16.7488 14.0287 16.7863 14.0219 16.7916L13.9735 16.8252L13.96 16.8841C13.8226 17.439 14.1337 17.9658 14.469 18.2016L14.4569 18.2714C14.4435 18.3571 14.4623 18.4402 14.5134 18.51C14.5619 18.581 14.6374 18.6239 14.7209 18.6386C14.7384 18.6413 14.7572 18.6426 14.7734 18.6426C14.9188 18.6426 15.0455 18.5421 15.0818 18.396C15.207 18.4107 15.3215 18.4134 15.3996 18.4134H15.4656L18.726 18.9991L18.7811 18.9629C19.0411 18.782 20.0309 18.0636 20.3554 17.8264C20.4443 17.9028 20.544 17.9724 20.6652 18.0301C20.5601 18.3813 20.5534 18.9214 20.9695 19.3476H12.6604V14.5747C12.6604 14.1123 12.5244 13.6473 12.3641 13.2184H16.108V13.2157ZM20.1373 17.5824C19.8073 17.8236 18.9589 18.4402 18.6519 18.6547L15.6892 18.1253C15.6959 18.0984 15.7026 18.073 15.7093 18.0462C15.7484 17.8934 15.7875 17.6843 15.7902 17.439L18.2802 17.4793L18.3273 17.431C18.365 17.3934 19.1542 16.6348 19.5568 16.1978C19.6524 16.3172 19.7723 16.4311 19.9286 16.5316C19.8747 16.8212 19.8976 17.2339 20.1373 17.5824ZM15.1774 17.0718C15.2475 17.2178 15.374 17.3157 15.4616 17.3707C15.4589 17.5074 15.4454 17.7205 15.4091 17.9081C15.4009 17.9497 15.3902 17.9886 15.3781 18.0274C15.3713 18.0515 15.3646 18.0717 15.3592 18.0877C15.2286 18.0877 14.9714 18.0717 14.7613 17.9953C14.5283 17.9095 14.1808 17.4846 14.2616 17.0168C14.3627 16.9552 14.5956 16.8252 14.8138 16.8252C14.9821 16.8238 15.0966 16.9029 15.1774 17.0718ZM14.869 16.4834L14.9188 14.5841L15.3471 14.1325L15.6164 14.6927L15.0858 16.5155L14.869 16.4834ZM20.1104 26.3293C19.9487 26.3293 19.7993 26.332 19.6646 26.3373L20.0174 25.245C20.0726 25.0935 19.7938 24.8992 19.6794 24.729C19.8531 24.8376 20.303 25.0747 20.5198 25.17C20.4968 25.2048 20.1104 26.3293 20.1104 26.3293ZM21.2173 25.0882L20.9871 26.2837C20.8402 26.3038 20.6841 26.3146 20.5238 26.3212L20.7662 25.1713C20.8389 24.8295 19.9164 24.7236 19.4612 24.0521C19.2391 24.3014 18.8202 24.3751 18.4 24.3751C18.0162 24.3751 17.6325 24.3135 17.3994 24.2679C17.3402 24.2585 17.2836 24.2518 17.2284 24.2518C17.0937 24.2518 16.9712 24.2934 16.8864 24.4355L16.819 24.548L15.5626 24.2531L15.2501 24.7679C15.2057 24.8509 15.203 24.922 15.2744 24.9997L15.3592 25.0922C15.3013 25.2745 15.0401 25.5493 15.0401 25.5493L14.8529 25.3174C14.7047 25.1525 14.7289 24.8523 14.8838 24.5735L15.3821 23.7358L16.446 23.8886L16.2803 23.5133C16.0581 23.0174 16.3962 22.3861 16.4325 22.0229C16.4204 22.1327 16.3194 22.1569 16.2009 22.1569C16.0932 22.1569 15.9733 22.1369 15.8939 22.1369C15.8629 22.1369 15.8359 22.1395 15.8211 22.1502L15.5329 22.3244L15.3053 22.1248C15.2784 22.0859 15.269 21.996 15.3363 21.929L15.8629 21.342L15.2407 20.6196L16.112 21.0552L16.3773 20.7348C16.45 20.8059 16.4191 20.9922 16.4191 20.9922C16.6911 20.9989 17.4533 21.4184 17.4937 22.3968C17.4965 22.4263 17.4965 22.4598 17.4965 22.492C17.4965 22.492 17.5032 22.504 17.5166 22.5242C17.5705 22.5979 17.7186 22.7868 17.9071 22.8043L19.1111 22.9223H19.1165C19.2485 22.9223 19.5111 22.7681 19.8478 22.7681C20.0309 22.7681 20.2356 22.815 20.4537 22.9517C20.4537 22.9517 20.5628 22.866 20.7406 22.8565C20.7541 22.8552 20.7689 22.8552 20.7824 22.8552C21.3224 22.8552 21.546 23.3404 21.8355 23.7438C22.0536 24.0507 22.3445 24.5065 22.3445 24.5065C22.2368 24.6338 22.1371 24.7035 21.9701 24.7035C21.9243 24.7035 21.8718 24.6995 21.8152 24.6888C21.2362 24.5828 21.1527 23.398 20.8227 23.3042C20.8053 23.2989 20.7864 23.2976 20.7703 23.2976C20.6638 23.2976 20.6167 23.3913 20.6167 23.3913C20.7675 23.7948 20.68 23.9583 20.8416 24.2693C20.9629 24.4997 21.1783 24.6901 21.2671 24.7799C21.2671 24.7826 21.2429 24.9568 21.2173 25.0882ZM14.7518 23.957L14.807 24.095C14.7707 24.2157 14.3532 24.3872 14.3532 24.3872L14.263 24.1915C14.1673 23.9825 14.1876 23.6299 14.4785 23.4141L15.1545 23.004L15.871 23.1555C15.8575 23.382 15.9935 23.5509 15.9935 23.5509L15.242 23.4074L14.7922 23.717C14.7168 23.7693 14.7115 23.8672 14.7518 23.957ZM21.3305 26.2181L21.5365 25.1485C21.5473 25.0855 21.5607 25.0118 21.5702 24.9501C21.6281 24.9743 21.69 24.9943 21.7574 25.0064C21.8341 25.0211 21.9055 25.0279 21.9701 25.0279C22.2853 25.0279 22.4684 24.863 22.5909 24.7223L22.7499 24.5386L22.6206 24.3376C22.6085 24.3175 22.323 23.8672 22.1021 23.5588C22.0591 23.4985 22.0172 23.4382 21.9755 23.3726C21.7251 23 21.4113 22.5323 20.7824 22.5323L20.7258 22.5335C20.6221 22.5402 20.5332 22.5604 20.4618 22.5871C20.2639 22.4947 20.0605 22.4478 19.8491 22.4478C19.5892 22.4478 19.3697 22.5188 19.2242 22.5684C19.1825 22.5805 19.1448 22.5938 19.1151 22.5992L17.9395 22.4839C17.9247 22.4812 17.8762 22.4531 17.8183 22.3834V22.3781L18.0728 22.2762C18.0015 21.4331 17.188 20.9145 16.7341 20.7389C16.714 20.6544 16.6736 20.57 16.6022 20.5016L16.349 20.2631L16.1268 20.5285L16.0178 20.6638L14.372 19.991L15.4427 21.3285L15.0198 21.9652C14.865 22.1288 15.036 22.2923 15.036 22.2923L15.4723 22.5912L15.9248 22.4237C15.941 22.4237 15.9545 22.4276 15.9693 22.429C15.9477 22.4973 15.9195 22.7654 15.9006 22.8405L15.1155 22.6863L14.2899 23.1501C13.8657 23.4597 13.8078 23.973 13.9653 24.3242L14.0569 24.5239L14.1876 24.8054L14.4757 24.6861C14.4798 24.6847 14.4839 24.6834 14.4865 24.6807C14.3828 25.0104 14.4246 25.3241 14.6104 25.5304L14.7855 25.7503L15.0185 26.0439L15.2744 25.7704C15.3497 25.6954 15.5935 25.4232 15.6689 25.19L15.7242 25.0118L15.5989 24.8751L15.5787 24.8509L15.7187 24.6204L16.7436 24.8603L16.9738 24.9126L17.0964 24.7115L17.1638 24.6016C17.1759 24.5789 17.1799 24.5748 17.227 24.5748C17.2634 24.5748 17.2998 24.5789 17.3389 24.5869C17.7253 24.6593 18.0822 24.6955 18.3987 24.6955C18.7057 24.6955 18.8889 24.6834 19.1085 24.6111C19.1085 24.6111 19.6592 25.2329 19.678 25.2571L19.3414 26.2918L19.3265 26.3548C18.6883 26.4057 18.3772 26.5451 18.0015 26.9191C17.456 26.3803 17.0695 26.324 15.6029 26.324C13.8482 26.324 12.659 25.3 12.659 23.6648V19.6666H23.341L23.3438 23.6648C23.3451 24.9916 22.5627 25.9165 21.3305 26.2181ZM23.6401 13.2157C23.4771 13.6446 23.341 14.1097 23.341 14.5721L23.3424 17.5556C22.7163 17.451 22.6421 16.7796 22.6394 16.7501L22.6273 16.6134L22.4927 16.6013C22.2206 16.5758 22.0402 16.4606 21.888 16.3131C21.581 16.0075 21.5796 15.5116 21.581 15.5077C21.5769 15.533 21.2429 15.9982 21.6308 16.5062C21.7937 16.7206 22.0293 16.8519 22.3351 16.9043C22.4065 17.2768 22.6852 17.8022 23.3424 17.8826V19.3436H21.4948C20.6423 18.8718 21.0032 18.0408 21.0207 18.006L21.0934 17.8478L20.9305 17.7862C20.008 17.4457 20.2612 16.5289 20.2746 16.4901L20.3124 16.3561L20.1872 16.2971C19.4248 15.9459 19.5286 14.9984 19.538 14.9594C19.3037 15.1484 19.2189 15.5344 19.3804 15.9124C19.2929 16.0116 19.1757 16.1322 19.0478 16.2636C18.2587 16.0638 18.2344 15.3414 18.2344 15.3079L18.2331 15.1967L18.1294 15.1565C17.821 15.0425 17.6095 14.8723 17.5059 14.6431C17.3887 14.3898 17.4304 14.1244 17.4627 13.9971C17.553 14.0172 17.6432 14.0319 17.7294 14.0386C17.8183 14.048 17.9098 14.0533 18.0015 14.0533H18.0068H18.0136C18.1052 14.0533 18.1953 14.048 18.2843 14.0386C18.7758 13.9904 19.3265 13.7799 19.9002 13.2143H23.6401V13.2157ZM20.7608 10.1999L21.4907 10.6222H21.5015L21.6846 10.7281C21.2725 10.842 20.9574 11.0471 20.6935 11.3165C20.6841 11.3245 20.6746 11.3352 20.6652 11.3446C20.6046 11.409 20.544 11.4787 20.4874 11.5496C20.4767 11.5631 20.4659 11.5778 20.4537 11.5926C20.3972 11.6649 20.3447 11.7387 20.2935 11.8164C20.2854 11.8298 20.276 11.8432 20.2666 11.8553C20.206 11.945 20.1481 12.0416 20.0901 12.1407C19.5703 13.0321 18.7407 13.5642 18.0027 13.5655C17.2661 13.5642 16.4366 13.0321 15.9168 12.1407C15.8601 12.0443 15.8036 11.9504 15.743 11.8592C15.7308 11.8419 15.7201 11.8244 15.7093 11.8097C15.6582 11.736 15.607 11.6636 15.5544 11.5952C15.541 11.5765 15.5289 11.5618 15.5154 11.5457C15.4589 11.4773 15.4009 11.409 15.343 11.3459C15.3309 11.3366 15.3229 11.3245 15.3108 11.3137C15.0455 11.0444 14.7316 10.8406 14.3182 10.7281L14.504 10.6222H14.5121L15.242 10.1999L15.9922 9.77247L17.996 10.858L18.0001 10.8541L18.0055 10.858L20.0093 9.77247L20.7608 10.1999ZM19.7723 9.30059L18.1751 10.1383V6.74732L20.3419 6.01552L19.7723 9.30059ZM18.0015 6.37475L15.6258 5.44052C15.8279 4.9647 16.7597 4.55992 18.0015 4.55861C19.2444 4.55992 20.1763 4.9647 20.377 5.44052L18.0015 6.37475Z" fill="black"/>
</svg>
