<svg width="44" height="44" viewBox="0 0 44 44" fill="none" xmlns="http://www.w3.org/2000/svg">
<path fill-rule="evenodd" clip-rule="evenodd" d="M35.5048 14.961C35.7221 14.2779 35.5048 13.7811 34.5422 13.7811H31.3438C30.5365 13.7811 30.1639 14.2158 29.9465 14.6816C29.9465 14.6816 28.3008 18.6562 26.003 21.2334C25.2577 21.9786 24.9162 22.2271 24.5125 22.2271C24.2951 22.2271 24.0157 21.9786 24.0157 21.2955V14.9299C24.0157 14.1226 23.7673 13.75 23.0841 13.75H18.0538C17.557 13.75 17.2465 14.1226 17.2465 14.4953C17.2465 15.2716 18.3954 15.4578 18.5196 17.6314V22.3513C18.5196 23.376 18.3333 23.5623 17.9296 23.5623C16.8428 23.5623 14.2034 19.5566 12.6198 14.9921C12.3092 14.0916 11.9988 13.75 11.1915 13.75H7.96204C7.03051 13.75 6.87524 14.1848 6.87524 14.6505C6.87524 15.4889 7.96204 19.7119 11.9366 25.3012C14.5761 29.1205 18.3333 31.1699 21.7179 31.1699C23.7673 31.1699 24.0157 30.7041 24.0157 29.9279V27.0401C24.0157 26.1085 24.202 25.9533 24.8541 25.9533C25.3199 25.9533 26.1582 26.2016 28.0523 28.0337C30.2259 30.2073 30.5986 31.201 31.8096 31.201H35.0079C35.9394 31.201 36.3742 30.7352 36.1258 29.8347C35.8463 28.9342 34.7906 27.6301 33.4243 26.0774C32.679 25.2081 31.5612 24.2455 31.2196 23.7796C30.7539 23.1587 30.8781 22.9103 31.2196 22.3513C31.1886 22.3513 35.1011 16.8241 35.5048 14.961Z" fill="white"/>
<g clip-path="url(#clip0_276_76)">
<path d="M22 0C9.85015 0 0 9.8497 0 22C0 34.1503 9.85015 44 22 44C34.1499 44 44 34.1503 44 22C44 9.8497 34.1499 0 22 0ZM33.1596 24.3794C34.185 25.3809 35.2698 26.3235 36.1903 27.4285C36.5981 27.9174 36.9825 28.4229 37.2751 28.9914C37.6928 29.8021 37.3156 30.6911 36.59 30.7392L32.0829 30.7383C30.9188 30.8347 29.9925 30.3652 29.2115 29.5694C28.5881 28.9351 28.0097 28.2577 27.4092 27.6018C27.1639 27.3327 26.9055 27.0792 26.5976 26.8798C25.9832 26.4801 25.4493 26.6026 25.0973 27.2444C24.7386 27.8976 24.6567 28.6214 24.6224 29.3483C24.5734 30.4111 24.2529 30.6888 23.1865 30.7388C20.908 30.8455 18.746 30.4998 16.7367 29.351C14.9641 28.3378 13.5921 26.9077 12.3965 25.2886C10.0685 22.1323 8.2855 18.6682 6.6835 15.1045C6.32295 14.3019 6.58672 13.8725 7.47212 13.8558C8.94314 13.8275 10.4142 13.8311 11.8852 13.8545C12.4838 13.8639 12.88 14.2065 13.11 14.7714C13.9049 16.7272 14.8794 18.588 16.1006 20.3138C16.4261 20.7734 16.7583 21.2316 17.2313 21.5562C17.7535 21.9145 18.1514 21.7961 18.3976 21.2132C18.5552 20.8427 18.6231 20.4466 18.6574 20.0496C18.7744 18.6898 18.7883 17.3304 18.5858 15.9759C18.4597 15.1283 17.9831 14.581 17.1382 14.4207C16.7078 14.3393 16.7709 14.1799 16.9802 13.9342C17.3434 13.5092 17.6837 13.2464 18.3639 13.2464L23.4562 13.2455C24.2587 13.403 24.4388 13.7631 24.5477 14.5715L24.5522 20.2305C24.5428 20.5434 24.7093 21.4706 25.2711 21.6755C25.7212 21.824 26.0183 21.463 26.2875 21.1781C27.5087 19.8821 28.3788 18.3526 29.1579 16.7695C29.5018 16.0714 29.7985 15.3489 30.0865 14.6251C30.3008 14.0899 30.6339 13.8266 31.238 13.8356L36.1417 13.8414C36.2862 13.8414 36.4329 13.8428 36.576 13.8675C37.4025 14.0089 37.6289 14.3645 37.3732 15.1707C36.9708 16.4373 36.1889 17.4924 35.4246 18.5502C34.6054 19.6827 33.7317 20.7757 32.9206 21.9131C32.1751 22.9529 32.2341 23.4764 33.1596 24.3794Z" fill="#2B2D3A"/>
<path d="M33.1596 24.3794C34.185 25.3809 35.2698 26.3235 36.1903 27.4285C36.5981 27.9174 36.9825 28.4229 37.2751 28.9914C37.6928 29.8021 37.3156 30.6911 36.59 30.7392L32.0829 30.7383C30.9188 30.8347 29.9925 30.3652 29.2115 29.5694C28.5881 28.9351 28.0097 28.2577 27.4092 27.6018C27.1639 27.3327 26.9055 27.0792 26.5976 26.8798C25.9832 26.4801 25.4493 26.6026 25.0973 27.2444C24.7386 27.8976 24.6567 28.6214 24.6224 29.3483C24.5734 30.4111 24.2529 30.6888 23.1865 30.7388C20.908 30.8455 18.746 30.4998 16.7367 29.351C14.9641 28.3378 13.5921 26.9077 12.3965 25.2886C10.0685 22.1323 8.2855 18.6682 6.6835 15.1045C6.32295 14.3019 6.58672 13.8725 7.47212 13.8558C8.94314 13.8275 10.4142 13.8311 11.8852 13.8545C12.4838 13.8639 12.88 14.2065 13.11 14.7714C13.9049 16.7272 14.8794 18.588 16.1006 20.3138C16.4261 20.7734 16.7583 21.2316 17.2313 21.5562C17.7535 21.9145 18.1514 21.7961 18.3976 21.2132C18.5552 20.8427 18.6231 20.4466 18.6574 20.0496C18.7744 18.6898 18.7883 17.3304 18.5858 15.9759C18.4597 15.1283 17.9831 14.581 17.1382 14.4207C16.7078 14.3393 16.7709 14.1799 16.9802 13.9342C17.3434 13.5092 17.6837 13.2464 18.3639 13.2464L23.4562 13.2455C24.2587 13.403 24.4388 13.7631 24.5477 14.5715L24.5522 20.2305C24.5428 20.5434 24.7093 21.4706 25.2711 21.6755C25.7212 21.824 26.0183 21.463 26.2875 21.1781C27.5087 19.8821 28.3788 18.3526 29.1579 16.7695C29.5018 16.0714 29.7985 15.3489 30.0865 14.6251C30.3008 14.0899 30.6339 13.8266 31.238 13.8356L36.1417 13.8414C36.2862 13.8414 36.4329 13.8428 36.576 13.8675C37.4025 14.0089 37.6289 14.3645 37.3732 15.1707C36.9708 16.4373 36.1889 17.4924 35.4246 18.5502C34.6054 19.6827 33.7317 20.7757 32.9206 21.9131C32.1751 22.9529 32.2341 23.4764 33.1596 24.3794Z" fill="#2B2D3A"/>
<path d="M32.389 25.1969C33.3717 26.1567 34.4113 27.06 35.2934 28.1191C35.6843 28.5875 36.0527 29.072 36.333 29.6168C36.7334 30.3937 36.3719 31.2457 35.6765 31.2918L31.3572 31.2909C30.2416 31.3833 29.3539 30.9333 28.6054 30.1707C28.008 29.5629 27.4537 28.9136 26.8782 28.2851C26.6431 28.0272 26.3955 27.7843 26.1005 27.5932C25.5116 27.2102 25 27.3275 24.6627 27.9426C24.3189 28.5686 24.2404 29.2622 24.2076 29.9589C24.1606 30.9773 23.8534 31.2435 22.8315 31.2914C20.6479 31.3936 18.576 31.0623 16.6504 29.9615C14.9516 28.9904 13.6368 27.62 12.4911 26.0683C10.26 23.0435 8.55136 19.7237 7.0161 16.3085C6.67057 15.5394 6.92336 15.1278 7.77187 15.1119C9.18159 15.0847 10.5913 15.0882 12.001 15.1106C12.5748 15.1196 12.9544 15.4479 13.1748 15.9893C13.9366 17.8636 14.8705 19.6469 16.0408 21.3008C16.3527 21.7412 16.6711 22.1804 17.1245 22.4914C17.6248 22.8347 18.0062 22.7213 18.2421 22.1627C18.3931 21.8076 18.4583 21.428 18.491 21.0476C18.6032 19.7444 18.6166 18.4417 18.4225 17.1437C18.3017 16.3314 17.8448 15.8068 17.0352 15.6533C16.6228 15.5752 16.6832 15.4225 16.8838 15.1869C17.2319 14.7797 17.558 14.5278 18.2098 14.5278L23.0899 14.5269C23.859 14.6779 24.0316 15.023 24.136 15.7978L24.1403 21.221C24.1312 21.5208 24.2908 22.4094 24.8292 22.6057C25.2606 22.748 25.5453 22.4021 25.8032 22.129C26.9736 20.8871 27.8074 19.4213 28.5541 17.9042C28.8837 17.2351 29.1679 16.5427 29.444 15.8491C29.6494 15.3362 29.9686 15.0838 30.5475 15.0925L35.2468 15.0981C35.3853 15.0981 35.5259 15.0994 35.6631 15.1231C36.4551 15.2586 36.6721 15.5993 36.4271 16.3719C36.0414 17.5858 35.2921 18.5969 34.5597 19.6107C33.7746 20.696 32.9373 21.7434 32.1599 22.8335C31.4456 23.8299 31.5021 24.3316 32.389 25.1969Z" fill="white"/>
</g>
<defs>
<clipPath id="clip0_276_76">
<rect width="44" height="44" fill="white"/>
</clipPath>
</defs>
</svg>
