<svg width="20" height="20" viewBox="0 0 20 20" fill="none" xmlns="http://www.w3.org/2000/svg">
<path d="M10 1.875C8.39303 1.875 6.82214 2.35152 5.486 3.24431C4.14985 4.1371 3.10844 5.40605 2.49348 6.8907C1.87852 8.37535 1.71762 10.009 2.03112 11.5851C2.34463 13.1612 3.11846 14.6089 4.25476 15.7452C5.39106 16.8815 6.8388 17.6554 8.41489 17.9689C9.99099 18.2824 11.6247 18.1215 13.1093 17.5065C14.594 16.8916 15.8629 15.8502 16.7557 14.514C17.6485 13.1779 18.125 11.607 18.125 10C18.1226 7.84586 17.2658 5.78066 15.7426 4.25745C14.2193 2.73425 12.1541 1.87744 10 1.875V1.875ZM10 16.875C8.64026 16.875 7.31105 16.4718 6.18046 15.7164C5.04987 14.9609 4.16868 13.8872 3.64833 12.6309C3.12798 11.3747 2.99183 9.99237 3.2571 8.65875C3.52238 7.32513 4.17716 6.10013 5.13864 5.13864C6.10013 4.17715 7.32514 3.52237 8.65876 3.2571C9.99238 2.99183 11.3747 3.12798 12.631 3.64833C13.8872 4.16868 14.9609 5.04987 15.7164 6.18045C16.4718 7.31104 16.875 8.64025 16.875 10C16.8729 11.8227 16.1479 13.5702 14.8591 14.8591C13.5702 16.1479 11.8227 16.8729 10 16.875V16.875ZM11.25 13.75C11.25 13.9158 11.1842 14.0747 11.0669 14.1919C10.9497 14.3092 10.7908 14.375 10.625 14.375H10C9.83424 14.375 9.67527 14.3092 9.55806 14.1919C9.44085 14.0747 9.375 13.9158 9.375 13.75V10C9.20924 10 9.05027 9.93415 8.93306 9.81694C8.81585 9.69973 8.75 9.54076 8.75 9.375C8.75 9.20924 8.81585 9.05027 8.93306 8.93306C9.05027 8.81585 9.20924 8.75 9.375 8.75H10C10.1658 8.75 10.3247 8.81585 10.4419 8.93306C10.5592 9.05027 10.625 9.20924 10.625 9.375V13.125C10.7908 13.125 10.9497 13.1908 11.0669 13.3081C11.1842 13.4253 11.25 13.5842 11.25 13.75ZM8.90625 6.5625C8.90625 6.37708 8.96124 6.19582 9.06425 6.04165C9.16726 5.88748 9.31368 5.76732 9.48499 5.69636C9.65629 5.62541 9.84479 5.60684 10.0267 5.64301C10.2085 5.67919 10.3756 5.76848 10.5067 5.89959C10.6378 6.0307 10.7271 6.19775 10.7632 6.3796C10.7994 6.56146 10.7808 6.74996 10.7099 6.92127C10.6389 7.09257 10.5188 7.23899 10.3646 7.342C10.2104 7.44502 10.0292 7.5 9.84375 7.5C9.59511 7.5 9.35666 7.40123 9.18084 7.22541C9.00503 7.0496 8.90625 6.81114 8.90625 6.5625Z" fill="#2B2D3A" fill-opacity="0.6"/>
</svg>
